ISO-10303-21;
HEADER;
/* Generated by software containing ST-Developer
 * from STEP Tools, Inc. (www.steptools.com) 
 */

FILE_DESCRIPTION(
/* description */ (''),
/* implementation_level */ '2;1');

FILE_NAME(
/* name */ 'brida para abb.stp',
/* time_stamp */ '2026-04-28T16:11:13+02:00',
/* author */ ('Legion'),
/* organization */ (''),
/* preprocessor_version */ 'ST-DEVELOPER v19.2',
/* originating_system */ 'Autodesk Inventor 2024',
/* authorisation */ '');

FILE_SCHEMA (('AUTOMOTIVE_DESIGN { 1 0 10303 214 3 1 1 }'));
ENDSEC;

DATA;
#10=MECHANICAL_DESIGN_GEOMETRIC_PRESENTATION_REPRESENTATION('',(#13),#2055);
#11=SHAPE_REPRESENTATION_RELATIONSHIP('SRR','None',#2062,#12);
#12=ADVANCED_BREP_SHAPE_REPRESENTATION('',(#14),#2054);
#13=STYLED_ITEM('',(#2071),#14);
#14=MANIFOLD_SOLID_BREP('S\X\F3lido1',#1204);
#15=CONICAL_SURFACE('',#1339,3.75,0.785398163397448);
#16=CONICAL_SURFACE('',#1342,3.75,0.785398163397448);
#17=CONICAL_SURFACE('',#1345,3.75,0.785398163397448);
#18=CONICAL_SURFACE('',#1348,3.75,0.785398163397448);
#19=SPHERICAL_SURFACE('',#1252,5.);
#20=SPHERICAL_SURFACE('',#1256,5.);
#21=SPHERICAL_SURFACE('',#1261,5.);
#22=SPHERICAL_SURFACE('',#1265,5.);
#23=FACE_BOUND('',#388,.T.);
#24=FACE_BOUND('',#389,.T.);
#25=FACE_BOUND('',#390,.T.);
#26=FACE_BOUND('',#391,.T.);
#27=FACE_BOUND('',#392,.T.);
#28=FACE_BOUND('',#395,.T.);
#29=FACE_BOUND('',#396,.T.);
#30=FACE_BOUND('',#397,.T.);
#31=FACE_BOUND('',#398,.T.);
#32=FACE_BOUND('',#414,.T.);
#33=FACE_BOUND('',#415,.T.);
#34=FACE_BOUND('',#416,.T.);
#35=FACE_BOUND('',#417,.T.);
#36=FACE_BOUND('',#418,.T.);
#37=FACE_BOUND('',#424,.T.);
#38=FACE_BOUND('',#427,.T.);
#39=FACE_BOUND('',#428,.T.);
#40=FACE_BOUND('',#429,.T.);
#41=FACE_BOUND('',#430,.T.);
#42=FACE_BOUND('',#438,.T.);
#43=FACE_BOUND('',#446,.T.);
#44=FACE_BOUND('',#454,.T.);
#45=FACE_BOUND('',#462,.T.);
#46=PLANE('',#1235);
#47=PLANE('',#1247);
#48=PLANE('',#1276);
#49=PLANE('',#1277);
#50=PLANE('',#1278);
#51=PLANE('',#1294);
#52=PLANE('',#1298);
#53=PLANE('',#1303);
#54=PLANE('',#1304);
#55=PLANE('',#1305);
#56=PLANE('',#1306);
#57=PLANE('',#1307);
#58=PLANE('',#1308);
#59=PLANE('',#1309);
#60=PLANE('',#1311);
#61=PLANE('',#1312);
#62=PLANE('',#1313);
#63=PLANE('',#1314);
#64=PLANE('',#1315);
#65=PLANE('',#1316);
#66=PLANE('',#1317);
#67=PLANE('',#1319);
#68=PLANE('',#1320);
#69=PLANE('',#1321);
#70=PLANE('',#1322);
#71=PLANE('',#1323);
#72=PLANE('',#1324);
#73=PLANE('',#1325);
#74=PLANE('',#1327);
#75=PLANE('',#1328);
#76=PLANE('',#1329);
#77=PLANE('',#1330);
#78=PLANE('',#1331);
#79=PLANE('',#1332);
#80=PLANE('',#1333);
#81=PLANE('',#1351);
#82=PLANE('',#1352);
#83=LINE('',#1725,#190);
#84=LINE('',#1734,#191);
#85=LINE('',#1738,#192);
#86=LINE('',#1742,#193);
#87=LINE('',#1745,#194);
#88=LINE('',#1782,#195);
#89=LINE('',#1783,#196);
#90=LINE('',#1799,#197);
#91=LINE('',#1800,#198);
#92=LINE('',#1802,#199);
#93=LINE('',#1803,#200);
#94=LINE('',#1805,#201);
#95=LINE('',#1806,#202);
#96=LINE('',#1808,#203);
#97=LINE('',#1809,#204);
#98=LINE('',#1811,#205);
#99=LINE('',#1812,#206);
#100=LINE('',#1814,#207);
#101=LINE('',#1815,#208);
#102=LINE('',#1817,#209);
#103=LINE('',#1818,#210);
#104=LINE('',#1826,#211);
#105=LINE('',#1828,#212);
#106=LINE('',#1830,#213);
#107=LINE('',#1832,#214);
#108=LINE('',#1834,#215);
#109=LINE('',#1835,#216);
#110=LINE('',#1838,#217);
#111=LINE('',#1840,#218);
#112=LINE('',#1842,#219);
#113=LINE('',#1844,#220);
#114=LINE('',#1846,#221);
#115=LINE('',#1847,#222);
#116=LINE('',#1850,#223);
#117=LINE('',#1852,#224);
#118=LINE('',#1854,#225);
#119=LINE('',#1856,#226);
#120=LINE('',#1858,#227);
#121=LINE('',#1859,#228);
#122=LINE('',#1862,#229);
#123=LINE('',#1864,#230);
#124=LINE('',#1866,#231);
#125=LINE('',#1868,#232);
#126=LINE('',#1870,#233);
#127=LINE('',#1871,#234);
#128=LINE('',#1881,#235);
#129=LINE('',#1892,#236);
#130=LINE('',#1912,#237);
#131=LINE('',#1914,#238);
#132=LINE('',#1915,#239);
#133=LINE('',#1918,#240);
#134=LINE('',#1919,#241);
#135=LINE('',#1922,#242);
#136=LINE('',#1923,#243);
#137=LINE('',#1926,#244);
#138=LINE('',#1927,#245);
#139=LINE('',#1930,#246);
#140=LINE('',#1931,#247);
#141=LINE('',#1933,#248);
#142=LINE('',#1939,#249);
#143=LINE('',#1941,#250);
#144=LINE('',#1942,#251);
#145=LINE('',#1945,#252);
#146=LINE('',#1946,#253);
#147=LINE('',#1949,#254);
#148=LINE('',#1950,#255);
#149=LINE('',#1953,#256);
#150=LINE('',#1954,#257);
#151=LINE('',#1957,#258);
#152=LINE('',#1958,#259);
#153=LINE('',#1960,#260);
#154=LINE('',#1966,#261);
#155=LINE('',#1968,#262);
#156=LINE('',#1969,#263);
#157=LINE('',#1972,#264);
#158=LINE('',#1973,#265);
#159=LINE('',#1976,#266);
#160=LINE('',#1977,#267);
#161=LINE('',#1980,#268);
#162=LINE('',#1981,#269);
#163=LINE('',#1984,#270);
#164=LINE('',#1985,#271);
#165=LINE('',#1987,#272);
#166=LINE('',#1993,#273);
#167=LINE('',#1995,#274);
#168=LINE('',#1996,#275);
#169=LINE('',#1999,#276);
#170=LINE('',#2000,#277);
#171=LINE('',#2003,#278);
#172=LINE('',#2004,#279);
#173=LINE('',#2007,#280);
#174=LINE('',#2008,#281);
#175=LINE('',#2011,#282);
#176=LINE('',#2012,#283);
#177=LINE('',#2014,#284);
#178=LINE('',#2019,#285);
#179=LINE('',#2021,#286);
#180=LINE('',#2023,#287);
#181=LINE('',#2025,#288);
#182=LINE('',#2028,#289);
#183=LINE('',#2031,#290);
#184=LINE('',#2034,#291);
#185=LINE('',#2037,#292);
#186=LINE('',#2040,#293);
#187=LINE('',#2043,#294);
#188=LINE('',#2046,#295);
#189=LINE('',#2049,#296);
#190=VECTOR('',#1367,28.85);
#191=VECTOR('',#1376,10.);
#192=VECTOR('',#1379,10.);
#193=VECTOR('',#1382,10.);
#194=VECTOR('',#1385,10.);
#195=VECTOR('',#1428,10.);
#196=VECTOR('',#1429,10.);
#197=VECTOR('',#1448,10.);
#198=VECTOR('',#1449,10.);
#199=VECTOR('',#1452,10.);
#200=VECTOR('',#1453,10.);
#201=VECTOR('',#1456,10.);
#202=VECTOR('',#1457,10.);
#203=VECTOR('',#1460,10.);
#204=VECTOR('',#1461,10.);
#205=VECTOR('',#1464,10.);
#206=VECTOR('',#1465,10.);
#207=VECTOR('',#1468,10.);
#208=VECTOR('',#1469,10.);
#209=VECTOR('',#1472,10.);
#210=VECTOR('',#1473,10.);
#211=VECTOR('',#1482,10.);
#212=VECTOR('',#1483,10.);
#213=VECTOR('',#1484,10.);
#214=VECTOR('',#1485,10.);
#215=VECTOR('',#1486,10.);
#216=VECTOR('',#1487,10.);
#217=VECTOR('',#1488,10.);
#218=VECTOR('',#1489,10.);
#219=VECTOR('',#1490,10.);
#220=VECTOR('',#1491,10.);
#221=VECTOR('',#1492,10.);
#222=VECTOR('',#1493,10.);
#223=VECTOR('',#1494,10.);
#224=VECTOR('',#1495,10.);
#225=VECTOR('',#1496,10.);
#226=VECTOR('',#1497,10.);
#227=VECTOR('',#1498,10.);
#228=VECTOR('',#1499,10.);
#229=VECTOR('',#1500,10.);
#230=VECTOR('',#1501,10.);
#231=VECTOR('',#1502,10.);
#232=VECTOR('',#1503,10.);
#233=VECTOR('',#1504,10.);
#234=VECTOR('',#1505,10.);
#235=VECTOR('',#1518,37.5);
#236=VECTOR('',#1531,20.2);
#237=VECTOR('',#1556,10.);
#238=VECTOR('',#1557,10.);
#239=VECTOR('',#1558,10.);
#240=VECTOR('',#1561,10.);
#241=VECTOR('',#1562,10.);
#242=VECTOR('',#1565,10.);
#243=VECTOR('',#1566,10.);
#244=VECTOR('',#1569,10.);
#245=VECTOR('',#1570,10.);
#246=VECTOR('',#1573,10.);
#247=VECTOR('',#1574,10.);
#248=VECTOR('',#1577,10.);
#249=VECTOR('',#1584,10.);
#250=VECTOR('',#1585,10.);
#251=VECTOR('',#1586,10.);
#252=VECTOR('',#1589,10.);
#253=VECTOR('',#1590,10.);
#254=VECTOR('',#1593,10.);
#255=VECTOR('',#1594,10.);
#256=VECTOR('',#1597,10.);
#257=VECTOR('',#1598,10.);
#258=VECTOR('',#1601,10.);
#259=VECTOR('',#1602,10.);
#260=VECTOR('',#1605,10.);
#261=VECTOR('',#1612,10.);
#262=VECTOR('',#1613,10.);
#263=VECTOR('',#1614,10.);
#264=VECTOR('',#1617,10.);
#265=VECTOR('',#1618,10.);
#266=VECTOR('',#1621,10.);
#267=VECTOR('',#1622,10.);
#268=VECTOR('',#1625,10.);
#269=VECTOR('',#1626,10.);
#270=VECTOR('',#1629,10.);
#271=VECTOR('',#1630,10.);
#272=VECTOR('',#1633,10.);
#273=VECTOR('',#1640,10.);
#274=VECTOR('',#1641,10.);
#275=VECTOR('',#1642,10.);
#276=VECTOR('',#1645,10.);
#277=VECTOR('',#1646,10.);
#278=VECTOR('',#1649,10.);
#279=VECTOR('',#1650,10.);
#280=VECTOR('',#1653,10.);
#281=VECTOR('',#1654,10.);
#282=VECTOR('',#1657,10.);
#283=VECTOR('',#1658,10.);
#284=VECTOR('',#1661,10.);
#285=VECTOR('',#1668,3.5);
#286=VECTOR('',#1671,3.5);
#287=VECTOR('',#1674,3.5);
#288=VECTOR('',#1677,3.5);
#289=VECTOR('',#1680,3.75);
#290=VECTOR('',#1685,3.);
#291=VECTOR('',#1688,3.75);
#292=VECTOR('',#1693,3.);
#293=VECTOR('',#1696,3.75);
#294=VECTOR('',#1701,3.);
#295=VECTOR('',#1704,3.75);
#296=VECTOR('',#1709,3.);
#297=CYLINDRICAL_SURFACE('',#1232,28.85);
#298=CYLINDRICAL_SURFACE('',#1260,5.);
#299=CYLINDRICAL_SURFACE('',#1269,5.);
#300=CYLINDRICAL_SURFACE('',#1270,5.);
#301=CYLINDRICAL_SURFACE('',#1271,5.);
#302=CYLINDRICAL_SURFACE('',#1272,5.);
#303=CYLINDRICAL_SURFACE('',#1273,5.);
#304=CYLINDRICAL_SURFACE('',#1274,5.);
#305=CYLINDRICAL_SURFACE('',#1275,5.);
#306=CYLINDRICAL_SURFACE('',#1284,37.5);
#307=CYLINDRICAL_SURFACE('',#1291,20.2);
#308=CYLINDRICAL_SURFACE('',#1335,3.5);
#309=CYLINDRICAL_SURFACE('',#1336,3.5);
#310=CYLINDRICAL_SURFACE('',#1337,3.5);
#311=CYLINDRICAL_SURFACE('',#1338,3.5);
#312=CYLINDRICAL_SURFACE('',#1341,3.);
#313=CYLINDRICAL_SURFACE('',#1344,3.);
#314=CYLINDRICAL_SURFACE('',#1347,3.);
#315=CYLINDRICAL_SURFACE('',#1350,3.);
#316=FACE_OUTER_BOUND('',#385,.T.);
#317=FACE_OUTER_BOUND('',#386,.T.);
#318=FACE_OUTER_BOUND('',#387,.T.);
#319=FACE_OUTER_BOUND('',#393,.T.);
#320=FACE_OUTER_BOUND('',#394,.T.);
#321=FACE_OUTER_BOUND('',#399,.T.);
#322=FACE_OUTER_BOUND('',#400,.T.);
#323=FACE_OUTER_BOUND('',#401,.T.);
#324=FACE_OUTER_BOUND('',#402,.T.);
#325=FACE_OUTER_BOUND('',#403,.T.);
#326=FACE_OUTER_BOUND('',#404,.T.);
#327=FACE_OUTER_BOUND('',#405,.T.);
#328=FACE_OUTER_BOUND('',#406,.T.);
#329=FACE_OUTER_BOUND('',#407,.T.);
#330=FACE_OUTER_BOUND('',#408,.T.);
#331=FACE_OUTER_BOUND('',#409,.T.);
#332=FACE_OUTER_BOUND('',#410,.T.);
#333=FACE_OUTER_BOUND('',#411,.T.);
#334=FACE_OUTER_BOUND('',#412,.T.);
#335=FACE_OUTER_BOUND('',#413,.T.);
#336=FACE_OUTER_BOUND('',#419,.T.);
#337=FACE_OUTER_BOUND('',#420,.T.);
#338=FACE_OUTER_BOUND('',#421,.T.);
#339=FACE_OUTER_BOUND('',#422,.T.);
#340=FACE_OUTER_BOUND('',#423,.T.);
#341=FACE_OUTER_BOUND('',#425,.T.);
#342=FACE_OUTER_BOUND('',#426,.T.);
#343=FACE_OUTER_BOUND('',#431,.T.);
#344=FACE_OUTER_BOUND('',#432,.T.);
#345=FACE_OUTER_BOUND('',#433,.T.);
#346=FACE_OUTER_BOUND('',#434,.T.);
#347=FACE_OUTER_BOUND('',#435,.T.);
#348=FACE_OUTER_BOUND('',#436,.T.);
#349=FACE_OUTER_BOUND('',#437,.T.);
#350=FACE_OUTER_BOUND('',#439,.T.);
#351=FACE_OUTER_BOUND('',#440,.T.);
#352=FACE_OUTER_BOUND('',#441,.T.);
#353=FACE_OUTER_BOUND('',#442,.T.);
#354=FACE_OUTER_BOUND('',#443,.T.);
#355=FACE_OUTER_BOUND('',#444,.T.);
#356=FACE_OUTER_BOUND('',#445,.T.);
#357=FACE_OUTER_BOUND('',#447,.T.);
#358=FACE_OUTER_BOUND('',#448,.T.);
#359=FACE_OUTER_BOUND('',#449,.T.);
#360=FACE_OUTER_BOUND('',#450,.T.);
#361=FACE_OUTER_BOUND('',#451,.T.);
#362=FACE_OUTER_BOUND('',#452,.T.);
#363=FACE_OUTER_BOUND('',#453,.T.);
#364=FACE_OUTER_BOUND('',#455,.T.);
#365=FACE_OUTER_BOUND('',#456,.T.);
#366=FACE_OUTER_BOUND('',#457,.T.);
#367=FACE_OUTER_BOUND('',#458,.T.);
#368=FACE_OUTER_BOUND('',#459,.T.);
#369=FACE_OUTER_BOUND('',#460,.T.);
#370=FACE_OUTER_BOUND('',#461,.T.);
#371=FACE_OUTER_BOUND('',#463,.T.);
#372=FACE_OUTER_BOUND('',#464,.T.);
#373=FACE_OUTER_BOUND('',#465,.T.);
#374=FACE_OUTER_BOUND('',#466,.T.);
#375=FACE_OUTER_BOUND('',#467,.T.);
#376=FACE_OUTER_BOUND('',#468,.T.);
#377=FACE_OUTER_BOUND('',#469,.T.);
#378=FACE_OUTER_BOUND('',#470,.T.);
#379=FACE_OUTER_BOUND('',#471,.T.);
#380=FACE_OUTER_BOUND('',#472,.T.);
#381=FACE_OUTER_BOUND('',#473,.T.);
#382=FACE_OUTER_BOUND('',#474,.T.);
#383=FACE_OUTER_BOUND('',#475,.T.);
#384=FACE_OUTER_BOUND('',#476,.T.);
#385=EDGE_LOOP('',(#802,#803,#804,#805,#806));
#386=EDGE_LOOP('',(#807,#808,#809,#810,#811,#812));
#387=EDGE_LOOP('',(#813,#814,#815,#816,#817,#818,#819,#820));
#388=EDGE_LOOP('',(#821));
#389=EDGE_LOOP('',(#822));
#390=EDGE_LOOP('',(#823));
#391=EDGE_LOOP('',(#824));
#392=EDGE_LOOP('',(#825));
#393=EDGE_LOOP('',(#826,#827,#828,#829,#830));
#394=EDGE_LOOP('',(#831));
#395=EDGE_LOOP('',(#832));
#396=EDGE_LOOP('',(#833));
#397=EDGE_LOOP('',(#834));
#398=EDGE_LOOP('',(#835));
#399=EDGE_LOOP('',(#836,#837,#838));
#400=EDGE_LOOP('',(#839,#840,#841));
#401=EDGE_LOOP('',(#842,#843,#844,#845));
#402=EDGE_LOOP('',(#846,#847,#848));
#403=EDGE_LOOP('',(#849,#850,#851));
#404=EDGE_LOOP('',(#852,#853,#854,#855));
#405=EDGE_LOOP('',(#856,#857,#858,#859));
#406=EDGE_LOOP('',(#860,#861,#862,#863));
#407=EDGE_LOOP('',(#864,#865,#866,#867));
#408=EDGE_LOOP('',(#868,#869,#870,#871));
#409=EDGE_LOOP('',(#872,#873,#874,#875));
#410=EDGE_LOOP('',(#876,#877,#878,#879));
#411=EDGE_LOOP('',(#880,#881,#882,#883));
#412=EDGE_LOOP('',(#884,#885,#886,#887));
#413=EDGE_LOOP('',(#888,#889,#890,#891));
#414=EDGE_LOOP('',(#892));
#415=EDGE_LOOP('',(#893,#894,#895,#896,#897,#898));
#416=EDGE_LOOP('',(#899,#900,#901,#902,#903,#904));
#417=EDGE_LOOP('',(#905,#906,#907,#908,#909,#910));
#418=EDGE_LOOP('',(#911,#912,#913,#914,#915,#916));
#419=EDGE_LOOP('',(#917,#918,#919,#920,#921));
#420=EDGE_LOOP('',(#922,#923,#924,#925,#926));
#421=EDGE_LOOP('',(#927,#928,#929,#930,#931));
#422=EDGE_LOOP('',(#932,#933,#934,#935,#936,#937));
#423=EDGE_LOOP('',(#938));
#424=EDGE_LOOP('',(#939));
#425=EDGE_LOOP('',(#940,#941,#942,#943,#944));
#426=EDGE_LOOP('',(#945));
#427=EDGE_LOOP('',(#946));
#428=EDGE_LOOP('',(#947));
#429=EDGE_LOOP('',(#948));
#430=EDGE_LOOP('',(#949));
#431=EDGE_LOOP('',(#950,#951,#952,#953));
#432=EDGE_LOOP('',(#954,#955,#956,#957));
#433=EDGE_LOOP('',(#958,#959,#960,#961));
#434=EDGE_LOOP('',(#962,#963,#964,#965));
#435=EDGE_LOOP('',(#966,#967,#968,#969));
#436=EDGE_LOOP('',(#970,#971,#972,#973));
#437=EDGE_LOOP('',(#974,#975,#976,#977,#978,#979));
#438=EDGE_LOOP('',(#980));
#439=EDGE_LOOP('',(#981,#982,#983,#984));
#440=EDGE_LOOP('',(#985,#986,#987,#988));
#441=EDGE_LOOP('',(#989,#990,#991,#992));
#442=EDGE_LOOP('',(#993,#994,#995,#996));
#443=EDGE_LOOP('',(#997,#998,#999,#1000));
#444=EDGE_LOOP('',(#1001,#1002,#1003,#1004));
#445=EDGE_LOOP('',(#1005,#1006,#1007,#1008,#1009,#1010));
#446=EDGE_LOOP('',(#1011));
#447=EDGE_LOOP('',(#1012,#1013,#1014,#1015));
#448=EDGE_LOOP('',(#1016,#1017,#1018,#1019));
#449=EDGE_LOOP('',(#1020,#1021,#1022,#1023));
#450=EDGE_LOOP('',(#1024,#1025,#1026,#1027));
#451=EDGE_LOOP('',(#1028,#1029,#1030,#1031));
#452=EDGE_LOOP('',(#1032,#1033,#1034,#1035));
#453=EDGE_LOOP('',(#1036,#1037,#1038,#1039,#1040,#1041));
#454=EDGE_LOOP('',(#1042));
#455=EDGE_LOOP('',(#1043,#1044,#1045,#1046));
#456=EDGE_LOOP('',(#1047,#1048,#1049,#1050));
#457=EDGE_LOOP('',(#1051,#1052,#1053,#1054));
#458=EDGE_LOOP('',(#1055,#1056,#1057,#1058));
#459=EDGE_LOOP('',(#1059,#1060,#1061,#1062));
#460=EDGE_LOOP('',(#1063,#1064,#1065,#1066));
#461=EDGE_LOOP('',(#1067,#1068,#1069,#1070,#1071,#1072));
#462=EDGE_LOOP('',(#1073));
#463=EDGE_LOOP('',(#1074,#1075,#1076,#1077));
#464=EDGE_LOOP('',(#1078,#1079,#1080,#1081));
#465=EDGE_LOOP('',(#1082,#1083,#1084,#1085));
#466=EDGE_LOOP('',(#1086,#1087,#1088,#1089));
#467=EDGE_LOOP('',(#1090,#1091,#1092,#1093));
#468=EDGE_LOOP('',(#1094,#1095,#1096,#1097));
#469=EDGE_LOOP('',(#1098,#1099,#1100,#1101));
#470=EDGE_LOOP('',(#1102,#1103,#1104,#1105));
#471=EDGE_LOOP('',(#1106,#1107,#1108,#1109));
#472=EDGE_LOOP('',(#1110,#1111,#1112,#1113));
#473=EDGE_LOOP('',(#1114,#1115,#1116,#1117));
#474=EDGE_LOOP('',(#1118,#1119,#1120,#1121));
#475=EDGE_LOOP('',(#1122,#1123,#1124,#1125));
#476=EDGE_LOOP('',(#1126,#1127,#1128,#1129));
#477=CIRCLE('',#1228,31.85);
#478=CIRCLE('',#1229,3.);
#479=CIRCLE('',#1230,28.85);
#480=CIRCLE('',#1231,28.85);
#481=CIRCLE('',#1233,28.85);
#482=CIRCLE('',#1234,28.85);
#483=CIRCLE('',#1236,5.);
#484=CIRCLE('',#1237,5.);
#485=CIRCLE('',#1238,5.);
#486=CIRCLE('',#1239,5.);
#487=CIRCLE('',#1240,3.5);
#488=CIRCLE('',#1241,3.5);
#489=CIRCLE('',#1242,3.5);
#490=CIRCLE('',#1243,3.5);
#491=CIRCLE('',#1245,25.85);
#492=CIRCLE('',#1246,3.);
#493=CIRCLE('',#1248,4.5);
#494=CIRCLE('',#1249,4.5);
#495=CIRCLE('',#1250,4.5);
#496=CIRCLE('',#1251,4.5);
#497=CIRCLE('',#1253,5.);
#498=CIRCLE('',#1254,5.);
#499=CIRCLE('',#1255,5.);
#500=CIRCLE('',#1257,5.);
#501=CIRCLE('',#1258,5.);
#502=CIRCLE('',#1259,5.);
#503=CIRCLE('',#1262,5.);
#504=CIRCLE('',#1263,5.);
#505=CIRCLE('',#1264,5.);
#506=CIRCLE('',#1266,5.);
#507=CIRCLE('',#1267,5.);
#508=CIRCLE('',#1268,5.);
#509=CIRCLE('',#1279,40.5);
#510=CIRCLE('',#1281,37.5);
#511=CIRCLE('',#1282,3.);
#512=CIRCLE('',#1283,37.5);
#513=CIRCLE('',#1285,37.5);
#514=CIRCLE('',#1287,21.2);
#515=CIRCLE('',#1288,1.);
#516=CIRCLE('',#1289,20.2);
#517=CIRCLE('',#1290,20.2);
#518=CIRCLE('',#1292,20.2);
#519=CIRCLE('',#1293,20.2);
#520=CIRCLE('',#1296,1.);
#521=CIRCLE('',#1297,19.2);
#522=CIRCLE('',#1299,3.);
#523=CIRCLE('',#1300,3.);
#524=CIRCLE('',#1301,3.);
#525=CIRCLE('',#1302,3.);
#526=CIRCLE('',#1310,3.5);
#527=CIRCLE('',#1318,3.5);
#528=CIRCLE('',#1326,3.5);
#529=CIRCLE('',#1334,3.5);
#530=CIRCLE('',#1340,3.);
#531=CIRCLE('',#1343,3.);
#532=CIRCLE('',#1346,3.);
#533=CIRCLE('',#1349,3.);
#534=VERTEX_POINT('',#1716);
#535=VERTEX_POINT('',#1718);
#536=VERTEX_POINT('',#1720);
#537=VERTEX_POINT('',#1724);
#538=VERTEX_POINT('',#1726);
#539=VERTEX_POINT('',#1730);
#540=VERTEX_POINT('',#1731);
#541=VERTEX_POINT('',#1733);
#542=VERTEX_POINT('',#1735);
#543=VERTEX_POINT('',#1737);
#544=VERTEX_POINT('',#1739);
#545=VERTEX_POINT('',#1741);
#546=VERTEX_POINT('',#1743);
#547=VERTEX_POINT('',#1746);
#548=VERTEX_POINT('',#1748);
#549=VERTEX_POINT('',#1750);
#550=VERTEX_POINT('',#1752);
#551=VERTEX_POINT('',#1755);
#552=VERTEX_POINT('',#1759);
#553=VERTEX_POINT('',#1761);
#554=VERTEX_POINT('',#1763);
#555=VERTEX_POINT('',#1765);
#556=VERTEX_POINT('',#1768);
#557=VERTEX_POINT('',#1769);
#558=VERTEX_POINT('',#1771);
#559=VERTEX_POINT('',#1775);
#560=VERTEX_POINT('',#1776);
#561=VERTEX_POINT('',#1778);
#562=VERTEX_POINT('',#1785);
#563=VERTEX_POINT('',#1786);
#564=VERTEX_POINT('',#1788);
#565=VERTEX_POINT('',#1792);
#566=VERTEX_POINT('',#1793);
#567=VERTEX_POINT('',#1795);
#568=VERTEX_POINT('',#1822);
#569=VERTEX_POINT('',#1824);
#570=VERTEX_POINT('',#1825);
#571=VERTEX_POINT('',#1827);
#572=VERTEX_POINT('',#1829);
#573=VERTEX_POINT('',#1831);
#574=VERTEX_POINT('',#1833);
#575=VERTEX_POINT('',#1836);
#576=VERTEX_POINT('',#1837);
#577=VERTEX_POINT('',#1839);
#578=VERTEX_POINT('',#1841);
#579=VERTEX_POINT('',#1843);
#580=VERTEX_POINT('',#1845);
#581=VERTEX_POINT('',#1848);
#582=VERTEX_POINT('',#1849);
#583=VERTEX_POINT('',#1851);
#584=VERTEX_POINT('',#1853);
#585=VERTEX_POINT('',#1855);
#586=VERTEX_POINT('',#1857);
#587=VERTEX_POINT('',#1860);
#588=VERTEX_POINT('',#1861);
#589=VERTEX_POINT('',#1863);
#590=VERTEX_POINT('',#1865);
#591=VERTEX_POINT('',#1867);
#592=VERTEX_POINT('',#1869);
#593=VERTEX_POINT('',#1873);
#594=VERTEX_POINT('',#1874);
#595=VERTEX_POINT('',#1879);
#596=VERTEX_POINT('',#1883);
#597=VERTEX_POINT('',#1885);
#598=VERTEX_POINT('',#1887);
#599=VERTEX_POINT('',#1891);
#600=VERTEX_POINT('',#1893);
#601=VERTEX_POINT('',#1898);
#602=VERTEX_POINT('',#1902);
#603=VERTEX_POINT('',#1904);
#604=VERTEX_POINT('',#1906);
#605=VERTEX_POINT('',#1908);
#606=VERTEX_POINT('',#1911);
#607=VERTEX_POINT('',#1913);
#608=VERTEX_POINT('',#1917);
#609=VERTEX_POINT('',#1921);
#610=VERTEX_POINT('',#1925);
#611=VERTEX_POINT('',#1929);
#612=VERTEX_POINT('',#1935);
#613=VERTEX_POINT('',#1938);
#614=VERTEX_POINT('',#1940);
#615=VERTEX_POINT('',#1944);
#616=VERTEX_POINT('',#1948);
#617=VERTEX_POINT('',#1952);
#618=VERTEX_POINT('',#1956);
#619=VERTEX_POINT('',#1962);
#620=VERTEX_POINT('',#1965);
#621=VERTEX_POINT('',#1967);
#622=VERTEX_POINT('',#1971);
#623=VERTEX_POINT('',#1975);
#624=VERTEX_POINT('',#1979);
#625=VERTEX_POINT('',#1983);
#626=VERTEX_POINT('',#1989);
#627=VERTEX_POINT('',#1992);
#628=VERTEX_POINT('',#1994);
#629=VERTEX_POINT('',#1998);
#630=VERTEX_POINT('',#2002);
#631=VERTEX_POINT('',#2006);
#632=VERTEX_POINT('',#2010);
#633=VERTEX_POINT('',#2016);
#634=VERTEX_POINT('',#2027);
#635=VERTEX_POINT('',#2033);
#636=VERTEX_POINT('',#2039);
#637=VERTEX_POINT('',#2045);
#638=EDGE_CURVE('',#534,#534,#477,.T.);
#639=EDGE_CURVE('',#534,#535,#478,.T.);
#640=EDGE_CURVE('',#535,#536,#479,.T.);
#641=EDGE_CURVE('',#536,#535,#480,.T.);
#642=EDGE_CURVE('',#536,#537,#83,.T.);
#643=EDGE_CURVE('',#538,#537,#481,.T.);
#644=EDGE_CURVE('',#537,#538,#482,.T.);
#645=EDGE_CURVE('',#539,#540,#483,.T.);
#646=EDGE_CURVE('',#539,#541,#84,.T.);
#647=EDGE_CURVE('',#542,#541,#484,.T.);
#648=EDGE_CURVE('',#542,#543,#85,.T.);
#649=EDGE_CURVE('',#544,#543,#485,.T.);
#650=EDGE_CURVE('',#544,#545,#86,.T.);
#651=EDGE_CURVE('',#546,#545,#486,.T.);
#652=EDGE_CURVE('',#546,#540,#87,.T.);
#653=EDGE_CURVE('',#547,#547,#487,.T.);
#654=EDGE_CURVE('',#548,#548,#488,.T.);
#655=EDGE_CURVE('',#549,#549,#489,.T.);
#656=EDGE_CURVE('',#550,#550,#490,.T.);
#657=EDGE_CURVE('',#551,#551,#491,.T.);
#658=EDGE_CURVE('',#551,#538,#492,.T.);
#659=EDGE_CURVE('',#552,#552,#493,.T.);
#660=EDGE_CURVE('',#553,#553,#494,.T.);
#661=EDGE_CURVE('',#554,#554,#495,.T.);
#662=EDGE_CURVE('',#555,#555,#496,.T.);
#663=EDGE_CURVE('',#556,#557,#497,.F.);
#664=EDGE_CURVE('',#558,#556,#498,.F.);
#665=EDGE_CURVE('',#557,#558,#499,.F.);
#666=EDGE_CURVE('',#559,#560,#500,.F.);
#667=EDGE_CURVE('',#561,#559,#501,.F.);
#668=EDGE_CURVE('',#560,#561,#502,.F.);
#669=EDGE_CURVE('',#559,#557,#88,.T.);
#670=EDGE_CURVE('',#558,#561,#89,.T.);
#671=EDGE_CURVE('',#562,#563,#503,.F.);
#672=EDGE_CURVE('',#564,#562,#504,.F.);
#673=EDGE_CURVE('',#563,#564,#505,.F.);
#674=EDGE_CURVE('',#565,#566,#506,.F.);
#675=EDGE_CURVE('',#567,#565,#507,.F.);
#676=EDGE_CURVE('',#566,#567,#508,.F.);
#677=EDGE_CURVE('',#562,#567,#90,.T.);
#678=EDGE_CURVE('',#565,#564,#91,.T.);
#679=EDGE_CURVE('',#540,#566,#92,.T.);
#680=EDGE_CURVE('',#567,#539,#93,.T.);
#681=EDGE_CURVE('',#566,#560,#94,.T.);
#682=EDGE_CURVE('',#561,#565,#95,.T.);
#683=EDGE_CURVE('',#556,#563,#96,.T.);
#684=EDGE_CURVE('',#564,#558,#97,.T.);
#685=EDGE_CURVE('',#541,#562,#98,.T.);
#686=EDGE_CURVE('',#563,#542,#99,.T.);
#687=EDGE_CURVE('',#545,#559,#100,.T.);
#688=EDGE_CURVE('',#560,#546,#101,.T.);
#689=EDGE_CURVE('',#543,#556,#102,.T.);
#690=EDGE_CURVE('',#557,#544,#103,.T.);
#691=EDGE_CURVE('',#568,#568,#509,.T.);
#692=EDGE_CURVE('',#569,#570,#104,.T.);
#693=EDGE_CURVE('',#570,#571,#105,.T.);
#694=EDGE_CURVE('',#571,#572,#106,.T.);
#695=EDGE_CURVE('',#572,#573,#107,.T.);
#696=EDGE_CURVE('',#573,#574,#108,.T.);
#697=EDGE_CURVE('',#574,#569,#109,.T.);
#698=EDGE_CURVE('',#575,#576,#110,.T.);
#699=EDGE_CURVE('',#576,#577,#111,.T.);
#700=EDGE_CURVE('',#577,#578,#112,.T.);
#701=EDGE_CURVE('',#578,#579,#113,.T.);
#702=EDGE_CURVE('',#579,#580,#114,.T.);
#703=EDGE_CURVE('',#580,#575,#115,.T.);
#704=EDGE_CURVE('',#581,#582,#116,.T.);
#705=EDGE_CURVE('',#582,#583,#117,.T.);
#706=EDGE_CURVE('',#583,#584,#118,.T.);
#707=EDGE_CURVE('',#584,#585,#119,.T.);
#708=EDGE_CURVE('',#585,#586,#120,.T.);
#709=EDGE_CURVE('',#586,#581,#121,.T.);
#710=EDGE_CURVE('',#587,#588,#122,.T.);
#711=EDGE_CURVE('',#588,#589,#123,.T.);
#712=EDGE_CURVE('',#589,#590,#124,.T.);
#713=EDGE_CURVE('',#590,#591,#125,.T.);
#714=EDGE_CURVE('',#591,#592,#126,.T.);
#715=EDGE_CURVE('',#592,#587,#127,.T.);
#716=EDGE_CURVE('',#593,#594,#510,.T.);
#717=EDGE_CURVE('',#594,#568,#511,.T.);
#718=EDGE_CURVE('',#594,#593,#512,.T.);
#719=EDGE_CURVE('',#595,#595,#513,.T.);
#720=EDGE_CURVE('',#595,#593,#128,.T.);
#721=EDGE_CURVE('',#596,#596,#514,.T.);
#722=EDGE_CURVE('',#596,#597,#515,.T.);
#723=EDGE_CURVE('',#597,#598,#516,.T.);
#724=EDGE_CURVE('',#598,#597,#517,.T.);
#725=EDGE_CURVE('',#598,#599,#129,.T.);
#726=EDGE_CURVE('',#600,#599,#518,.T.);
#727=EDGE_CURVE('',#599,#600,#519,.T.);
#728=EDGE_CURVE('',#600,#601,#520,.T.);
#729=EDGE_CURVE('',#601,#601,#521,.T.);
#730=EDGE_CURVE('',#602,#602,#522,.T.);
#731=EDGE_CURVE('',#603,#603,#523,.T.);
#732=EDGE_CURVE('',#604,#604,#524,.T.);
#733=EDGE_CURVE('',#605,#605,#525,.T.);
#734=EDGE_CURVE('',#569,#606,#130,.T.);
#735=EDGE_CURVE('',#606,#607,#131,.T.);
#736=EDGE_CURVE('',#570,#607,#132,.T.);
#737=EDGE_CURVE('',#574,#608,#133,.T.);
#738=EDGE_CURVE('',#608,#606,#134,.T.);
#739=EDGE_CURVE('',#573,#609,#135,.T.);
#740=EDGE_CURVE('',#609,#608,#136,.T.);
#741=EDGE_CURVE('',#572,#610,#137,.T.);
#742=EDGE_CURVE('',#610,#609,#138,.T.);
#743=EDGE_CURVE('',#571,#611,#139,.T.);
#744=EDGE_CURVE('',#611,#610,#140,.T.);
#745=EDGE_CURVE('',#607,#611,#141,.T.);
#746=EDGE_CURVE('',#612,#612,#526,.T.);
#747=EDGE_CURVE('',#575,#613,#142,.T.);
#748=EDGE_CURVE('',#613,#614,#143,.T.);
#749=EDGE_CURVE('',#576,#614,#144,.T.);
#750=EDGE_CURVE('',#580,#615,#145,.T.);
#751=EDGE_CURVE('',#615,#613,#146,.T.);
#752=EDGE_CURVE('',#579,#616,#147,.T.);
#753=EDGE_CURVE('',#616,#615,#148,.T.);
#754=EDGE_CURVE('',#578,#617,#149,.T.);
#755=EDGE_CURVE('',#617,#616,#150,.T.);
#756=EDGE_CURVE('',#577,#618,#151,.T.);
#757=EDGE_CURVE('',#618,#617,#152,.T.);
#758=EDGE_CURVE('',#614,#618,#153,.T.);
#759=EDGE_CURVE('',#619,#619,#527,.T.);
#760=EDGE_CURVE('',#581,#620,#154,.T.);
#761=EDGE_CURVE('',#620,#621,#155,.T.);
#762=EDGE_CURVE('',#582,#621,#156,.T.);
#763=EDGE_CURVE('',#586,#622,#157,.T.);
#764=EDGE_CURVE('',#622,#620,#158,.T.);
#765=EDGE_CURVE('',#585,#623,#159,.T.);
#766=EDGE_CURVE('',#623,#622,#160,.T.);
#767=EDGE_CURVE('',#584,#624,#161,.T.);
#768=EDGE_CURVE('',#624,#623,#162,.T.);
#769=EDGE_CURVE('',#583,#625,#163,.T.);
#770=EDGE_CURVE('',#625,#624,#164,.T.);
#771=EDGE_CURVE('',#621,#625,#165,.T.);
#772=EDGE_CURVE('',#626,#626,#528,.T.);
#773=EDGE_CURVE('',#587,#627,#166,.T.);
#774=EDGE_CURVE('',#627,#628,#167,.T.);
#775=EDGE_CURVE('',#588,#628,#168,.T.);
#776=EDGE_CURVE('',#592,#629,#169,.T.);
#777=EDGE_CURVE('',#629,#627,#170,.T.);
#778=EDGE_CURVE('',#591,#630,#171,.T.);
#779=EDGE_CURVE('',#630,#629,#172,.T.);
#780=EDGE_CURVE('',#590,#631,#173,.T.);
#781=EDGE_CURVE('',#631,#630,#174,.T.);
#782=EDGE_CURVE('',#589,#632,#175,.T.);
#783=EDGE_CURVE('',#632,#631,#176,.T.);
#784=EDGE_CURVE('',#628,#632,#177,.T.);
#785=EDGE_CURVE('',#633,#633,#529,.T.);
#786=EDGE_CURVE('',#547,#612,#178,.T.);
#787=EDGE_CURVE('',#548,#626,#179,.T.);
#788=EDGE_CURVE('',#549,#633,#180,.T.);
#789=EDGE_CURVE('',#550,#619,#181,.T.);
#790=EDGE_CURVE('',#555,#634,#182,.T.);
#791=EDGE_CURVE('',#634,#634,#530,.T.);
#792=EDGE_CURVE('',#634,#605,#183,.T.);
#793=EDGE_CURVE('',#554,#635,#184,.T.);
#794=EDGE_CURVE('',#635,#635,#531,.T.);
#795=EDGE_CURVE('',#635,#604,#185,.T.);
#796=EDGE_CURVE('',#553,#636,#186,.T.);
#797=EDGE_CURVE('',#636,#636,#532,.T.);
#798=EDGE_CURVE('',#636,#603,#187,.T.);
#799=EDGE_CURVE('',#552,#637,#188,.T.);
#800=EDGE_CURVE('',#637,#637,#533,.T.);
#801=EDGE_CURVE('',#637,#602,#189,.T.);
#802=ORIENTED_EDGE('',*,*,#638,.T.);
#803=ORIENTED_EDGE('',*,*,#639,.T.);
#804=ORIENTED_EDGE('',*,*,#640,.T.);
#805=ORIENTED_EDGE('',*,*,#641,.T.);
#806=ORIENTED_EDGE('',*,*,#639,.F.);
#807=ORIENTED_EDGE('',*,*,#640,.F.);
#808=ORIENTED_EDGE('',*,*,#641,.F.);
#809=ORIENTED_EDGE('',*,*,#642,.T.);
#810=ORIENTED_EDGE('',*,*,#643,.F.);
#811=ORIENTED_EDGE('',*,*,#644,.F.);
#812=ORIENTED_EDGE('',*,*,#642,.F.);
#813=ORIENTED_EDGE('',*,*,#645,.F.);
#814=ORIENTED_EDGE('',*,*,#646,.T.);
#815=ORIENTED_EDGE('',*,*,#647,.F.);
#816=ORIENTED_EDGE('',*,*,#648,.T.);
#817=ORIENTED_EDGE('',*,*,#649,.F.);
#818=ORIENTED_EDGE('',*,*,#650,.T.);
#819=ORIENTED_EDGE('',*,*,#651,.F.);
#820=ORIENTED_EDGE('',*,*,#652,.T.);
#821=ORIENTED_EDGE('',*,*,#653,.T.);
#822=ORIENTED_EDGE('',*,*,#654,.T.);
#823=ORIENTED_EDGE('',*,*,#655,.T.);
#824=ORIENTED_EDGE('',*,*,#656,.T.);
#825=ORIENTED_EDGE('',*,*,#638,.F.);
#826=ORIENTED_EDGE('',*,*,#657,.T.);
#827=ORIENTED_EDGE('',*,*,#658,.T.);
#828=ORIENTED_EDGE('',*,*,#643,.T.);
#829=ORIENTED_EDGE('',*,*,#644,.T.);
#830=ORIENTED_EDGE('',*,*,#658,.F.);
#831=ORIENTED_EDGE('',*,*,#657,.F.);
#832=ORIENTED_EDGE('',*,*,#659,.T.);
#833=ORIENTED_EDGE('',*,*,#660,.T.);
#834=ORIENTED_EDGE('',*,*,#661,.T.);
#835=ORIENTED_EDGE('',*,*,#662,.T.);
#836=ORIENTED_EDGE('',*,*,#663,.F.);
#837=ORIENTED_EDGE('',*,*,#664,.F.);
#838=ORIENTED_EDGE('',*,*,#665,.F.);
#839=ORIENTED_EDGE('',*,*,#666,.F.);
#840=ORIENTED_EDGE('',*,*,#667,.F.);
#841=ORIENTED_EDGE('',*,*,#668,.F.);
#842=ORIENTED_EDGE('',*,*,#667,.T.);
#843=ORIENTED_EDGE('',*,*,#669,.T.);
#844=ORIENTED_EDGE('',*,*,#665,.T.);
#845=ORIENTED_EDGE('',*,*,#670,.T.);
#846=ORIENTED_EDGE('',*,*,#671,.F.);
#847=ORIENTED_EDGE('',*,*,#672,.F.);
#848=ORIENTED_EDGE('',*,*,#673,.F.);
#849=ORIENTED_EDGE('',*,*,#674,.F.);
#850=ORIENTED_EDGE('',*,*,#675,.F.);
#851=ORIENTED_EDGE('',*,*,#676,.F.);
#852=ORIENTED_EDGE('',*,*,#672,.T.);
#853=ORIENTED_EDGE('',*,*,#677,.T.);
#854=ORIENTED_EDGE('',*,*,#675,.T.);
#855=ORIENTED_EDGE('',*,*,#678,.T.);
#856=ORIENTED_EDGE('',*,*,#645,.T.);
#857=ORIENTED_EDGE('',*,*,#679,.T.);
#858=ORIENTED_EDGE('',*,*,#676,.T.);
#859=ORIENTED_EDGE('',*,*,#680,.T.);
#860=ORIENTED_EDGE('',*,*,#674,.T.);
#861=ORIENTED_EDGE('',*,*,#681,.T.);
#862=ORIENTED_EDGE('',*,*,#668,.T.);
#863=ORIENTED_EDGE('',*,*,#682,.T.);
#864=ORIENTED_EDGE('',*,*,#664,.T.);
#865=ORIENTED_EDGE('',*,*,#683,.T.);
#866=ORIENTED_EDGE('',*,*,#673,.T.);
#867=ORIENTED_EDGE('',*,*,#684,.T.);
#868=ORIENTED_EDGE('',*,*,#647,.T.);
#869=ORIENTED_EDGE('',*,*,#685,.T.);
#870=ORIENTED_EDGE('',*,*,#671,.T.);
#871=ORIENTED_EDGE('',*,*,#686,.T.);
#872=ORIENTED_EDGE('',*,*,#651,.T.);
#873=ORIENTED_EDGE('',*,*,#687,.T.);
#874=ORIENTED_EDGE('',*,*,#666,.T.);
#875=ORIENTED_EDGE('',*,*,#688,.T.);
#876=ORIENTED_EDGE('',*,*,#649,.T.);
#877=ORIENTED_EDGE('',*,*,#689,.T.);
#878=ORIENTED_EDGE('',*,*,#663,.T.);
#879=ORIENTED_EDGE('',*,*,#690,.T.);
#880=ORIENTED_EDGE('',*,*,#680,.F.);
#881=ORIENTED_EDGE('',*,*,#677,.F.);
#882=ORIENTED_EDGE('',*,*,#685,.F.);
#883=ORIENTED_EDGE('',*,*,#646,.F.);
#884=ORIENTED_EDGE('',*,*,#686,.F.);
#885=ORIENTED_EDGE('',*,*,#683,.F.);
#886=ORIENTED_EDGE('',*,*,#689,.F.);
#887=ORIENTED_EDGE('',*,*,#648,.F.);
#888=ORIENTED_EDGE('',*,*,#678,.F.);
#889=ORIENTED_EDGE('',*,*,#682,.F.);
#890=ORIENTED_EDGE('',*,*,#670,.F.);
#891=ORIENTED_EDGE('',*,*,#684,.F.);
#892=ORIENTED_EDGE('',*,*,#691,.F.);
#893=ORIENTED_EDGE('',*,*,#692,.T.);
#894=ORIENTED_EDGE('',*,*,#693,.T.);
#895=ORIENTED_EDGE('',*,*,#694,.T.);
#896=ORIENTED_EDGE('',*,*,#695,.T.);
#897=ORIENTED_EDGE('',*,*,#696,.T.);
#898=ORIENTED_EDGE('',*,*,#697,.T.);
#899=ORIENTED_EDGE('',*,*,#698,.T.);
#900=ORIENTED_EDGE('',*,*,#699,.T.);
#901=ORIENTED_EDGE('',*,*,#700,.T.);
#902=ORIENTED_EDGE('',*,*,#701,.T.);
#903=ORIENTED_EDGE('',*,*,#702,.T.);
#904=ORIENTED_EDGE('',*,*,#703,.T.);
#905=ORIENTED_EDGE('',*,*,#704,.T.);
#906=ORIENTED_EDGE('',*,*,#705,.T.);
#907=ORIENTED_EDGE('',*,*,#706,.T.);
#908=ORIENTED_EDGE('',*,*,#707,.T.);
#909=ORIENTED_EDGE('',*,*,#708,.T.);
#910=ORIENTED_EDGE('',*,*,#709,.T.);
#911=ORIENTED_EDGE('',*,*,#710,.T.);
#912=ORIENTED_EDGE('',*,*,#711,.T.);
#913=ORIENTED_EDGE('',*,*,#712,.T.);
#914=ORIENTED_EDGE('',*,*,#713,.T.);
#915=ORIENTED_EDGE('',*,*,#714,.T.);
#916=ORIENTED_EDGE('',*,*,#715,.T.);
#917=ORIENTED_EDGE('',*,*,#716,.T.);
#918=ORIENTED_EDGE('',*,*,#717,.T.);
#919=ORIENTED_EDGE('',*,*,#691,.T.);
#920=ORIENTED_EDGE('',*,*,#717,.F.);
#921=ORIENTED_EDGE('',*,*,#718,.T.);
#922=ORIENTED_EDGE('',*,*,#719,.F.);
#923=ORIENTED_EDGE('',*,*,#720,.T.);
#924=ORIENTED_EDGE('',*,*,#718,.F.);
#925=ORIENTED_EDGE('',*,*,#716,.F.);
#926=ORIENTED_EDGE('',*,*,#720,.F.);
#927=ORIENTED_EDGE('',*,*,#721,.T.);
#928=ORIENTED_EDGE('',*,*,#722,.T.);
#929=ORIENTED_EDGE('',*,*,#723,.T.);
#930=ORIENTED_EDGE('',*,*,#724,.T.);
#931=ORIENTED_EDGE('',*,*,#722,.F.);
#932=ORIENTED_EDGE('',*,*,#724,.F.);
#933=ORIENTED_EDGE('',*,*,#725,.T.);
#934=ORIENTED_EDGE('',*,*,#726,.F.);
#935=ORIENTED_EDGE('',*,*,#727,.F.);
#936=ORIENTED_EDGE('',*,*,#725,.F.);
#937=ORIENTED_EDGE('',*,*,#723,.F.);
#938=ORIENTED_EDGE('',*,*,#719,.T.);
#939=ORIENTED_EDGE('',*,*,#721,.F.);
#940=ORIENTED_EDGE('',*,*,#727,.T.);
#941=ORIENTED_EDGE('',*,*,#728,.T.);
#942=ORIENTED_EDGE('',*,*,#729,.T.);
#943=ORIENTED_EDGE('',*,*,#728,.F.);
#944=ORIENTED_EDGE('',*,*,#726,.T.);
#945=ORIENTED_EDGE('',*,*,#729,.F.);
#946=ORIENTED_EDGE('',*,*,#730,.T.);
#947=ORIENTED_EDGE('',*,*,#731,.T.);
#948=ORIENTED_EDGE('',*,*,#732,.T.);
#949=ORIENTED_EDGE('',*,*,#733,.T.);
#950=ORIENTED_EDGE('',*,*,#692,.F.);
#951=ORIENTED_EDGE('',*,*,#734,.T.);
#952=ORIENTED_EDGE('',*,*,#735,.T.);
#953=ORIENTED_EDGE('',*,*,#736,.F.);
#954=ORIENTED_EDGE('',*,*,#697,.F.);
#955=ORIENTED_EDGE('',*,*,#737,.T.);
#956=ORIENTED_EDGE('',*,*,#738,.T.);
#957=ORIENTED_EDGE('',*,*,#734,.F.);
#958=ORIENTED_EDGE('',*,*,#696,.F.);
#959=ORIENTED_EDGE('',*,*,#739,.T.);
#960=ORIENTED_EDGE('',*,*,#740,.T.);
#961=ORIENTED_EDGE('',*,*,#737,.F.);
#962=ORIENTED_EDGE('',*,*,#695,.F.);
#963=ORIENTED_EDGE('',*,*,#741,.T.);
#964=ORIENTED_EDGE('',*,*,#742,.T.);
#965=ORIENTED_EDGE('',*,*,#739,.F.);
#966=ORIENTED_EDGE('',*,*,#694,.F.);
#967=ORIENTED_EDGE('',*,*,#743,.T.);
#968=ORIENTED_EDGE('',*,*,#744,.T.);
#969=ORIENTED_EDGE('',*,*,#741,.F.);
#970=ORIENTED_EDGE('',*,*,#693,.F.);
#971=ORIENTED_EDGE('',*,*,#736,.T.);
#972=ORIENTED_EDGE('',*,*,#745,.T.);
#973=ORIENTED_EDGE('',*,*,#743,.F.);
#974=ORIENTED_EDGE('',*,*,#745,.F.);
#975=ORIENTED_EDGE('',*,*,#735,.F.);
#976=ORIENTED_EDGE('',*,*,#738,.F.);
#977=ORIENTED_EDGE('',*,*,#740,.F.);
#978=ORIENTED_EDGE('',*,*,#742,.F.);
#979=ORIENTED_EDGE('',*,*,#744,.F.);
#980=ORIENTED_EDGE('',*,*,#746,.F.);
#981=ORIENTED_EDGE('',*,*,#698,.F.);
#982=ORIENTED_EDGE('',*,*,#747,.T.);
#983=ORIENTED_EDGE('',*,*,#748,.T.);
#984=ORIENTED_EDGE('',*,*,#749,.F.);
#985=ORIENTED_EDGE('',*,*,#703,.F.);
#986=ORIENTED_EDGE('',*,*,#750,.T.);
#987=ORIENTED_EDGE('',*,*,#751,.T.);
#988=ORIENTED_EDGE('',*,*,#747,.F.);
#989=ORIENTED_EDGE('',*,*,#702,.F.);
#990=ORIENTED_EDGE('',*,*,#752,.T.);
#991=ORIENTED_EDGE('',*,*,#753,.T.);
#992=ORIENTED_EDGE('',*,*,#750,.F.);
#993=ORIENTED_EDGE('',*,*,#701,.F.);
#994=ORIENTED_EDGE('',*,*,#754,.T.);
#995=ORIENTED_EDGE('',*,*,#755,.T.);
#996=ORIENTED_EDGE('',*,*,#752,.F.);
#997=ORIENTED_EDGE('',*,*,#700,.F.);
#998=ORIENTED_EDGE('',*,*,#756,.T.);
#999=ORIENTED_EDGE('',*,*,#757,.T.);
#1000=ORIENTED_EDGE('',*,*,#754,.F.);
#1001=ORIENTED_EDGE('',*,*,#699,.F.);
#1002=ORIENTED_EDGE('',*,*,#749,.T.);
#1003=ORIENTED_EDGE('',*,*,#758,.T.);
#1004=ORIENTED_EDGE('',*,*,#756,.F.);
#1005=ORIENTED_EDGE('',*,*,#758,.F.);
#1006=ORIENTED_EDGE('',*,*,#748,.F.);
#1007=ORIENTED_EDGE('',*,*,#751,.F.);
#1008=ORIENTED_EDGE('',*,*,#753,.F.);
#1009=ORIENTED_EDGE('',*,*,#755,.F.);
#1010=ORIENTED_EDGE('',*,*,#757,.F.);
#1011=ORIENTED_EDGE('',*,*,#759,.F.);
#1012=ORIENTED_EDGE('',*,*,#704,.F.);
#1013=ORIENTED_EDGE('',*,*,#760,.T.);
#1014=ORIENTED_EDGE('',*,*,#761,.T.);
#1015=ORIENTED_EDGE('',*,*,#762,.F.);
#1016=ORIENTED_EDGE('',*,*,#709,.F.);
#1017=ORIENTED_EDGE('',*,*,#763,.T.);
#1018=ORIENTED_EDGE('',*,*,#764,.T.);
#1019=ORIENTED_EDGE('',*,*,#760,.F.);
#1020=ORIENTED_EDGE('',*,*,#708,.F.);
#1021=ORIENTED_EDGE('',*,*,#765,.T.);
#1022=ORIENTED_EDGE('',*,*,#766,.T.);
#1023=ORIENTED_EDGE('',*,*,#763,.F.);
#1024=ORIENTED_EDGE('',*,*,#707,.F.);
#1025=ORIENTED_EDGE('',*,*,#767,.T.);
#1026=ORIENTED_EDGE('',*,*,#768,.T.);
#1027=ORIENTED_EDGE('',*,*,#765,.F.);
#1028=ORIENTED_EDGE('',*,*,#706,.F.);
#1029=ORIENTED_EDGE('',*,*,#769,.T.);
#1030=ORIENTED_EDGE('',*,*,#770,.T.);
#1031=ORIENTED_EDGE('',*,*,#767,.F.);
#1032=ORIENTED_EDGE('',*,*,#705,.F.);
#1033=ORIENTED_EDGE('',*,*,#762,.T.);
#1034=ORIENTED_EDGE('',*,*,#771,.T.);
#1035=ORIENTED_EDGE('',*,*,#769,.F.);
#1036=ORIENTED_EDGE('',*,*,#771,.F.);
#1037=ORIENTED_EDGE('',*,*,#761,.F.);
#1038=ORIENTED_EDGE('',*,*,#764,.F.);
#1039=ORIENTED_EDGE('',*,*,#766,.F.);
#1040=ORIENTED_EDGE('',*,*,#768,.F.);
#1041=ORIENTED_EDGE('',*,*,#770,.F.);
#1042=ORIENTED_EDGE('',*,*,#772,.F.);
#1043=ORIENTED_EDGE('',*,*,#710,.F.);
#1044=ORIENTED_EDGE('',*,*,#773,.T.);
#1045=ORIENTED_EDGE('',*,*,#774,.T.);
#1046=ORIENTED_EDGE('',*,*,#775,.F.);
#1047=ORIENTED_EDGE('',*,*,#715,.F.);
#1048=ORIENTED_EDGE('',*,*,#776,.T.);
#1049=ORIENTED_EDGE('',*,*,#777,.T.);
#1050=ORIENTED_EDGE('',*,*,#773,.F.);
#1051=ORIENTED_EDGE('',*,*,#714,.F.);
#1052=ORIENTED_EDGE('',*,*,#778,.T.);
#1053=ORIENTED_EDGE('',*,*,#779,.T.);
#1054=ORIENTED_EDGE('',*,*,#776,.F.);
#1055=ORIENTED_EDGE('',*,*,#713,.F.);
#1056=ORIENTED_EDGE('',*,*,#780,.T.);
#1057=ORIENTED_EDGE('',*,*,#781,.T.);
#1058=ORIENTED_EDGE('',*,*,#778,.F.);
#1059=ORIENTED_EDGE('',*,*,#712,.F.);
#1060=ORIENTED_EDGE('',*,*,#782,.T.);
#1061=ORIENTED_EDGE('',*,*,#783,.T.);
#1062=ORIENTED_EDGE('',*,*,#780,.F.);
#1063=ORIENTED_EDGE('',*,*,#711,.F.);
#1064=ORIENTED_EDGE('',*,*,#775,.T.);
#1065=ORIENTED_EDGE('',*,*,#784,.T.);
#1066=ORIENTED_EDGE('',*,*,#782,.F.);
#1067=ORIENTED_EDGE('',*,*,#784,.F.);
#1068=ORIENTED_EDGE('',*,*,#774,.F.);
#1069=ORIENTED_EDGE('',*,*,#777,.F.);
#1070=ORIENTED_EDGE('',*,*,#779,.F.);
#1071=ORIENTED_EDGE('',*,*,#781,.F.);
#1072=ORIENTED_EDGE('',*,*,#783,.F.);
#1073=ORIENTED_EDGE('',*,*,#785,.F.);
#1074=ORIENTED_EDGE('',*,*,#653,.F.);
#1075=ORIENTED_EDGE('',*,*,#786,.T.);
#1076=ORIENTED_EDGE('',*,*,#746,.T.);
#1077=ORIENTED_EDGE('',*,*,#786,.F.);
#1078=ORIENTED_EDGE('',*,*,#654,.F.);
#1079=ORIENTED_EDGE('',*,*,#787,.T.);
#1080=ORIENTED_EDGE('',*,*,#772,.T.);
#1081=ORIENTED_EDGE('',*,*,#787,.F.);
#1082=ORIENTED_EDGE('',*,*,#655,.F.);
#1083=ORIENTED_EDGE('',*,*,#788,.T.);
#1084=ORIENTED_EDGE('',*,*,#785,.T.);
#1085=ORIENTED_EDGE('',*,*,#788,.F.);
#1086=ORIENTED_EDGE('',*,*,#656,.F.);
#1087=ORIENTED_EDGE('',*,*,#789,.T.);
#1088=ORIENTED_EDGE('',*,*,#759,.T.);
#1089=ORIENTED_EDGE('',*,*,#789,.F.);
#1090=ORIENTED_EDGE('',*,*,#662,.F.);
#1091=ORIENTED_EDGE('',*,*,#790,.T.);
#1092=ORIENTED_EDGE('',*,*,#791,.F.);
#1093=ORIENTED_EDGE('',*,*,#790,.F.);
#1094=ORIENTED_EDGE('',*,*,#791,.T.);
#1095=ORIENTED_EDGE('',*,*,#792,.T.);
#1096=ORIENTED_EDGE('',*,*,#733,.F.);
#1097=ORIENTED_EDGE('',*,*,#792,.F.);
#1098=ORIENTED_EDGE('',*,*,#661,.F.);
#1099=ORIENTED_EDGE('',*,*,#793,.T.);
#1100=ORIENTED_EDGE('',*,*,#794,.F.);
#1101=ORIENTED_EDGE('',*,*,#793,.F.);
#1102=ORIENTED_EDGE('',*,*,#794,.T.);
#1103=ORIENTED_EDGE('',*,*,#795,.T.);
#1104=ORIENTED_EDGE('',*,*,#732,.F.);
#1105=ORIENTED_EDGE('',*,*,#795,.F.);
#1106=ORIENTED_EDGE('',*,*,#660,.F.);
#1107=ORIENTED_EDGE('',*,*,#796,.T.);
#1108=ORIENTED_EDGE('',*,*,#797,.F.);
#1109=ORIENTED_EDGE('',*,*,#796,.F.);
#1110=ORIENTED_EDGE('',*,*,#797,.T.);
#1111=ORIENTED_EDGE('',*,*,#798,.T.);
#1112=ORIENTED_EDGE('',*,*,#731,.F.);
#1113=ORIENTED_EDGE('',*,*,#798,.F.);
#1114=ORIENTED_EDGE('',*,*,#659,.F.);
#1115=ORIENTED_EDGE('',*,*,#799,.T.);
#1116=ORIENTED_EDGE('',*,*,#800,.F.);
#1117=ORIENTED_EDGE('',*,*,#799,.F.);
#1118=ORIENTED_EDGE('',*,*,#800,.T.);
#1119=ORIENTED_EDGE('',*,*,#801,.T.);
#1120=ORIENTED_EDGE('',*,*,#730,.F.);
#1121=ORIENTED_EDGE('',*,*,#801,.F.);
#1122=ORIENTED_EDGE('',*,*,#679,.F.);
#1123=ORIENTED_EDGE('',*,*,#652,.F.);
#1124=ORIENTED_EDGE('',*,*,#688,.F.);
#1125=ORIENTED_EDGE('',*,*,#681,.F.);
#1126=ORIENTED_EDGE('',*,*,#687,.F.);
#1127=ORIENTED_EDGE('',*,*,#650,.F.);
#1128=ORIENTED_EDGE('',*,*,#690,.F.);
#1129=ORIENTED_EDGE('',*,*,#669,.F.);
#1130=TOROIDAL_SURFACE('',#1227,31.85,3.);
#1131=TOROIDAL_SURFACE('',#1244,25.85,3.);
#1132=TOROIDAL_SURFACE('',#1280,40.5,3.);
#1133=TOROIDAL_SURFACE('',#1286,21.2,1.);
#1134=TOROIDAL_SURFACE('',#1295,19.2,1.);
#1135=ADVANCED_FACE('',(#316),#1130,.T.);
#1136=ADVANCED_FACE('',(#317),#297,.F.);
#1137=ADVANCED_FACE('',(#318,#23,#24,#25,#26,#27),#46,.T.);
#1138=ADVANCED_FACE('',(#319),#1131,.F.);
#1139=ADVANCED_FACE('',(#320,#28,#29,#30,#31),#47,.T.);
#1140=ADVANCED_FACE('',(#321),#19,.T.);
#1141=ADVANCED_FACE('',(#322),#20,.T.);
#1142=ADVANCED_FACE('',(#323),#298,.T.);
#1143=ADVANCED_FACE('',(#324),#21,.T.);
#1144=ADVANCED_FACE('',(#325),#22,.T.);
#1145=ADVANCED_FACE('',(#326),#299,.T.);
#1146=ADVANCED_FACE('',(#327),#300,.T.);
#1147=ADVANCED_FACE('',(#328),#301,.T.);
#1148=ADVANCED_FACE('',(#329),#302,.T.);
#1149=ADVANCED_FACE('',(#330),#303,.T.);
#1150=ADVANCED_FACE('',(#331),#304,.T.);
#1151=ADVANCED_FACE('',(#332),#305,.T.);
#1152=ADVANCED_FACE('',(#333),#48,.T.);
#1153=ADVANCED_FACE('',(#334),#49,.T.);
#1154=ADVANCED_FACE('',(#335,#32,#33,#34,#35,#36),#50,.F.);
#1155=ADVANCED_FACE('',(#336),#1132,.F.);
#1156=ADVANCED_FACE('',(#337),#306,.T.);
#1157=ADVANCED_FACE('',(#338),#1133,.T.);
#1158=ADVANCED_FACE('',(#339),#307,.F.);
#1159=ADVANCED_FACE('',(#340,#37),#51,.F.);
#1160=ADVANCED_FACE('',(#341),#1134,.F.);
#1161=ADVANCED_FACE('',(#342,#38,#39,#40,#41),#52,.F.);
#1162=ADVANCED_FACE('',(#343),#53,.F.);
#1163=ADVANCED_FACE('',(#344),#54,.F.);
#1164=ADVANCED_FACE('',(#345),#55,.F.);
#1165=ADVANCED_FACE('',(#346),#56,.F.);
#1166=ADVANCED_FACE('',(#347),#57,.F.);
#1167=ADVANCED_FACE('',(#348),#58,.F.);
#1168=ADVANCED_FACE('',(#349,#42),#59,.F.);
#1169=ADVANCED_FACE('',(#350),#60,.F.);
#1170=ADVANCED_FACE('',(#351),#61,.F.);
#1171=ADVANCED_FACE('',(#352),#62,.F.);
#1172=ADVANCED_FACE('',(#353),#63,.F.);
#1173=ADVANCED_FACE('',(#354),#64,.F.);
#1174=ADVANCED_FACE('',(#355),#65,.F.);
#1175=ADVANCED_FACE('',(#356,#43),#66,.F.);
#1176=ADVANCED_FACE('',(#357),#67,.F.);
#1177=ADVANCED_FACE('',(#358),#68,.F.);
#1178=ADVANCED_FACE('',(#359),#69,.F.);
#1179=ADVANCED_FACE('',(#360),#70,.F.);
#1180=ADVANCED_FACE('',(#361),#71,.F.);
#1181=ADVANCED_FACE('',(#362),#72,.F.);
#1182=ADVANCED_FACE('',(#363,#44),#73,.F.);
#1183=ADVANCED_FACE('',(#364),#74,.F.);
#1184=ADVANCED_FACE('',(#365),#75,.F.);
#1185=ADVANCED_FACE('',(#366),#76,.F.);
#1186=ADVANCED_FACE('',(#367),#77,.F.);
#1187=ADVANCED_FACE('',(#368),#78,.F.);
#1188=ADVANCED_FACE('',(#369),#79,.F.);
#1189=ADVANCED_FACE('',(#370,#45),#80,.F.);
#1190=ADVANCED_FACE('',(#371),#308,.F.);
#1191=ADVANCED_FACE('',(#372),#309,.F.);
#1192=ADVANCED_FACE('',(#373),#310,.F.);
#1193=ADVANCED_FACE('',(#374),#311,.F.);
#1194=ADVANCED_FACE('',(#375),#15,.F.);
#1195=ADVANCED_FACE('',(#376),#312,.F.);
#1196=ADVANCED_FACE('',(#377),#16,.F.);
#1197=ADVANCED_FACE('',(#378),#313,.F.);
#1198=ADVANCED_FACE('',(#379),#17,.F.);
#1199=ADVANCED_FACE('',(#380),#314,.F.);
#1200=ADVANCED_FACE('',(#381),#18,.F.);
#1201=ADVANCED_FACE('',(#382),#315,.F.);
#1202=ADVANCED_FACE('',(#383),#81,.T.);
#1203=ADVANCED_FACE('',(#384),#82,.T.);
#1204=CLOSED_SHELL('',(#1135,#1136,#1137,#1138,#1139,#1140,#1141,#1142,
#1143,#1144,#1145,#1146,#1147,#1148,#1149,#1150,#1151,#1152,#1153,#1154,
#1155,#1156,#1157,#1158,#1159,#1160,#1161,#1162,#1163,#1164,#1165,#1166,
#1167,#1168,#1169,#1170,#1171,#1172,#1173,#1174,#1175,#1176,#1177,#1178,
#1179,#1180,#1181,#1182,#1183,#1184,#1185,#1186,#1187,#1188,#1189,#1190,
#1191,#1192,#1193,#1194,#1195,#1196,#1197,#1198,#1199,#1200,#1201,#1202,
#1203));
#1205=DERIVED_UNIT_ELEMENT(#1208,1.);
#1206=DERIVED_UNIT_ELEMENT(#2057,-3.);
#1207=DIMENSIONAL_EXPONENTS(0.,1.,0.,0.,0.,0.,0.);
#1208=(
CONVERSION_BASED_UNIT('gram',#1210)
MASS_UNIT()
NAMED_UNIT(#1207)
);
#1209=(
MASS_UNIT()
NAMED_UNIT(*)
SI_UNIT(.KILO.,.GRAM.)
);
#1210=MASS_MEASURE_WITH_UNIT(MASS_MEASURE(0.001),#1209);
#1211=DERIVED_UNIT((#1205,#1206));
#1212=MEASURE_REPRESENTATION_ITEM('density measure',
POSITIVE_RATIO_MEASURE(1.),#1211);
#1213=PROPERTY_DEFINITION_REPRESENTATION(#1218,#1215);
#1214=PROPERTY_DEFINITION_REPRESENTATION(#1219,#1216);
#1215=REPRESENTATION('material name',(#1217),#2054);
#1216=REPRESENTATION('density',(#1212),#2054);
#1217=DESCRIPTIVE_REPRESENTATION_ITEM('Gen\X\E9rico','Gen\X\E9rico');
#1218=PROPERTY_DEFINITION('material property','material name',#2064);
#1219=PROPERTY_DEFINITION('material property','density of part',#2064);
#1220=DATE_TIME_ROLE('creation_date');
#1221=APPLIED_DATE_AND_TIME_ASSIGNMENT(#1222,#1220,(#2064));
#1222=DATE_AND_TIME(#1223,#1224);
#1223=CALENDAR_DATE(2026,16,4);
#1224=LOCAL_TIME(0,0,0.,#1225);
#1225=COORDINATED_UNIVERSAL_TIME_OFFSET(0,0,.BEHIND.);
#1226=AXIS2_PLACEMENT_3D('',#1714,#1353,#1354);
#1227=AXIS2_PLACEMENT_3D('',#1715,#1355,#1356);
#1228=AXIS2_PLACEMENT_3D('',#1717,#1357,#1358);
#1229=AXIS2_PLACEMENT_3D('',#1719,#1359,#1360);
#1230=AXIS2_PLACEMENT_3D('',#1721,#1361,#1362);
#1231=AXIS2_PLACEMENT_3D('',#1722,#1363,#1364);
#1232=AXIS2_PLACEMENT_3D('',#1723,#1365,#1366);
#1233=AXIS2_PLACEMENT_3D('',#1727,#1368,#1369);
#1234=AXIS2_PLACEMENT_3D('',#1728,#1370,#1371);
#1235=AXIS2_PLACEMENT_3D('',#1729,#1372,#1373);
#1236=AXIS2_PLACEMENT_3D('',#1732,#1374,#1375);
#1237=AXIS2_PLACEMENT_3D('',#1736,#1377,#1378);
#1238=AXIS2_PLACEMENT_3D('',#1740,#1380,#1381);
#1239=AXIS2_PLACEMENT_3D('',#1744,#1383,#1384);
#1240=AXIS2_PLACEMENT_3D('',#1747,#1386,#1387);
#1241=AXIS2_PLACEMENT_3D('',#1749,#1388,#1389);
#1242=AXIS2_PLACEMENT_3D('',#1751,#1390,#1391);
#1243=AXIS2_PLACEMENT_3D('',#1753,#1392,#1393);
#1244=AXIS2_PLACEMENT_3D('',#1754,#1394,#1395);
#1245=AXIS2_PLACEMENT_3D('',#1756,#1396,#1397);
#1246=AXIS2_PLACEMENT_3D('',#1757,#1398,#1399);
#1247=AXIS2_PLACEMENT_3D('',#1758,#1400,#1401);
#1248=AXIS2_PLACEMENT_3D('',#1760,#1402,#1403);
#1249=AXIS2_PLACEMENT_3D('',#1762,#1404,#1405);
#1250=AXIS2_PLACEMENT_3D('',#1764,#1406,#1407);
#1251=AXIS2_PLACEMENT_3D('',#1766,#1408,#1409);
#1252=AXIS2_PLACEMENT_3D('',#1767,#1410,#1411);
#1253=AXIS2_PLACEMENT_3D('',#1770,#1412,#1413);
#1254=AXIS2_PLACEMENT_3D('',#1772,#1414,#1415);
#1255=AXIS2_PLACEMENT_3D('',#1773,#1416,#1417);
#1256=AXIS2_PLACEMENT_3D('',#1774,#1418,#1419);
#1257=AXIS2_PLACEMENT_3D('',#1777,#1420,#1421);
#1258=AXIS2_PLACEMENT_3D('',#1779,#1422,#1423);
#1259=AXIS2_PLACEMENT_3D('',#1780,#1424,#1425);
#1260=AXIS2_PLACEMENT_3D('',#1781,#1426,#1427);
#1261=AXIS2_PLACEMENT_3D('',#1784,#1430,#1431);
#1262=AXIS2_PLACEMENT_3D('',#1787,#1432,#1433);
#1263=AXIS2_PLACEMENT_3D('',#1789,#1434,#1435);
#1264=AXIS2_PLACEMENT_3D('',#1790,#1436,#1437);
#1265=AXIS2_PLACEMENT_3D('',#1791,#1438,#1439);
#1266=AXIS2_PLACEMENT_3D('',#1794,#1440,#1441);
#1267=AXIS2_PLACEMENT_3D('',#1796,#1442,#1443);
#1268=AXIS2_PLACEMENT_3D('',#1797,#1444,#1445);
#1269=AXIS2_PLACEMENT_3D('',#1798,#1446,#1447);
#1270=AXIS2_PLACEMENT_3D('',#1801,#1450,#1451);
#1271=AXIS2_PLACEMENT_3D('',#1804,#1454,#1455);
#1272=AXIS2_PLACEMENT_3D('',#1807,#1458,#1459);
#1273=AXIS2_PLACEMENT_3D('',#1810,#1462,#1463);
#1274=AXIS2_PLACEMENT_3D('',#1813,#1466,#1467);
#1275=AXIS2_PLACEMENT_3D('',#1816,#1470,#1471);
#1276=AXIS2_PLACEMENT_3D('',#1819,#1474,#1475);
#1277=AXIS2_PLACEMENT_3D('',#1820,#1476,#1477);
#1278=AXIS2_PLACEMENT_3D('',#1821,#1478,#1479);
#1279=AXIS2_PLACEMENT_3D('',#1823,#1480,#1481);
#1280=AXIS2_PLACEMENT_3D('',#1872,#1506,#1507);
#1281=AXIS2_PLACEMENT_3D('',#1875,#1508,#1509);
#1282=AXIS2_PLACEMENT_3D('',#1876,#1510,#1511);
#1283=AXIS2_PLACEMENT_3D('',#1877,#1512,#1513);
#1284=AXIS2_PLACEMENT_3D('',#1878,#1514,#1515);
#1285=AXIS2_PLACEMENT_3D('',#1880,#1516,#1517);
#1286=AXIS2_PLACEMENT_3D('',#1882,#1519,#1520);
#1287=AXIS2_PLACEMENT_3D('',#1884,#1521,#1522);
#1288=AXIS2_PLACEMENT_3D('',#1886,#1523,#1524);
#1289=AXIS2_PLACEMENT_3D('',#1888,#1525,#1526);
#1290=AXIS2_PLACEMENT_3D('',#1889,#1527,#1528);
#1291=AXIS2_PLACEMENT_3D('',#1890,#1529,#1530);
#1292=AXIS2_PLACEMENT_3D('',#1894,#1532,#1533);
#1293=AXIS2_PLACEMENT_3D('',#1895,#1534,#1535);
#1294=AXIS2_PLACEMENT_3D('',#1896,#1536,#1537);
#1295=AXIS2_PLACEMENT_3D('',#1897,#1538,#1539);
#1296=AXIS2_PLACEMENT_3D('',#1899,#1540,#1541);
#1297=AXIS2_PLACEMENT_3D('',#1900,#1542,#1543);
#1298=AXIS2_PLACEMENT_3D('',#1901,#1544,#1545);
#1299=AXIS2_PLACEMENT_3D('',#1903,#1546,#1547);
#1300=AXIS2_PLACEMENT_3D('',#1905,#1548,#1549);
#1301=AXIS2_PLACEMENT_3D('',#1907,#1550,#1551);
#1302=AXIS2_PLACEMENT_3D('',#1909,#1552,#1553);
#1303=AXIS2_PLACEMENT_3D('',#1910,#1554,#1555);
#1304=AXIS2_PLACEMENT_3D('',#1916,#1559,#1560);
#1305=AXIS2_PLACEMENT_3D('',#1920,#1563,#1564);
#1306=AXIS2_PLACEMENT_3D('',#1924,#1567,#1568);
#1307=AXIS2_PLACEMENT_3D('',#1928,#1571,#1572);
#1308=AXIS2_PLACEMENT_3D('',#1932,#1575,#1576);
#1309=AXIS2_PLACEMENT_3D('',#1934,#1578,#1579);
#1310=AXIS2_PLACEMENT_3D('',#1936,#1580,#1581);
#1311=AXIS2_PLACEMENT_3D('',#1937,#1582,#1583);
#1312=AXIS2_PLACEMENT_3D('',#1943,#1587,#1588);
#1313=AXIS2_PLACEMENT_3D('',#1947,#1591,#1592);
#1314=AXIS2_PLACEMENT_3D('',#1951,#1595,#1596);
#1315=AXIS2_PLACEMENT_3D('',#1955,#1599,#1600);
#1316=AXIS2_PLACEMENT_3D('',#1959,#1603,#1604);
#1317=AXIS2_PLACEMENT_3D('',#1961,#1606,#1607);
#1318=AXIS2_PLACEMENT_3D('',#1963,#1608,#1609);
#1319=AXIS2_PLACEMENT_3D('',#1964,#1610,#1611);
#1320=AXIS2_PLACEMENT_3D('',#1970,#1615,#1616);
#1321=AXIS2_PLACEMENT_3D('',#1974,#1619,#1620);
#1322=AXIS2_PLACEMENT_3D('',#1978,#1623,#1624);
#1323=AXIS2_PLACEMENT_3D('',#1982,#1627,#1628);
#1324=AXIS2_PLACEMENT_3D('',#1986,#1631,#1632);
#1325=AXIS2_PLACEMENT_3D('',#1988,#1634,#1635);
#1326=AXIS2_PLACEMENT_3D('',#1990,#1636,#1637);
#1327=AXIS2_PLACEMENT_3D('',#1991,#1638,#1639);
#1328=AXIS2_PLACEMENT_3D('',#1997,#1643,#1644);
#1329=AXIS2_PLACEMENT_3D('',#2001,#1647,#1648);
#1330=AXIS2_PLACEMENT_3D('',#2005,#1651,#1652);
#1331=AXIS2_PLACEMENT_3D('',#2009,#1655,#1656);
#1332=AXIS2_PLACEMENT_3D('',#2013,#1659,#1660);
#1333=AXIS2_PLACEMENT_3D('',#2015,#1662,#1663);
#1334=AXIS2_PLACEMENT_3D('',#2017,#1664,#1665);
#1335=AXIS2_PLACEMENT_3D('',#2018,#1666,#1667);
#1336=AXIS2_PLACEMENT_3D('',#2020,#1669,#1670);
#1337=AXIS2_PLACEMENT_3D('',#2022,#1672,#1673);
#1338=AXIS2_PLACEMENT_3D('',#2024,#1675,#1676);
#1339=AXIS2_PLACEMENT_3D('',#2026,#1678,#1679);
#1340=AXIS2_PLACEMENT_3D('',#2029,#1681,#1682);
#1341=AXIS2_PLACEMENT_3D('',#2030,#1683,#1684);
#1342=AXIS2_PLACEMENT_3D('',#2032,#1686,#1687);
#1343=AXIS2_PLACEMENT_3D('',#2035,#1689,#1690);
#1344=AXIS2_PLACEMENT_3D('',#2036,#1691,#1692);
#1345=AXIS2_PLACEMENT_3D('',#2038,#1694,#1695);
#1346=AXIS2_PLACEMENT_3D('',#2041,#1697,#1698);
#1347=AXIS2_PLACEMENT_3D('',#2042,#1699,#1700);
#1348=AXIS2_PLACEMENT_3D('',#2044,#1702,#1703);
#1349=AXIS2_PLACEMENT_3D('',#2047,#1705,#1706);
#1350=AXIS2_PLACEMENT_3D('',#2048,#1707,#1708);
#1351=AXIS2_PLACEMENT_3D('',#2050,#1710,#1711);
#1352=AXIS2_PLACEMENT_3D('',#2051,#1712,#1713);
#1353=DIRECTION('axis',(0.,0.,1.));
#1354=DIRECTION('refdir',(1.,0.,0.));
#1355=DIRECTION('center_axis',(-1.,0.,0.));
#1356=DIRECTION('ref_axis',(0.,0.,1.));
#1357=DIRECTION('center_axis',(1.,0.,0.));
#1358=DIRECTION('ref_axis',(0.,-1.22464679914735E-16,1.));
#1359=DIRECTION('center_axis',(0.,-1.,1.22464679914735E-16));
#1360=DIRECTION('ref_axis',(0.,-1.22464679914735E-16,-1.));
#1361=DIRECTION('center_axis',(-1.,0.,0.));
#1362=DIRECTION('ref_axis',(0.,-1.22464679914735E-16,1.));
#1363=DIRECTION('center_axis',(-1.,0.,0.));
#1364=DIRECTION('ref_axis',(0.,-1.22464679914735E-16,1.));
#1365=DIRECTION('center_axis',(-1.,0.,0.));
#1366=DIRECTION('ref_axis',(0.,0.,-1.));
#1367=DIRECTION('',(-1.,0.,0.));
#1368=DIRECTION('center_axis',(1.,0.,0.));
#1369=DIRECTION('ref_axis',(0.,1.22464679914735E-16,1.));
#1370=DIRECTION('center_axis',(1.,0.,0.));
#1371=DIRECTION('ref_axis',(0.,1.22464679914735E-16,1.));
#1372=DIRECTION('center_axis',(1.,0.,0.));
#1373=DIRECTION('ref_axis',(0.,0.,-1.));
#1374=DIRECTION('center_axis',(-1.,0.,0.));
#1375=DIRECTION('ref_axis',(0.,-0.707106781186547,0.707106781186547));
#1376=DIRECTION('',(0.,0.,-1.));
#1377=DIRECTION('center_axis',(-1.,0.,0.));
#1378=DIRECTION('ref_axis',(0.,-0.707106781186547,-0.707106781186547));
#1379=DIRECTION('',(0.,1.,0.));
#1380=DIRECTION('center_axis',(-1.,0.,0.));
#1381=DIRECTION('ref_axis',(0.,0.707106781186547,-0.707106781186547));
#1382=DIRECTION('',(0.,0.,1.));
#1383=DIRECTION('center_axis',(-1.,0.,0.));
#1384=DIRECTION('ref_axis',(0.,0.707106781186547,0.707106781186547));
#1385=DIRECTION('',(0.,-1.,0.));
#1386=DIRECTION('center_axis',(-1.,0.,0.));
#1387=DIRECTION('ref_axis',(0.,0.,-1.));
#1388=DIRECTION('center_axis',(-1.,0.,0.));
#1389=DIRECTION('ref_axis',(0.,0.,-1.));
#1390=DIRECTION('center_axis',(-1.,0.,0.));
#1391=DIRECTION('ref_axis',(0.,0.,-1.));
#1392=DIRECTION('center_axis',(-1.,0.,0.));
#1393=DIRECTION('ref_axis',(0.,0.,-1.));
#1394=DIRECTION('center_axis',(-1.,0.,0.));
#1395=DIRECTION('ref_axis',(0.,0.,1.));
#1396=DIRECTION('center_axis',(-1.,0.,0.));
#1397=DIRECTION('ref_axis',(0.,1.22464679914735E-16,1.));
#1398=DIRECTION('center_axis',(0.,-1.,1.22464679914735E-16));
#1399=DIRECTION('ref_axis',(0.,-1.22464679914735E-16,-1.));
#1400=DIRECTION('center_axis',(1.,0.,0.));
#1401=DIRECTION('ref_axis',(0.,0.,-1.));
#1402=DIRECTION('center_axis',(-1.,0.,0.));
#1403=DIRECTION('ref_axis',(0.,0.,-1.));
#1404=DIRECTION('center_axis',(-1.,0.,0.));
#1405=DIRECTION('ref_axis',(0.,0.,-1.));
#1406=DIRECTION('center_axis',(-1.,0.,0.));
#1407=DIRECTION('ref_axis',(0.,0.,-1.));
#1408=DIRECTION('center_axis',(-1.,0.,0.));
#1409=DIRECTION('ref_axis',(0.,0.,-1.));
#1410=DIRECTION('center_axis',(-0.408248290463863,-0.816496580927726,-0.408248290463862));
#1411=DIRECTION('ref_axis',(-0.577350269189626,0.577350269189626,-0.577350269189626));
#1412=DIRECTION('center_axis',(-1.,0.,0.));
#1413=DIRECTION('ref_axis',(0.,0.,-1.));
#1414=DIRECTION('center_axis',(0.,1.,0.));
#1415=DIRECTION('ref_axis',(-1.,0.,0.));
#1416=DIRECTION('center_axis',(0.,0.,-1.));
#1417=DIRECTION('ref_axis',(0.,1.,0.));
#1418=DIRECTION('center_axis',(-0.408248290463863,-0.816496580927726,0.408248290463862));
#1419=DIRECTION('ref_axis',(-0.577350269189626,0.577350269189626,0.577350269189626));
#1420=DIRECTION('center_axis',(-1.,0.,0.));
#1421=DIRECTION('ref_axis',(0.,1.,0.));
#1422=DIRECTION('center_axis',(0.,0.,1.));
#1423=DIRECTION('ref_axis',(-1.,0.,0.));
#1424=DIRECTION('center_axis',(0.,1.,0.));
#1425=DIRECTION('ref_axis',(0.,0.,1.));
#1426=DIRECTION('center_axis',(0.,0.,1.));
#1427=DIRECTION('ref_axis',(-0.707106781186547,0.707106781186547,0.));
#1428=DIRECTION('',(0.,0.,-1.));
#1429=DIRECTION('',(0.,0.,1.));
#1430=DIRECTION('center_axis',(0.408248290463863,-0.816496580927726,0.408248290463862));
#1431=DIRECTION('ref_axis',(-0.577350269189626,-0.577350269189626,-0.577350269189626));
#1432=DIRECTION('center_axis',(-1.,0.,0.));
#1433=DIRECTION('ref_axis',(0.,-1.,0.));
#1434=DIRECTION('center_axis',(0.,0.,-1.));
#1435=DIRECTION('ref_axis',(-1.,0.,0.));
#1436=DIRECTION('center_axis',(0.,-1.,0.));
#1437=DIRECTION('ref_axis',(0.,0.,-1.));
#1438=DIRECTION('center_axis',(0.408248290463863,-0.816496580927726,-0.408248290463862));
#1439=DIRECTION('ref_axis',(-0.577350269189626,-0.577350269189626,0.577350269189626));
#1440=DIRECTION('center_axis',(0.,-1.,0.));
#1441=DIRECTION('ref_axis',(-1.,0.,0.));
#1442=DIRECTION('center_axis',(0.,0.,1.));
#1443=DIRECTION('ref_axis',(0.,-1.,0.));
#1444=DIRECTION('center_axis',(-1.,0.,0.));
#1445=DIRECTION('ref_axis',(0.,0.,1.));
#1446=DIRECTION('center_axis',(0.,0.,-1.));
#1447=DIRECTION('ref_axis',(-0.707106781186547,-0.707106781186547,0.));
#1448=DIRECTION('',(0.,0.,1.));
#1449=DIRECTION('',(0.,0.,-1.));
#1450=DIRECTION('center_axis',(1.,0.,0.));
#1451=DIRECTION('ref_axis',(0.,-0.707106781186547,0.707106781186547));
#1452=DIRECTION('',(-1.,0.,0.));
#1453=DIRECTION('',(1.,0.,0.));
#1454=DIRECTION('center_axis',(0.,-1.,0.));
#1455=DIRECTION('ref_axis',(-0.707106781186547,0.,0.707106781186547));
#1456=DIRECTION('',(0.,1.,0.));
#1457=DIRECTION('',(0.,-1.,0.));
#1458=DIRECTION('center_axis',(0.,1.,0.));
#1459=DIRECTION('ref_axis',(-0.707106781186547,0.,-0.707106781186547));
#1460=DIRECTION('',(0.,-1.,0.));
#1461=DIRECTION('',(0.,1.,0.));
#1462=DIRECTION('center_axis',(1.,0.,0.));
#1463=DIRECTION('ref_axis',(0.,-0.707106781186547,-0.707106781186547));
#1464=DIRECTION('',(-1.,0.,0.));
#1465=DIRECTION('',(1.,0.,0.));
#1466=DIRECTION('center_axis',(1.,0.,0.));
#1467=DIRECTION('ref_axis',(0.,0.707106781186547,0.707106781186547));
#1468=DIRECTION('',(-1.,0.,0.));
#1469=DIRECTION('',(1.,0.,0.));
#1470=DIRECTION('center_axis',(1.,0.,0.));
#1471=DIRECTION('ref_axis',(0.,0.707106781186547,-0.707106781186547));
#1472=DIRECTION('',(-1.,0.,0.));
#1473=DIRECTION('',(1.,0.,0.));
#1474=DIRECTION('center_axis',(0.,-1.,0.));
#1475=DIRECTION('ref_axis',(0.,0.,-1.));
#1476=DIRECTION('center_axis',(0.,0.,-1.));
#1477=DIRECTION('ref_axis',(0.,1.,0.));
#1478=DIRECTION('center_axis',(1.,0.,0.));
#1479=DIRECTION('ref_axis',(0.,0.,-1.));
#1480=DIRECTION('center_axis',(-1.,0.,0.));
#1481=DIRECTION('ref_axis',(0.,-1.,1.22464679914735E-16));
#1482=DIRECTION('',(0.,0.499999999999999,-0.866025403784439));
#1483=DIRECTION('',(0.,1.,0.));
#1484=DIRECTION('',(0.,0.500000000000001,0.866025403784438));
#1485=DIRECTION('',(0.,-0.500000000000001,0.866025403784438));
#1486=DIRECTION('',(0.,-1.,7.72329060608806E-15));
#1487=DIRECTION('',(0.,-0.500000000000001,-0.866025403784438));
#1488=DIRECTION('',(0.,0.499999999999998,-0.866025403784439));
#1489=DIRECTION('',(0.,1.,3.86164530304399E-15));
#1490=DIRECTION('',(0.,0.5,0.866025403784439));
#1491=DIRECTION('',(0.,-0.500000000000001,0.866025403784438));
#1492=DIRECTION('',(0.,-1.,0.));
#1493=DIRECTION('',(0.,-0.500000000000001,-0.866025403784438));
#1494=DIRECTION('',(0.,-0.500000000000003,-0.866025403784437));
#1495=DIRECTION('',(0.,0.5,-0.866025403784439));
#1496=DIRECTION('',(0.,1.,0.));
#1497=DIRECTION('',(0.,0.500000000000001,0.866025403784438));
#1498=DIRECTION('',(0.,-0.500000000000001,0.866025403784438));
#1499=DIRECTION('',(0.,-1.,0.));
#1500=DIRECTION('',(0.,-0.500000000000001,-0.866025403784438));
#1501=DIRECTION('',(0.,0.500000000000001,-0.866025403784438));
#1502=DIRECTION('',(0.,1.,-3.86164530304403E-15));
#1503=DIRECTION('',(0.,0.500000000000003,0.866025403784437));
#1504=DIRECTION('',(0.,-0.500000000000001,0.866025403784438));
#1505=DIRECTION('',(0.,-1.,0.));
#1506=DIRECTION('center_axis',(1.,0.,0.));
#1507=DIRECTION('ref_axis',(0.,0.,-1.));
#1508=DIRECTION('center_axis',(1.,0.,0.));
#1509=DIRECTION('ref_axis',(0.,-1.,1.22464679914735E-16));
#1510=DIRECTION('center_axis',(0.,-1.,-1.22464679914735E-16));
#1511=DIRECTION('ref_axis',(0.,-1.22464679914735E-16,1.));
#1512=DIRECTION('center_axis',(1.,0.,0.));
#1513=DIRECTION('ref_axis',(0.,-1.,1.22464679914735E-16));
#1514=DIRECTION('center_axis',(-1.,0.,0.));
#1515=DIRECTION('ref_axis',(0.,1.,0.));
#1516=DIRECTION('center_axis',(-1.,0.,0.));
#1517=DIRECTION('ref_axis',(0.,1.,0.));
#1518=DIRECTION('',(1.,0.,0.));
#1519=DIRECTION('center_axis',(1.,0.,0.));
#1520=DIRECTION('ref_axis',(0.,0.,-1.));
#1521=DIRECTION('center_axis',(-1.,0.,0.));
#1522=DIRECTION('ref_axis',(0.,-1.,0.));
#1523=DIRECTION('center_axis',(0.,-1.,-1.22464679914735E-16));
#1524=DIRECTION('ref_axis',(0.,-1.22464679914735E-16,1.));
#1525=DIRECTION('center_axis',(1.,0.,0.));
#1526=DIRECTION('ref_axis',(0.,-1.,0.));
#1527=DIRECTION('center_axis',(1.,0.,0.));
#1528=DIRECTION('ref_axis',(0.,-1.,0.));
#1529=DIRECTION('center_axis',(-1.,0.,0.));
#1530=DIRECTION('ref_axis',(0.,-1.,0.));
#1531=DIRECTION('',(1.,0.,0.));
#1532=DIRECTION('center_axis',(-1.,0.,0.));
#1533=DIRECTION('ref_axis',(0.,-1.,1.22464679914735E-16));
#1534=DIRECTION('center_axis',(-1.,0.,0.));
#1535=DIRECTION('ref_axis',(0.,-1.,1.22464679914735E-16));
#1536=DIRECTION('center_axis',(1.,0.,0.));
#1537=DIRECTION('ref_axis',(0.,0.,-1.));
#1538=DIRECTION('center_axis',(-1.,0.,0.));
#1539=DIRECTION('ref_axis',(0.,0.,1.));
#1540=DIRECTION('center_axis',(0.,-1.,1.22464679914735E-16));
#1541=DIRECTION('ref_axis',(0.,-1.22464679914735E-16,-1.));
#1542=DIRECTION('center_axis',(1.,0.,0.));
#1543=DIRECTION('ref_axis',(0.,-1.,1.22464679914735E-16));
#1544=DIRECTION('center_axis',(1.,0.,0.));
#1545=DIRECTION('ref_axis',(0.,0.,-1.));
#1546=DIRECTION('center_axis',(1.,0.,0.));
#1547=DIRECTION('ref_axis',(0.,0.,-1.));
#1548=DIRECTION('center_axis',(1.,0.,0.));
#1549=DIRECTION('ref_axis',(0.,0.,-1.));
#1550=DIRECTION('center_axis',(1.,0.,0.));
#1551=DIRECTION('ref_axis',(0.,0.,-1.));
#1552=DIRECTION('center_axis',(1.,0.,0.));
#1553=DIRECTION('ref_axis',(0.,0.,-1.));
#1554=DIRECTION('center_axis',(0.,-0.866025403784439,-0.5));
#1555=DIRECTION('ref_axis',(0.,0.499999999999999,-0.866025403784439));
#1556=DIRECTION('',(1.,0.,0.));
#1557=DIRECTION('',(0.,0.499999999999999,-0.866025403784439));
#1558=DIRECTION('',(1.,0.,0.));
#1559=DIRECTION('center_axis',(0.,-0.866025403784438,0.500000000000001));
#1560=DIRECTION('ref_axis',(0.,-0.500000000000001,-0.866025403784438));
#1561=DIRECTION('',(1.,0.,0.));
#1562=DIRECTION('',(0.,-0.500000000000001,-0.866025403784438));
#1563=DIRECTION('center_axis',(0.,7.72329060608806E-15,1.));
#1564=DIRECTION('ref_axis',(0.,-1.,7.72329060608806E-15));
#1565=DIRECTION('',(1.,0.,0.));
#1566=DIRECTION('',(0.,-1.,7.72329060608806E-15));
#1567=DIRECTION('center_axis',(0.,0.866025403784438,0.500000000000001));
#1568=DIRECTION('ref_axis',(0.,-0.500000000000001,0.866025403784438));
#1569=DIRECTION('',(1.,0.,0.));
#1570=DIRECTION('',(0.,-0.500000000000001,0.866025403784438));
#1571=DIRECTION('center_axis',(0.,0.866025403784438,-0.500000000000001));
#1572=DIRECTION('ref_axis',(0.,0.500000000000001,0.866025403784438));
#1573=DIRECTION('',(1.,0.,0.));
#1574=DIRECTION('',(0.,0.500000000000001,0.866025403784438));
#1575=DIRECTION('center_axis',(0.,0.,-1.));
#1576=DIRECTION('ref_axis',(0.,1.,0.));
#1577=DIRECTION('',(0.,1.,0.));
#1578=DIRECTION('center_axis',(1.,0.,0.));
#1579=DIRECTION('ref_axis',(0.,0.,-1.));
#1580=DIRECTION('center_axis',(-1.,0.,0.));
#1581=DIRECTION('ref_axis',(0.,0.,-1.));
#1582=DIRECTION('center_axis',(0.,-0.86602540378444,-0.499999999999999));
#1583=DIRECTION('ref_axis',(0.,0.499999999999998,-0.866025403784439));
#1584=DIRECTION('',(1.,0.,0.));
#1585=DIRECTION('',(0.,0.499999999999998,-0.866025403784439));
#1586=DIRECTION('',(1.,0.,0.));
#1587=DIRECTION('center_axis',(0.,-0.866025403784438,0.500000000000001));
#1588=DIRECTION('ref_axis',(0.,-0.500000000000001,-0.866025403784438));
#1589=DIRECTION('',(1.,0.,0.));
#1590=DIRECTION('',(0.,-0.500000000000001,-0.866025403784438));
#1591=DIRECTION('center_axis',(0.,0.,1.));
#1592=DIRECTION('ref_axis',(0.,-1.,0.));
#1593=DIRECTION('',(1.,0.,0.));
#1594=DIRECTION('',(0.,-1.,0.));
#1595=DIRECTION('center_axis',(0.,0.866025403784438,0.500000000000001));
#1596=DIRECTION('ref_axis',(0.,-0.500000000000001,0.866025403784438));
#1597=DIRECTION('',(1.,0.,0.));
#1598=DIRECTION('',(0.,-0.500000000000001,0.866025403784438));
#1599=DIRECTION('center_axis',(0.,0.866025403784439,-0.5));
#1600=DIRECTION('ref_axis',(0.,0.5,0.866025403784439));
#1601=DIRECTION('',(1.,0.,0.));
#1602=DIRECTION('',(0.,0.5,0.866025403784439));
#1603=DIRECTION('center_axis',(0.,3.86164530304399E-15,-1.));
#1604=DIRECTION('ref_axis',(0.,1.,3.86164530304399E-15));
#1605=DIRECTION('',(0.,1.,3.86164530304399E-15));
#1606=DIRECTION('center_axis',(1.,0.,0.));
#1607=DIRECTION('ref_axis',(0.,0.,-1.));
#1608=DIRECTION('center_axis',(-1.,0.,0.));
#1609=DIRECTION('ref_axis',(0.,0.,-1.));
#1610=DIRECTION('center_axis',(0.,-0.866025403784437,0.500000000000003));
#1611=DIRECTION('ref_axis',(0.,-0.500000000000003,-0.866025403784437));
#1612=DIRECTION('',(1.,0.,0.));
#1613=DIRECTION('',(0.,-0.500000000000003,-0.866025403784437));
#1614=DIRECTION('',(1.,0.,0.));
#1615=DIRECTION('center_axis',(0.,0.,1.));
#1616=DIRECTION('ref_axis',(0.,-1.,0.));
#1617=DIRECTION('',(1.,0.,0.));
#1618=DIRECTION('',(0.,-1.,0.));
#1619=DIRECTION('center_axis',(0.,0.866025403784438,0.500000000000001));
#1620=DIRECTION('ref_axis',(0.,-0.500000000000001,0.866025403784438));
#1621=DIRECTION('',(1.,0.,0.));
#1622=DIRECTION('',(0.,-0.500000000000001,0.866025403784438));
#1623=DIRECTION('center_axis',(0.,0.866025403784438,-0.500000000000001));
#1624=DIRECTION('ref_axis',(0.,0.500000000000001,0.866025403784438));
#1625=DIRECTION('',(1.,0.,0.));
#1626=DIRECTION('',(0.,0.500000000000001,0.866025403784438));
#1627=DIRECTION('center_axis',(0.,0.,-1.));
#1628=DIRECTION('ref_axis',(0.,1.,0.));
#1629=DIRECTION('',(1.,0.,0.));
#1630=DIRECTION('',(0.,1.,0.));
#1631=DIRECTION('center_axis',(0.,-0.866025403784439,-0.5));
#1632=DIRECTION('ref_axis',(0.,0.5,-0.866025403784439));
#1633=DIRECTION('',(0.,0.5,-0.866025403784439));
#1634=DIRECTION('center_axis',(1.,0.,0.));
#1635=DIRECTION('ref_axis',(0.,0.,-1.));
#1636=DIRECTION('center_axis',(-1.,0.,0.));
#1637=DIRECTION('ref_axis',(0.,0.,-1.));
#1638=DIRECTION('center_axis',(0.,-0.866025403784438,0.500000000000001));
#1639=DIRECTION('ref_axis',(0.,-0.500000000000001,-0.866025403784438));
#1640=DIRECTION('',(1.,0.,0.));
#1641=DIRECTION('',(0.,-0.500000000000001,-0.866025403784438));
#1642=DIRECTION('',(1.,0.,0.));
#1643=DIRECTION('center_axis',(0.,0.,1.));
#1644=DIRECTION('ref_axis',(0.,-1.,0.));
#1645=DIRECTION('',(1.,0.,0.));
#1646=DIRECTION('',(0.,-1.,0.));
#1647=DIRECTION('center_axis',(0.,0.866025403784438,0.500000000000001));
#1648=DIRECTION('ref_axis',(0.,-0.500000000000001,0.866025403784438));
#1649=DIRECTION('',(1.,0.,0.));
#1650=DIRECTION('',(0.,-0.500000000000001,0.866025403784438));
#1651=DIRECTION('center_axis',(0.,0.866025403784437,-0.500000000000003));
#1652=DIRECTION('ref_axis',(0.,0.500000000000003,0.866025403784437));
#1653=DIRECTION('',(1.,0.,0.));
#1654=DIRECTION('',(0.,0.500000000000003,0.866025403784437));
#1655=DIRECTION('center_axis',(0.,-3.86164530304403E-15,-1.));
#1656=DIRECTION('ref_axis',(0.,1.,-3.86164530304403E-15));
#1657=DIRECTION('',(1.,0.,0.));
#1658=DIRECTION('',(0.,1.,-3.86164530304403E-15));
#1659=DIRECTION('center_axis',(0.,-0.866025403784438,-0.500000000000001));
#1660=DIRECTION('ref_axis',(0.,0.500000000000001,-0.866025403784438));
#1661=DIRECTION('',(0.,0.500000000000001,-0.866025403784438));
#1662=DIRECTION('center_axis',(1.,0.,0.));
#1663=DIRECTION('ref_axis',(0.,0.,-1.));
#1664=DIRECTION('center_axis',(-1.,0.,0.));
#1665=DIRECTION('ref_axis',(0.,0.,-1.));
#1666=DIRECTION('center_axis',(1.,0.,0.));
#1667=DIRECTION('ref_axis',(0.,0.,-1.));
#1668=DIRECTION('',(-1.,0.,0.));
#1669=DIRECTION('center_axis',(1.,0.,0.));
#1670=DIRECTION('ref_axis',(0.,0.,-1.));
#1671=DIRECTION('',(-1.,0.,0.));
#1672=DIRECTION('center_axis',(1.,0.,0.));
#1673=DIRECTION('ref_axis',(0.,0.,-1.));
#1674=DIRECTION('',(-1.,0.,0.));
#1675=DIRECTION('center_axis',(1.,0.,0.));
#1676=DIRECTION('ref_axis',(0.,0.,-1.));
#1677=DIRECTION('',(-1.,0.,0.));
#1678=DIRECTION('center_axis',(1.,0.,0.));
#1679=DIRECTION('ref_axis',(0.,0.,-1.));
#1680=DIRECTION('',(-0.707106781186548,8.65956056235493E-17,-0.707106781186547));
#1681=DIRECTION('center_axis',(1.,0.,0.));
#1682=DIRECTION('ref_axis',(0.,0.,-1.));
#1683=DIRECTION('center_axis',(1.,0.,0.));
#1684=DIRECTION('ref_axis',(0.,0.,-1.));
#1685=DIRECTION('',(-1.,0.,0.));
#1686=DIRECTION('center_axis',(1.,0.,0.));
#1687=DIRECTION('ref_axis',(0.,0.,-1.));
#1688=DIRECTION('',(-0.707106781186548,8.65956056235493E-17,-0.707106781186547));
#1689=DIRECTION('center_axis',(1.,0.,0.));
#1690=DIRECTION('ref_axis',(0.,0.,-1.));
#1691=DIRECTION('center_axis',(1.,0.,0.));
#1692=DIRECTION('ref_axis',(0.,0.,-1.));
#1693=DIRECTION('',(-1.,0.,0.));
#1694=DIRECTION('center_axis',(1.,0.,0.));
#1695=DIRECTION('ref_axis',(0.,0.,-1.));
#1696=DIRECTION('',(-0.707106781186548,8.65956056235493E-17,-0.707106781186547));
#1697=DIRECTION('center_axis',(1.,0.,0.));
#1698=DIRECTION('ref_axis',(0.,0.,-1.));
#1699=DIRECTION('center_axis',(1.,0.,0.));
#1700=DIRECTION('ref_axis',(0.,0.,-1.));
#1701=DIRECTION('',(-1.,0.,0.));
#1702=DIRECTION('center_axis',(1.,0.,0.));
#1703=DIRECTION('ref_axis',(0.,0.,-1.));
#1704=DIRECTION('',(-0.707106781186548,8.65956056235493E-17,-0.707106781186547));
#1705=DIRECTION('center_axis',(1.,0.,0.));
#1706=DIRECTION('ref_axis',(0.,0.,-1.));
#1707=DIRECTION('center_axis',(1.,0.,0.));
#1708=DIRECTION('ref_axis',(0.,0.,-1.));
#1709=DIRECTION('',(-1.,0.,0.));
#1710=DIRECTION('center_axis',(0.,0.,1.));
#1711=DIRECTION('ref_axis',(0.,-1.,0.));
#1712=DIRECTION('center_axis',(0.,1.,0.));
#1713=DIRECTION('ref_axis',(0.,0.,1.));
#1714=CARTESIAN_POINT('',(0.,0.,0.));
#1715=CARTESIAN_POINT('Origin',(17.,0.,0.));
#1716=CARTESIAN_POINT('',(20.,7.80100011056864E-15,-31.85));
#1717=CARTESIAN_POINT('Origin',(20.,0.,0.));
#1718=CARTESIAN_POINT('',(17.,0.,-28.85));
#1719=CARTESIAN_POINT('Origin',(17.,-3.90050005528432E-15,-31.85));
#1720=CARTESIAN_POINT('',(17.,3.53310601554011E-15,28.85));
#1721=CARTESIAN_POINT('Origin',(17.,0.,0.));
#1722=CARTESIAN_POINT('Origin',(17.,0.,0.));
#1723=CARTESIAN_POINT('Origin',(20.,0.,0.));
#1724=CARTESIAN_POINT('',(5.,3.53310601554011E-15,28.85));
#1725=CARTESIAN_POINT('',(20.,3.53310601554011E-15,28.85));
#1726=CARTESIAN_POINT('',(5.,0.,-28.85));
#1727=CARTESIAN_POINT('Origin',(5.,0.,0.));
#1728=CARTESIAN_POINT('Origin',(5.,0.,0.));
#1729=CARTESIAN_POINT('Origin',(20.,0.,0.));
#1730=CARTESIAN_POINT('',(20.,-50.,45.));
#1731=CARTESIAN_POINT('',(20.,-45.,50.));
#1732=CARTESIAN_POINT('Origin',(20.,-45.,45.));
#1733=CARTESIAN_POINT('',(20.,-50.,-45.));
#1734=CARTESIAN_POINT('',(20.,-50.,50.));
#1735=CARTESIAN_POINT('',(20.,-45.,-50.));
#1736=CARTESIAN_POINT('Origin',(20.,-45.,-45.));
#1737=CARTESIAN_POINT('',(20.,45.,-50.));
#1738=CARTESIAN_POINT('',(20.,-50.,-50.));
#1739=CARTESIAN_POINT('',(20.,50.,-45.));
#1740=CARTESIAN_POINT('Origin',(20.,45.,-45.));
#1741=CARTESIAN_POINT('',(20.,50.,45.));
#1742=CARTESIAN_POINT('',(20.,50.,-50.));
#1743=CARTESIAN_POINT('',(20.,45.,50.));
#1744=CARTESIAN_POINT('Origin',(20.,45.,45.));
#1745=CARTESIAN_POINT('',(20.,50.,50.));
#1746=CARTESIAN_POINT('',(20.,35.3553390593278,-31.8553390593278));
#1747=CARTESIAN_POINT('Origin',(20.,35.3553390593278,-35.3553390593278));
#1748=CARTESIAN_POINT('',(20.,35.355339059327,38.855339059327));
#1749=CARTESIAN_POINT('Origin',(20.,35.355339059327,35.355339059327));
#1750=CARTESIAN_POINT('',(20.,-35.3553390593274,38.8553390593274));
#1751=CARTESIAN_POINT('Origin',(20.,-35.3553390593274,35.3553390593274));
#1752=CARTESIAN_POINT('',(20.,-35.3553390593274,-31.8553390593274));
#1753=CARTESIAN_POINT('Origin',(20.,-35.3553390593274,-35.3553390593274));
#1754=CARTESIAN_POINT('Origin',(5.,0.,0.));
#1755=CARTESIAN_POINT('',(2.,-6.33142395159182E-15,-25.85));
#1756=CARTESIAN_POINT('Origin',(2.,0.,0.));
#1757=CARTESIAN_POINT('Origin',(5.,-3.16571197579591E-15,-25.85));
#1758=CARTESIAN_POINT('Origin',(2.,0.,0.));
#1759=CARTESIAN_POINT('',(2.,-11.1369318036881,-6.63693180368806));
#1760=CARTESIAN_POINT('Origin',(2.,-11.1369318036881,-11.1369318036881));
#1761=CARTESIAN_POINT('',(2.,-11.1369318036881,15.6369318036881));
#1762=CARTESIAN_POINT('Origin',(2.,-11.1369318036881,11.1369318036881));
#1763=CARTESIAN_POINT('',(2.,11.1369318036881,15.6369318036881));
#1764=CARTESIAN_POINT('Origin',(2.,11.1369318036881,11.1369318036881));
#1765=CARTESIAN_POINT('',(2.,11.1369318036881,-6.63693180368812));
#1766=CARTESIAN_POINT('Origin',(2.,11.1369318036881,-11.1369318036881));
#1767=CARTESIAN_POINT('Origin',(5.,45.,-45.));
#1768=CARTESIAN_POINT('',(5.,45.,-50.));
#1769=CARTESIAN_POINT('',(5.,50.,-45.));
#1770=CARTESIAN_POINT('Origin',(5.,45.,-45.));
#1771=CARTESIAN_POINT('',(0.,45.,-45.));
#1772=CARTESIAN_POINT('Origin',(5.,45.,-45.));
#1773=CARTESIAN_POINT('Origin',(5.,45.,-45.));
#1774=CARTESIAN_POINT('Origin',(5.,45.,45.));
#1775=CARTESIAN_POINT('',(5.,50.,45.));
#1776=CARTESIAN_POINT('',(5.,45.,50.));
#1777=CARTESIAN_POINT('Origin',(5.,45.,45.));
#1778=CARTESIAN_POINT('',(0.,45.,45.));
#1779=CARTESIAN_POINT('Origin',(5.,45.,45.));
#1780=CARTESIAN_POINT('Origin',(5.,45.,45.));
#1781=CARTESIAN_POINT('Origin',(5.,45.,-25.));
#1782=CARTESIAN_POINT('',(5.,50.,-25.));
#1783=CARTESIAN_POINT('',(0.,45.,-25.));
#1784=CARTESIAN_POINT('Origin',(5.,-45.,-45.));
#1785=CARTESIAN_POINT('',(5.,-50.,-45.));
#1786=CARTESIAN_POINT('',(5.,-45.,-50.));
#1787=CARTESIAN_POINT('Origin',(5.,-45.,-45.));
#1788=CARTESIAN_POINT('',(0.,-45.,-45.));
#1789=CARTESIAN_POINT('Origin',(5.,-45.,-45.));
#1790=CARTESIAN_POINT('Origin',(5.,-45.,-45.));
#1791=CARTESIAN_POINT('Origin',(5.,-45.,45.));
#1792=CARTESIAN_POINT('',(0.,-45.,45.));
#1793=CARTESIAN_POINT('',(5.,-45.,50.));
#1794=CARTESIAN_POINT('Origin',(5.,-45.,45.));
#1795=CARTESIAN_POINT('',(5.,-50.,45.));
#1796=CARTESIAN_POINT('Origin',(5.,-45.,45.));
#1797=CARTESIAN_POINT('Origin',(5.,-45.,45.));
#1798=CARTESIAN_POINT('Origin',(5.,-45.,25.));
#1799=CARTESIAN_POINT('',(5.,-50.,25.));
#1800=CARTESIAN_POINT('',(0.,-45.,25.));
#1801=CARTESIAN_POINT('Origin',(0.,-45.,45.));
#1802=CARTESIAN_POINT('',(0.,-45.,50.));
#1803=CARTESIAN_POINT('',(0.,-50.,45.));
#1804=CARTESIAN_POINT('Origin',(5.,25.,45.));
#1805=CARTESIAN_POINT('',(5.,25.,50.));
#1806=CARTESIAN_POINT('',(0.,25.,45.));
#1807=CARTESIAN_POINT('Origin',(5.,-25.,-45.));
#1808=CARTESIAN_POINT('',(5.,-25.,-50.));
#1809=CARTESIAN_POINT('',(0.,-25.,-45.));
#1810=CARTESIAN_POINT('Origin',(0.,-45.,-45.));
#1811=CARTESIAN_POINT('',(0.,-50.,-45.));
#1812=CARTESIAN_POINT('',(0.,-45.,-50.));
#1813=CARTESIAN_POINT('Origin',(0.,45.,45.));
#1814=CARTESIAN_POINT('',(0.,50.,45.));
#1815=CARTESIAN_POINT('',(0.,45.,50.));
#1816=CARTESIAN_POINT('Origin',(0.,45.,-45.));
#1817=CARTESIAN_POINT('',(0.,45.,-50.));
#1818=CARTESIAN_POINT('',(0.,50.,-45.));
#1819=CARTESIAN_POINT('Origin',(0.,-50.,50.));
#1820=CARTESIAN_POINT('Origin',(0.,-50.,-50.));
#1821=CARTESIAN_POINT('Origin',(0.,0.,0.));
#1822=CARTESIAN_POINT('',(0.,-4.95981953654678E-15,40.5));
#1823=CARTESIAN_POINT('Origin',(0.,0.,0.));
#1824=CARTESIAN_POINT('',(0.,30.7553390593274,-35.3553390593273));
#1825=CARTESIAN_POINT('',(0.,33.0553390593274,-39.3390559167358));
#1826=CARTESIAN_POINT('',(0.,19.256266230714,-15.4383606802342));
#1827=CARTESIAN_POINT('',(0.,37.6553390593274,-39.3390559167358));
#1828=CARTESIAN_POINT('',(0.,16.5276695296637,-39.3390559167358));
#1829=CARTESIAN_POINT('',(0.,39.9553390593274,-35.3553390593274));
#1830=CARTESIAN_POINT('',(0.,41.4655771231089,-32.7395300013334));
#1831=CARTESIAN_POINT('',(0.,37.6553390593274,-31.3716222019189));
#1832=CARTESIAN_POINT('',(0.,27.306266230714,-13.4465022515301));
#1833=CARTESIAN_POINT('',(0.,33.0553390593274,-31.3716222019189));
#1834=CARTESIAN_POINT('',(0.,18.8276695296636,-31.3716222019188));
#1835=CARTESIAN_POINT('',(0.,35.7155771231089,-26.7639547152207));
#1836=CARTESIAN_POINT('',(0.,-40.0038184311242,-35.3553390593274));
#1837=CARTESIAN_POINT('',(0.,-37.7038184311242,-39.3390559167358));
#1838=CARTESIAN_POINT('',(0.,-42.6579965734311,-30.758167664513));
#1839=CARTESIAN_POINT('',(0.,-33.1038184311242,-39.3390559167358));
#1840=CARTESIAN_POINT('',(0.,-18.851909215562,-39.3390559167357));
#1841=CARTESIAN_POINT('',(0.,-30.8038184311242,-35.3553390593274));
#1842=CARTESIAN_POINT('',(0.,-20.4486856810362,-17.4197230170546));
#1843=CARTESIAN_POINT('',(0.,-33.1038184311242,-31.3716222019189));
#1844=CARTESIAN_POINT('',(0.,-34.6079965734311,-28.7663092358088));
#1845=CARTESIAN_POINT('',(0.,-37.7038184311242,-31.3716222019189));
#1846=CARTESIAN_POINT('',(0.,-16.5519092155621,-31.3716222019189));
#1847=CARTESIAN_POINT('',(0.,-26.1986856810362,-11.444147730942));
#1848=CARTESIAN_POINT('',(0.,33.0553390593274,39.3390559167358));
#1849=CARTESIAN_POINT('',(0.,30.7553390593274,35.3553390593274));
#1850=CARTESIAN_POINT('',(0.,20.406266230714,17.4302191089385));
#1851=CARTESIAN_POINT('',(0.,33.0553390593274,31.371622201919));
#1852=CARTESIAN_POINT('',(0.,34.5655771231089,28.7558131439249));
#1853=CARTESIAN_POINT('',(0.,37.6553390593274,31.371622201919));
#1854=CARTESIAN_POINT('',(0.,16.5276695296637,31.371622201919));
#1855=CARTESIAN_POINT('',(0.,39.9553390593274,35.3553390593274));
#1856=CARTESIAN_POINT('',(0.,26.156266230714,11.4546438228259));
#1857=CARTESIAN_POINT('',(0.,37.6553390593274,39.3390559167358));
#1858=CARTESIAN_POINT('',(0.,42.6155771231089,30.7476715726292));
#1859=CARTESIAN_POINT('',(0.,18.8276695296637,39.3390559167358));
#1860=CARTESIAN_POINT('',(0.,-37.6553390593274,39.3390559167358));
#1861=CARTESIAN_POINT('',(0.,-39.9553390593274,35.3553390593274));
#1862=CARTESIAN_POINT('',(0.,-41.4655771231089,32.7395300013334));
#1863=CARTESIAN_POINT('',(0.,-37.6553390593274,31.371622201919));
#1864=CARTESIAN_POINT('',(0.,-27.306266230714,13.4465022515301));
#1865=CARTESIAN_POINT('',(0.,-33.0553390593274,31.3716222019189));
#1866=CARTESIAN_POINT('',(0.,-18.8276695296636,31.3716222019189));
#1867=CARTESIAN_POINT('',(0.,-30.7553390593274,35.3553390593274));
#1868=CARTESIAN_POINT('',(0.,-35.7155771231089,26.7639547152208));
#1869=CARTESIAN_POINT('',(0.,-33.0553390593274,39.3390559167358));
#1870=CARTESIAN_POINT('',(0.,-19.256266230714,15.4383606802343));
#1871=CARTESIAN_POINT('',(0.,-16.5276695296637,39.3390559167358));
#1872=CARTESIAN_POINT('Origin',(-3.,0.,0.));
#1873=CARTESIAN_POINT('',(-3.,-37.5,4.59242549680258E-15));
#1874=CARTESIAN_POINT('',(-3.,-4.59242549680258E-15,37.5));
#1875=CARTESIAN_POINT('Origin',(-3.,0.,0.));
#1876=CARTESIAN_POINT('Origin',(-3.,-4.95981953654678E-15,40.5));
#1877=CARTESIAN_POINT('Origin',(-3.,0.,0.));
#1878=CARTESIAN_POINT('Origin',(0.,0.,0.));
#1879=CARTESIAN_POINT('',(-10.,-37.5,4.59242549680258E-15));
#1880=CARTESIAN_POINT('Origin',(-10.,0.,0.));
#1881=CARTESIAN_POINT('',(0.,-37.5,4.59242549680258E-15));
#1882=CARTESIAN_POINT('Origin',(-9.,0.,0.));
#1883=CARTESIAN_POINT('',(-10.,-2.59625121419239E-15,21.2));
#1884=CARTESIAN_POINT('Origin',(-10.,0.,0.));
#1885=CARTESIAN_POINT('',(-9.,-2.47378653427765E-15,20.2));
#1886=CARTESIAN_POINT('Origin',(-9.,-2.59625121419239E-15,21.2));
#1887=CARTESIAN_POINT('',(-9.,20.2,2.47378653427765E-15));
#1888=CARTESIAN_POINT('Origin',(-9.,0.,0.));
#1889=CARTESIAN_POINT('Origin',(-9.,0.,0.));
#1890=CARTESIAN_POINT('Origin',(0.,0.,0.));
#1891=CARTESIAN_POINT('',(-6.,20.2,-4.94757306855531E-15));
#1892=CARTESIAN_POINT('',(0.,20.2,-2.47378653427765E-15));
#1893=CARTESIAN_POINT('',(-6.,-2.47378653427765E-15,-20.2));
#1894=CARTESIAN_POINT('Origin',(-6.,0.,0.));
#1895=CARTESIAN_POINT('Origin',(-6.,0.,0.));
#1896=CARTESIAN_POINT('Origin',(-10.,0.,0.));
#1897=CARTESIAN_POINT('Origin',(-6.,0.,0.));
#1898=CARTESIAN_POINT('',(-5.,-2.35132185436292E-15,-19.2));
#1899=CARTESIAN_POINT('Origin',(-6.,-2.35132185436292E-15,-19.2));
#1900=CARTESIAN_POINT('Origin',(-5.,0.,0.));
#1901=CARTESIAN_POINT('Origin',(-5.,0.,0.));
#1902=CARTESIAN_POINT('',(-5.,-11.1369318036881,-8.13693180368806));
#1903=CARTESIAN_POINT('Origin',(-5.,-11.1369318036881,-11.1369318036881));
#1904=CARTESIAN_POINT('',(-5.,-11.1369318036881,14.1369318036881));
#1905=CARTESIAN_POINT('Origin',(-5.,-11.1369318036881,11.1369318036881));
#1906=CARTESIAN_POINT('',(-5.,11.1369318036881,14.1369318036881));
#1907=CARTESIAN_POINT('Origin',(-5.,11.1369318036881,11.1369318036881));
#1908=CARTESIAN_POINT('',(-5.,11.1369318036881,-8.13693180368812));
#1909=CARTESIAN_POINT('Origin',(-5.,11.1369318036881,-11.1369318036881));
#1910=CARTESIAN_POINT('Origin',(0.,30.7553390593274,-35.3553390593273));
#1911=CARTESIAN_POINT('',(6.,30.7553390593274,-35.3553390593273));
#1912=CARTESIAN_POINT('',(0.,30.7553390593274,-35.3553390593273));
#1913=CARTESIAN_POINT('',(6.,33.0553390593274,-39.3390559167358));
#1914=CARTESIAN_POINT('',(6.,33.0553390593274,-39.3390559167358));
#1915=CARTESIAN_POINT('',(0.,33.0553390593274,-39.3390559167358));
#1916=CARTESIAN_POINT('Origin',(0.,33.0553390593274,-31.3716222019189));
#1917=CARTESIAN_POINT('',(6.,33.0553390593274,-31.3716222019189));
#1918=CARTESIAN_POINT('',(0.,33.0553390593274,-31.3716222019189));
#1919=CARTESIAN_POINT('',(6.,30.7553390593274,-35.3553390593273));
#1920=CARTESIAN_POINT('Origin',(0.,37.6553390593274,-31.3716222019189));
#1921=CARTESIAN_POINT('',(6.,37.6553390593274,-31.3716222019189));
#1922=CARTESIAN_POINT('',(0.,37.6553390593274,-31.3716222019189));
#1923=CARTESIAN_POINT('',(6.,33.0553390593274,-31.3716222019189));
#1924=CARTESIAN_POINT('Origin',(0.,39.9553390593274,-35.3553390593274));
#1925=CARTESIAN_POINT('',(6.,39.9553390593274,-35.3553390593274));
#1926=CARTESIAN_POINT('',(0.,39.9553390593274,-35.3553390593274));
#1927=CARTESIAN_POINT('',(6.,37.6553390593274,-31.3716222019189));
#1928=CARTESIAN_POINT('Origin',(0.,37.6553390593274,-39.3390559167358));
#1929=CARTESIAN_POINT('',(6.,37.6553390593274,-39.3390559167358));
#1930=CARTESIAN_POINT('',(0.,37.6553390593274,-39.3390559167358));
#1931=CARTESIAN_POINT('',(6.,39.9553390593274,-35.3553390593274));
#1932=CARTESIAN_POINT('Origin',(0.,33.0553390593274,-39.3390559167358));
#1933=CARTESIAN_POINT('',(6.,37.6553390593274,-39.3390559167358));
#1934=CARTESIAN_POINT('Origin',(6.,35.3553390593274,-35.3553390593273));
#1935=CARTESIAN_POINT('',(6.,35.3553390593278,-31.8553390593278));
#1936=CARTESIAN_POINT('Origin',(6.,35.3553390593278,-35.3553390593278));
#1937=CARTESIAN_POINT('Origin',(0.,-40.0038184311242,-35.3553390593274));
#1938=CARTESIAN_POINT('',(6.,-40.0038184311242,-35.3553390593274));
#1939=CARTESIAN_POINT('',(0.,-40.0038184311242,-35.3553390593274));
#1940=CARTESIAN_POINT('',(6.,-37.7038184311242,-39.3390559167358));
#1941=CARTESIAN_POINT('',(6.,-37.7038184311242,-39.3390559167358));
#1942=CARTESIAN_POINT('',(0.,-37.7038184311242,-39.3390559167358));
#1943=CARTESIAN_POINT('Origin',(0.,-37.7038184311242,-31.3716222019189));
#1944=CARTESIAN_POINT('',(6.,-37.7038184311242,-31.3716222019189));
#1945=CARTESIAN_POINT('',(0.,-37.7038184311242,-31.3716222019189));
#1946=CARTESIAN_POINT('',(6.,-40.0038184311242,-35.3553390593274));
#1947=CARTESIAN_POINT('Origin',(0.,-33.1038184311242,-31.3716222019189));
#1948=CARTESIAN_POINT('',(6.,-33.1038184311242,-31.3716222019189));
#1949=CARTESIAN_POINT('',(0.,-33.1038184311242,-31.3716222019189));
#1950=CARTESIAN_POINT('',(6.,-37.7038184311242,-31.3716222019189));
#1951=CARTESIAN_POINT('Origin',(0.,-30.8038184311242,-35.3553390593274));
#1952=CARTESIAN_POINT('',(6.,-30.8038184311242,-35.3553390593274));
#1953=CARTESIAN_POINT('',(0.,-30.8038184311242,-35.3553390593274));
#1954=CARTESIAN_POINT('',(6.,-33.1038184311242,-31.3716222019189));
#1955=CARTESIAN_POINT('Origin',(0.,-33.1038184311242,-39.3390559167358));
#1956=CARTESIAN_POINT('',(6.,-33.1038184311242,-39.3390559167358));
#1957=CARTESIAN_POINT('',(0.,-33.1038184311242,-39.3390559167358));
#1958=CARTESIAN_POINT('',(6.,-30.8038184311242,-35.3553390593274));
#1959=CARTESIAN_POINT('Origin',(0.,-37.7038184311242,-39.3390559167358));
#1960=CARTESIAN_POINT('',(6.,-33.1038184311242,-39.3390559167358));
#1961=CARTESIAN_POINT('Origin',(6.,-35.4038184311242,-35.3553390593274));
#1962=CARTESIAN_POINT('',(6.,-35.3553390593274,-31.8553390593274));
#1963=CARTESIAN_POINT('Origin',(6.,-35.3553390593274,-35.3553390593274));
#1964=CARTESIAN_POINT('Origin',(0.,33.0553390593274,39.3390559167358));
#1965=CARTESIAN_POINT('',(6.,33.0553390593274,39.3390559167358));
#1966=CARTESIAN_POINT('',(0.,33.0553390593274,39.3390559167358));
#1967=CARTESIAN_POINT('',(6.,30.7553390593274,35.3553390593274));
#1968=CARTESIAN_POINT('',(6.,30.7553390593274,35.3553390593274));
#1969=CARTESIAN_POINT('',(0.,30.7553390593274,35.3553390593274));
#1970=CARTESIAN_POINT('Origin',(0.,37.6553390593274,39.3390559167358));
#1971=CARTESIAN_POINT('',(6.,37.6553390593274,39.3390559167358));
#1972=CARTESIAN_POINT('',(0.,37.6553390593274,39.3390559167358));
#1973=CARTESIAN_POINT('',(6.,33.0553390593274,39.3390559167358));
#1974=CARTESIAN_POINT('Origin',(0.,39.9553390593274,35.3553390593274));
#1975=CARTESIAN_POINT('',(6.,39.9553390593274,35.3553390593274));
#1976=CARTESIAN_POINT('',(0.,39.9553390593274,35.3553390593274));
#1977=CARTESIAN_POINT('',(6.,37.6553390593274,39.3390559167358));
#1978=CARTESIAN_POINT('Origin',(0.,37.6553390593274,31.371622201919));
#1979=CARTESIAN_POINT('',(6.,37.6553390593274,31.371622201919));
#1980=CARTESIAN_POINT('',(0.,37.6553390593274,31.371622201919));
#1981=CARTESIAN_POINT('',(6.,39.9553390593274,35.3553390593274));
#1982=CARTESIAN_POINT('Origin',(0.,33.0553390593274,31.371622201919));
#1983=CARTESIAN_POINT('',(6.,33.0553390593274,31.371622201919));
#1984=CARTESIAN_POINT('',(0.,33.0553390593274,31.371622201919));
#1985=CARTESIAN_POINT('',(6.,37.6553390593274,31.371622201919));
#1986=CARTESIAN_POINT('Origin',(0.,30.7553390593274,35.3553390593274));
#1987=CARTESIAN_POINT('',(6.,33.0553390593274,31.371622201919));
#1988=CARTESIAN_POINT('Origin',(6.,35.3553390593274,35.3553390593274));
#1989=CARTESIAN_POINT('',(6.,35.355339059327,38.855339059327));
#1990=CARTESIAN_POINT('Origin',(6.,35.355339059327,35.355339059327));
#1991=CARTESIAN_POINT('Origin',(0.,-37.6553390593274,39.3390559167358));
#1992=CARTESIAN_POINT('',(6.,-37.6553390593274,39.3390559167358));
#1993=CARTESIAN_POINT('',(0.,-37.6553390593274,39.3390559167358));
#1994=CARTESIAN_POINT('',(6.,-39.9553390593274,35.3553390593274));
#1995=CARTESIAN_POINT('',(6.,-39.9553390593274,35.3553390593274));
#1996=CARTESIAN_POINT('',(0.,-39.9553390593274,35.3553390593274));
#1997=CARTESIAN_POINT('Origin',(0.,-33.0553390593274,39.3390559167358));
#1998=CARTESIAN_POINT('',(6.,-33.0553390593274,39.3390559167358));
#1999=CARTESIAN_POINT('',(0.,-33.0553390593274,39.3390559167358));
#2000=CARTESIAN_POINT('',(6.,-37.6553390593274,39.3390559167358));
#2001=CARTESIAN_POINT('Origin',(0.,-30.7553390593274,35.3553390593274));
#2002=CARTESIAN_POINT('',(6.,-30.7553390593274,35.3553390593274));
#2003=CARTESIAN_POINT('',(0.,-30.7553390593274,35.3553390593274));
#2004=CARTESIAN_POINT('',(6.,-33.0553390593274,39.3390559167358));
#2005=CARTESIAN_POINT('Origin',(0.,-33.0553390593274,31.3716222019189));
#2006=CARTESIAN_POINT('',(6.,-33.0553390593274,31.3716222019189));
#2007=CARTESIAN_POINT('',(0.,-33.0553390593274,31.3716222019189));
#2008=CARTESIAN_POINT('',(6.,-30.7553390593274,35.3553390593274));
#2009=CARTESIAN_POINT('Origin',(0.,-37.6553390593274,31.371622201919));
#2010=CARTESIAN_POINT('',(6.,-37.6553390593274,31.371622201919));
#2011=CARTESIAN_POINT('',(0.,-37.6553390593274,31.371622201919));
#2012=CARTESIAN_POINT('',(6.,-33.0553390593274,31.3716222019189));
#2013=CARTESIAN_POINT('Origin',(0.,-39.9553390593274,35.3553390593274));
#2014=CARTESIAN_POINT('',(6.,-37.6553390593274,31.371622201919));
#2015=CARTESIAN_POINT('Origin',(6.,-35.3553390593274,35.3553390593274));
#2016=CARTESIAN_POINT('',(6.,-35.3553390593274,38.8553390593274));
#2017=CARTESIAN_POINT('Origin',(6.,-35.3553390593274,35.3553390593274));
#2018=CARTESIAN_POINT('Origin',(-124.56832294801,35.3553390593278,-35.3553390593278));
#2019=CARTESIAN_POINT('',(-124.56832294801,35.3553390593278,-31.8553390593278));
#2020=CARTESIAN_POINT('Origin',(-124.56832294801,35.355339059327,35.355339059327));
#2021=CARTESIAN_POINT('',(-124.56832294801,35.355339059327,38.855339059327));
#2022=CARTESIAN_POINT('Origin',(-124.56832294801,-35.3553390593274,35.3553390593274));
#2023=CARTESIAN_POINT('',(-124.56832294801,-35.3553390593274,38.8553390593274));
#2024=CARTESIAN_POINT('Origin',(-124.56832294801,-35.3553390593274,-35.3553390593274));
#2025=CARTESIAN_POINT('',(-124.56832294801,-35.3553390593274,-31.8553390593274));
#2026=CARTESIAN_POINT('Origin',(1.25,11.1369318036881,-11.1369318036881));
#2027=CARTESIAN_POINT('',(0.499999999999998,11.1369318036881,-8.13693180368812));
#2028=CARTESIAN_POINT('',(1.25,11.1369318036881,-7.38693180368812));
#2029=CARTESIAN_POINT('Origin',(0.499999999999996,11.1369318036881,-11.1369318036881));
#2030=CARTESIAN_POINT('Origin',(-142.56832294801,11.1369318036881,-11.1369318036881));
#2031=CARTESIAN_POINT('',(-142.56832294801,11.1369318036881,-8.13693180368812));
#2032=CARTESIAN_POINT('Origin',(1.25,11.1369318036881,11.1369318036881));
#2033=CARTESIAN_POINT('',(0.499999999999998,11.1369318036881,14.1369318036881));
#2034=CARTESIAN_POINT('',(1.25,11.1369318036881,14.8869318036881));
#2035=CARTESIAN_POINT('Origin',(0.499999999999996,11.1369318036881,11.1369318036881));
#2036=CARTESIAN_POINT('Origin',(-142.56832294801,11.1369318036881,11.1369318036881));
#2037=CARTESIAN_POINT('',(-142.56832294801,11.1369318036881,14.1369318036881));
#2038=CARTESIAN_POINT('Origin',(1.25,-11.1369318036881,11.1369318036881));
#2039=CARTESIAN_POINT('',(0.499999999999998,-11.1369318036881,14.1369318036881));
#2040=CARTESIAN_POINT('',(1.25,-11.1369318036881,14.8869318036881));
#2041=CARTESIAN_POINT('Origin',(0.499999999999996,-11.1369318036881,11.1369318036881));
#2042=CARTESIAN_POINT('Origin',(-142.56832294801,-11.1369318036881,11.1369318036881));
#2043=CARTESIAN_POINT('',(-142.56832294801,-11.1369318036881,14.1369318036881));
#2044=CARTESIAN_POINT('Origin',(1.25,-11.1369318036881,-11.1369318036881));
#2045=CARTESIAN_POINT('',(0.499999999999998,-11.1369318036881,-8.13693180368806));
#2046=CARTESIAN_POINT('',(1.25,-11.1369318036881,-7.38693180368806));
#2047=CARTESIAN_POINT('Origin',(0.499999999999996,-11.1369318036881,-11.1369318036881));
#2048=CARTESIAN_POINT('Origin',(-142.56832294801,-11.1369318036881,-11.1369318036881));
#2049=CARTESIAN_POINT('',(-142.56832294801,-11.1369318036881,-8.13693180368806));
#2050=CARTESIAN_POINT('Origin',(0.,50.,50.));
#2051=CARTESIAN_POINT('Origin',(0.,50.,-50.));
#2052=UNCERTAINTY_MEASURE_WITH_UNIT(LENGTH_MEASURE(0.01),#2056,
'DISTANCE_ACCURACY_VALUE',
'Maximum model space distance between geometric entities at asserted c
onnectivities');
#2053=UNCERTAINTY_MEASURE_WITH_UNIT(LENGTH_MEASURE(0.01),#2056,
'DISTANCE_ACCURACY_VALUE',
'Maximum model space distance between geometric entities at asserted c
onnectivities');
#2054=(
GEOMETRIC_REPRESENTATION_CONTEXT(3)
GLOBAL_UNCERTAINTY_ASSIGNED_CONTEXT((#2052))
GLOBAL_UNIT_ASSIGNED_CONTEXT((#2056,#2058,#2059))
REPRESENTATION_CONTEXT('','3D')
);
#2055=(
GEOMETRIC_REPRESENTATION_CONTEXT(3)
GLOBAL_UNCERTAINTY_ASSIGNED_CONTEXT((#2053))
GLOBAL_UNIT_ASSIGNED_CONTEXT((#2056,#2058,#2059))
REPRESENTATION_CONTEXT('','3D')
);
#2056=(
LENGTH_UNIT()
NAMED_UNIT(*)
SI_UNIT(.MILLI.,.METRE.)
);
#2057=(
LENGTH_UNIT()
NAMED_UNIT(*)
SI_UNIT(.CENTI.,.METRE.)
);
#2058=(
NAMED_UNIT(*)
PLANE_ANGLE_UNIT()
SI_UNIT($,.RADIAN.)
);
#2059=(
NAMED_UNIT(*)
SI_UNIT($,.STERADIAN.)
SOLID_ANGLE_UNIT()
);
#2060=SHAPE_DEFINITION_REPRESENTATION(#2061,#2062);
#2061=PRODUCT_DEFINITION_SHAPE('',$,#2064);
#2062=SHAPE_REPRESENTATION('',(#1226),#2054);
#2063=PRODUCT_DEFINITION_CONTEXT('part definition',#2068,'design');
#2064=PRODUCT_DEFINITION('adaptador para abb','brida para abb',#2065,#2063);
#2065=PRODUCT_DEFINITION_FORMATION('',$,#2070);
#2066=PRODUCT_RELATED_PRODUCT_CATEGORY('brida para abb',
'brida para abb',(#2070));
#2067=APPLICATION_PROTOCOL_DEFINITION('international standard',
'automotive_design',2009,#2068);
#2068=APPLICATION_CONTEXT(
'Core Data for Automotive Mechanical Design Process');
#2069=PRODUCT_CONTEXT('part definition',#2068,'mechanical');
#2070=PRODUCT('adaptador para abb','brida para abb',$,(#2069));
#2071=PRESENTATION_STYLE_ASSIGNMENT((#2072));
#2072=SURFACE_STYLE_USAGE(.BOTH.,#2075);
#2073=SURFACE_STYLE_RENDERING_WITH_PROPERTIES($,#2079,(#2074));
#2074=SURFACE_STYLE_TRANSPARENT(0.);
#2075=SURFACE_SIDE_STYLE('',(#2076,#2073));
#2076=SURFACE_STYLE_FILL_AREA(#2077);
#2077=FILL_AREA_STYLE('',(#2078));
#2078=FILL_AREA_STYLE_COLOUR('',#2079);
#2079=COLOUR_RGB('',0.749019607843137,0.749019607843137,0.749019607843137);
ENDSEC;
END-ISO-10303-21;
