ISO-10303-21;
HEADER;
/* Generated by software containing ST-Developer
 * from STEP Tools, Inc. (www.steptools.com) 
 */

FILE_DESCRIPTION(
/* description */ (''),
/* implementation_level */ '2;1');

FILE_NAME(
/* name */ 'cajetinparapantalla.stp',
/* time_stamp */ '2026-04-30T11:56:01+02:00',
/* author */ ('Legion'),
/* organization */ (''),
/* preprocessor_version */ 'ST-DEVELOPER v19.2',
/* originating_system */ 'Autodesk Inventor 2024',
/* authorisation */ '');

FILE_SCHEMA (('AUTOMOTIVE_DESIGN { 1 0 10303 214 3 1 1 }'));
ENDSEC;

DATA;
#10=MECHANICAL_DESIGN_GEOMETRIC_PRESENTATION_REPRESENTATION('',(#13),#1085);
#11=SHAPE_REPRESENTATION_RELATIONSHIP('SRR','None',#1092,#12);
#12=ADVANCED_BREP_SHAPE_REPRESENTATION('',(#14),#1084);
#13=STYLED_ITEM('',(#1101),#14);
#14=MANIFOLD_SOLID_BREP('S\X\F3lido1',#631);
#15=CONICAL_SURFACE('',#707,4.,0.785398163397448);
#16=FACE_BOUND('',#95,.T.);
#17=FACE_BOUND('',#96,.T.);
#18=FACE_BOUND('',#111,.T.);
#19=FACE_BOUND('',#113,.T.);
#20=SPHERICAL_SURFACE('',#677,2.);
#21=SPHERICAL_SURFACE('',#681,2.);
#22=ELLIPSE('',#660,0.707106781186549,0.5);
#23=ELLIPSE('',#663,0.707106781186548,0.5);
#24=PLANE('',#657);
#25=PLANE('',#665);
#26=PLANE('',#669);
#27=PLANE('',#670);
#28=PLANE('',#675);
#29=PLANE('',#694);
#30=PLANE('',#696);
#31=PLANE('',#697);
#32=PLANE('',#700);
#33=PLANE('',#701);
#34=PLANE('',#702);
#35=PLANE('',#703);
#36=PLANE('',#705);
#37=PLANE('',#711);
#38=PLANE('',#712);
#39=PLANE('',#713);
#40=PLANE('',#714);
#41=PLANE('',#715);
#42=FACE_OUTER_BOUND('',#77,.T.);
#43=FACE_OUTER_BOUND('',#78,.T.);
#44=FACE_OUTER_BOUND('',#79,.T.);
#45=FACE_OUTER_BOUND('',#80,.T.);
#46=FACE_OUTER_BOUND('',#81,.T.);
#47=FACE_OUTER_BOUND('',#82,.T.);
#48=FACE_OUTER_BOUND('',#83,.T.);
#49=FACE_OUTER_BOUND('',#84,.T.);
#50=FACE_OUTER_BOUND('',#85,.T.);
#51=FACE_OUTER_BOUND('',#86,.T.);
#52=FACE_OUTER_BOUND('',#87,.T.);
#53=FACE_OUTER_BOUND('',#88,.T.);
#54=FACE_OUTER_BOUND('',#89,.T.);
#55=FACE_OUTER_BOUND('',#90,.T.);
#56=FACE_OUTER_BOUND('',#91,.T.);
#57=FACE_OUTER_BOUND('',#92,.T.);
#58=FACE_OUTER_BOUND('',#93,.T.);
#59=FACE_OUTER_BOUND('',#94,.T.);
#60=FACE_OUTER_BOUND('',#97,.T.);
#61=FACE_OUTER_BOUND('',#98,.T.);
#62=FACE_OUTER_BOUND('',#99,.T.);
#63=FACE_OUTER_BOUND('',#100,.T.);
#64=FACE_OUTER_BOUND('',#101,.T.);
#65=FACE_OUTER_BOUND('',#102,.T.);
#66=FACE_OUTER_BOUND('',#103,.T.);
#67=FACE_OUTER_BOUND('',#104,.T.);
#68=FACE_OUTER_BOUND('',#105,.T.);
#69=FACE_OUTER_BOUND('',#106,.T.);
#70=FACE_OUTER_BOUND('',#107,.T.);
#71=FACE_OUTER_BOUND('',#108,.T.);
#72=FACE_OUTER_BOUND('',#109,.T.);
#73=FACE_OUTER_BOUND('',#110,.T.);
#74=FACE_OUTER_BOUND('',#112,.T.);
#75=FACE_OUTER_BOUND('',#114,.T.);
#76=FACE_OUTER_BOUND('',#115,.T.);
#77=EDGE_LOOP('',(#406,#407,#408,#409));
#78=EDGE_LOOP('',(#410,#411,#412,#413));
#79=EDGE_LOOP('',(#414,#415,#416,#417));
#80=EDGE_LOOP('',(#418,#419,#420,#421));
#81=EDGE_LOOP('',(#422,#423,#424,#425));
#82=EDGE_LOOP('',(#426,#427,#428,#429,#430,#431,#432,#433,#434,#435));
#83=EDGE_LOOP('',(#436,#437,#438,#439));
#84=EDGE_LOOP('',(#440,#441,#442,#443,#444,#445,#446,#447,#448,#449));
#85=EDGE_LOOP('',(#450,#451,#452,#453));
#86=EDGE_LOOP('',(#454,#455,#456,#457,#458,#459,#460,#461,#462,#463,#464));
#87=EDGE_LOOP('',(#465,#466,#467));
#88=EDGE_LOOP('',(#468,#469,#470));
#89=EDGE_LOOP('',(#471,#472,#473,#474));
#90=EDGE_LOOP('',(#475,#476,#477,#478,#479));
#91=EDGE_LOOP('',(#480,#481,#482,#483));
#92=EDGE_LOOP('',(#484,#485,#486,#487));
#93=EDGE_LOOP('',(#488,#489,#490,#491,#492));
#94=EDGE_LOOP('',(#493,#494,#495,#496));
#95=EDGE_LOOP('',(#497));
#96=EDGE_LOOP('',(#498,#499,#500,#501));
#97=EDGE_LOOP('',(#502,#503,#504,#505));
#98=EDGE_LOOP('',(#506,#507,#508,#509,#510));
#99=EDGE_LOOP('',(#511,#512,#513,#514));
#100=EDGE_LOOP('',(#515,#516,#517,#518));
#101=EDGE_LOOP('',(#519,#520,#521,#522));
#102=EDGE_LOOP('',(#523,#524,#525,#526));
#103=EDGE_LOOP('',(#527,#528,#529,#530));
#104=EDGE_LOOP('',(#531,#532,#533,#534));
#105=EDGE_LOOP('',(#535,#536,#537,#538));
#106=EDGE_LOOP('',(#539,#540,#541,#542));
#107=EDGE_LOOP('',(#543,#544,#545,#546));
#108=EDGE_LOOP('',(#547,#548,#549,#550));
#109=EDGE_LOOP('',(#551,#552,#553,#554));
#110=EDGE_LOOP('',(#555,#556,#557,#558,#559,#560,#561,#562,#563,#564));
#111=EDGE_LOOP('',(#565,#566,#567,#568));
#112=EDGE_LOOP('',(#569,#570,#571,#572));
#113=EDGE_LOOP('',(#573));
#114=EDGE_LOOP('',(#574,#575,#576,#577));
#115=EDGE_LOOP('',(#578,#579,#580,#581));
#116=LINE('',#909,#177);
#117=LINE('',#912,#178);
#118=LINE('',#915,#179);
#119=LINE('',#917,#180);
#120=LINE('',#918,#181);
#121=LINE('',#922,#182);
#122=LINE('',#926,#183);
#123=LINE('',#931,#184);
#124=LINE('',#935,#185);
#125=LINE('',#938,#186);
#126=LINE('',#939,#187);
#127=LINE('',#941,#188);
#128=LINE('',#945,#189);
#129=LINE('',#949,#190);
#130=LINE('',#952,#191);
#131=LINE('',#954,#192);
#132=LINE('',#957,#193);
#133=LINE('',#961,#194);
#134=LINE('',#965,#195);
#135=LINE('',#968,#196);
#136=LINE('',#969,#197);
#137=LINE('',#972,#198);
#138=LINE('',#974,#199);
#139=LINE('',#976,#200);
#140=LINE('',#978,#201);
#141=LINE('',#981,#202);
#142=LINE('',#996,#203);
#143=LINE('',#997,#204);
#144=LINE('',#1002,#205);
#145=LINE('',#1003,#206);
#146=LINE('',#1007,#207);
#147=LINE('',#1012,#208);
#148=LINE('',#1013,#209);
#149=LINE('',#1018,#210);
#150=LINE('',#1020,#211);
#151=LINE('',#1021,#212);
#152=LINE('',#1023,#213);
#153=LINE('',#1028,#214);
#154=LINE('',#1030,#215);
#155=LINE('',#1032,#216);
#156=LINE('',#1033,#217);
#157=LINE('',#1035,#218);
#158=LINE('',#1038,#219);
#159=LINE('',#1041,#220);
#160=LINE('',#1043,#221);
#161=LINE('',#1044,#222);
#162=LINE('',#1046,#223);
#163=LINE('',#1049,#224);
#164=LINE('',#1051,#225);
#165=LINE('',#1052,#226);
#166=LINE('',#1055,#227);
#167=LINE('',#1057,#228);
#168=LINE('',#1058,#229);
#169=LINE('',#1060,#230);
#170=LINE('',#1062,#231);
#171=LINE('',#1064,#232);
#172=LINE('',#1066,#233);
#173=LINE('',#1069,#234);
#174=LINE('',#1073,#235);
#175=LINE('',#1077,#236);
#176=LINE('',#1078,#237);
#177=VECTOR('',#722,10.);
#178=VECTOR('',#725,10.);
#179=VECTOR('',#728,10.);
#180=VECTOR('',#729,10.);
#181=VECTOR('',#730,10.);
#182=VECTOR('',#733,10.);
#183=VECTOR('',#736,10.);
#184=VECTOR('',#741,10.);
#185=VECTOR('',#744,10.);
#186=VECTOR('',#749,10.);
#187=VECTOR('',#750,10.);
#188=VECTOR('',#753,10.);
#189=VECTOR('',#756,10.);
#190=VECTOR('',#759,10.);
#191=VECTOR('',#762,10.);
#192=VECTOR('',#765,10.);
#193=VECTOR('',#768,10.);
#194=VECTOR('',#771,10.);
#195=VECTOR('',#774,10.);
#196=VECTOR('',#779,10.);
#197=VECTOR('',#780,10.);
#198=VECTOR('',#783,10.);
#199=VECTOR('',#784,10.);
#200=VECTOR('',#785,10.);
#201=VECTOR('',#786,10.);
#202=VECTOR('',#789,10.);
#203=VECTOR('',#808,10.);
#204=VECTOR('',#809,10.);
#205=VECTOR('',#814,10.);
#206=VECTOR('',#815,10.);
#207=VECTOR('',#820,10.);
#208=VECTOR('',#825,10.);
#209=VECTOR('',#826,10.);
#210=VECTOR('',#831,10.);
#211=VECTOR('',#832,10.);
#212=VECTOR('',#833,10.);
#213=VECTOR('',#836,10.);
#214=VECTOR('',#839,10.);
#215=VECTOR('',#840,10.);
#216=VECTOR('',#841,10.);
#217=VECTOR('',#842,10.);
#218=VECTOR('',#845,10.);
#219=VECTOR('',#848,10.);
#220=VECTOR('',#851,10.);
#221=VECTOR('',#854,10.);
#222=VECTOR('',#855,10.);
#223=VECTOR('',#858,10.);
#224=VECTOR('',#861,10.);
#225=VECTOR('',#862,10.);
#226=VECTOR('',#863,10.);
#227=VECTOR('',#866,10.);
#228=VECTOR('',#867,10.);
#229=VECTOR('',#868,10.);
#230=VECTOR('',#871,10.);
#231=VECTOR('',#874,10.);
#232=VECTOR('',#877,10.);
#233=VECTOR('',#880,10.);
#234=VECTOR('',#883,4.);
#235=VECTOR('',#888,3.5);
#236=VECTOR('',#895,10.);
#237=VECTOR('',#896,10.);
#238=CIRCLE('',#655,0.5);
#239=CIRCLE('',#656,0.5);
#240=CIRCLE('',#659,0.5);
#241=CIRCLE('',#662,0.5);
#242=CIRCLE('',#666,0.5);
#243=CIRCLE('',#667,0.5);
#244=CIRCLE('',#668,0.5);
#245=CIRCLE('',#671,0.5);
#246=CIRCLE('',#672,0.5);
#247=CIRCLE('',#673,0.5);
#248=CIRCLE('',#676,1.);
#249=CIRCLE('',#678,2.);
#250=CIRCLE('',#679,2.);
#251=CIRCLE('',#680,2.);
#252=CIRCLE('',#682,2.);
#253=CIRCLE('',#683,2.);
#254=CIRCLE('',#684,2.);
#255=CIRCLE('',#687,2.);
#256=CIRCLE('',#689,2.);
#257=CIRCLE('',#691,2.);
#258=CIRCLE('',#693,2.);
#259=CIRCLE('',#695,4.5);
#260=CIRCLE('',#698,1.);
#261=CIRCLE('',#708,3.5);
#262=CIRCLE('',#710,3.5);
#263=VERTEX_POINT('',#905);
#264=VERTEX_POINT('',#906);
#265=VERTEX_POINT('',#908);
#266=VERTEX_POINT('',#910);
#267=VERTEX_POINT('',#914);
#268=VERTEX_POINT('',#916);
#269=VERTEX_POINT('',#920);
#270=VERTEX_POINT('',#921);
#271=VERTEX_POINT('',#923);
#272=VERTEX_POINT('',#925);
#273=VERTEX_POINT('',#929);
#274=VERTEX_POINT('',#930);
#275=VERTEX_POINT('',#932);
#276=VERTEX_POINT('',#934);
#277=VERTEX_POINT('',#942);
#278=VERTEX_POINT('',#944);
#279=VERTEX_POINT('',#946);
#280=VERTEX_POINT('',#948);
#281=VERTEX_POINT('',#950);
#282=VERTEX_POINT('',#956);
#283=VERTEX_POINT('',#958);
#284=VERTEX_POINT('',#960);
#285=VERTEX_POINT('',#962);
#286=VERTEX_POINT('',#964);
#287=VERTEX_POINT('',#971);
#288=VERTEX_POINT('',#973);
#289=VERTEX_POINT('',#975);
#290=VERTEX_POINT('',#977);
#291=VERTEX_POINT('',#979);
#292=VERTEX_POINT('',#983);
#293=VERTEX_POINT('',#984);
#294=VERTEX_POINT('',#986);
#295=VERTEX_POINT('',#990);
#296=VERTEX_POINT('',#992);
#297=VERTEX_POINT('',#999);
#298=VERTEX_POINT('',#1000);
#299=VERTEX_POINT('',#1005);
#300=VERTEX_POINT('',#1009);
#301=VERTEX_POINT('',#1010);
#302=VERTEX_POINT('',#1015);
#303=VERTEX_POINT('',#1016);
#304=VERTEX_POINT('',#1019);
#305=VERTEX_POINT('',#1024);
#306=VERTEX_POINT('',#1026);
#307=VERTEX_POINT('',#1027);
#308=VERTEX_POINT('',#1029);
#309=VERTEX_POINT('',#1031);
#310=VERTEX_POINT('',#1037);
#311=VERTEX_POINT('',#1039);
#312=VERTEX_POINT('',#1048);
#313=VERTEX_POINT('',#1050);
#314=VERTEX_POINT('',#1054);
#315=VERTEX_POINT('',#1056);
#316=VERTEX_POINT('',#1068);
#317=VERTEX_POINT('',#1072);
#318=EDGE_CURVE('',#263,#264,#238,.T.);
#319=EDGE_CURVE('',#264,#265,#116,.T.);
#320=EDGE_CURVE('',#265,#266,#239,.T.);
#321=EDGE_CURVE('',#266,#263,#117,.T.);
#322=EDGE_CURVE('',#264,#267,#118,.T.);
#323=EDGE_CURVE('',#268,#267,#119,.T.);
#324=EDGE_CURVE('',#265,#268,#120,.T.);
#325=EDGE_CURVE('',#269,#270,#121,.T.);
#326=EDGE_CURVE('',#270,#271,#240,.T.);
#327=EDGE_CURVE('',#271,#272,#122,.T.);
#328=EDGE_CURVE('',#272,#269,#22,.T.);
#329=EDGE_CURVE('',#273,#274,#123,.T.);
#330=EDGE_CURVE('',#274,#275,#241,.T.);
#331=EDGE_CURVE('',#275,#276,#124,.T.);
#332=EDGE_CURVE('',#276,#273,#23,.T.);
#333=EDGE_CURVE('',#272,#273,#125,.T.);
#334=EDGE_CURVE('',#276,#269,#126,.T.);
#335=EDGE_CURVE('',#269,#266,#127,.T.);
#336=EDGE_CURVE('',#277,#268,#242,.T.);
#337=EDGE_CURVE('',#278,#277,#128,.T.);
#338=EDGE_CURVE('',#279,#278,#243,.T.);
#339=EDGE_CURVE('',#279,#280,#129,.T.);
#340=EDGE_CURVE('',#281,#280,#244,.T.);
#341=EDGE_CURVE('',#270,#281,#130,.T.);
#342=EDGE_CURVE('',#276,#263,#131,.T.);
#343=EDGE_CURVE('',#282,#275,#132,.T.);
#344=EDGE_CURVE('',#283,#282,#245,.T.);
#345=EDGE_CURVE('',#283,#284,#133,.T.);
#346=EDGE_CURVE('',#285,#284,#246,.T.);
#347=EDGE_CURVE('',#286,#285,#134,.T.);
#348=EDGE_CURVE('',#267,#286,#247,.T.);
#349=EDGE_CURVE('',#282,#281,#135,.T.);
#350=EDGE_CURVE('',#280,#283,#136,.T.);
#351=EDGE_CURVE('',#274,#287,#137,.T.);
#352=EDGE_CURVE('',#288,#287,#138,.T.);
#353=EDGE_CURVE('',#289,#288,#139,.T.);
#354=EDGE_CURVE('',#289,#290,#140,.T.);
#355=EDGE_CURVE('',#290,#291,#248,.T.);
#356=EDGE_CURVE('',#291,#271,#141,.T.);
#357=EDGE_CURVE('',#292,#293,#249,.F.);
#358=EDGE_CURVE('',#294,#292,#250,.F.);
#359=EDGE_CURVE('',#293,#294,#251,.F.);
#360=EDGE_CURVE('',#295,#288,#252,.F.);
#361=EDGE_CURVE('',#296,#295,#253,.F.);
#362=EDGE_CURVE('',#288,#296,#254,.F.);
#363=EDGE_CURVE('',#295,#294,#142,.T.);
#364=EDGE_CURVE('',#292,#296,#143,.T.);
#365=EDGE_CURVE('',#297,#298,#255,.T.);
#366=EDGE_CURVE('',#298,#289,#144,.T.);
#367=EDGE_CURVE('',#296,#297,#145,.T.);
#368=EDGE_CURVE('',#287,#299,#256,.T.);
#369=EDGE_CURVE('',#299,#295,#146,.T.);
#370=EDGE_CURVE('',#300,#301,#257,.T.);
#371=EDGE_CURVE('',#301,#293,#147,.T.);
#372=EDGE_CURVE('',#294,#300,#148,.T.);
#373=EDGE_CURVE('',#302,#303,#258,.T.);
#374=EDGE_CURVE('',#303,#292,#149,.T.);
#375=EDGE_CURVE('',#293,#304,#150,.T.);
#376=EDGE_CURVE('',#302,#304,#151,.T.);
#377=EDGE_CURVE('',#303,#297,#152,.T.);
#378=EDGE_CURVE('',#305,#305,#259,.T.);
#379=EDGE_CURVE('',#306,#307,#153,.T.);
#380=EDGE_CURVE('',#308,#306,#154,.T.);
#381=EDGE_CURVE('',#309,#308,#155,.T.);
#382=EDGE_CURVE('',#307,#309,#156,.T.);
#383=EDGE_CURVE('',#302,#298,#157,.T.);
#384=EDGE_CURVE('',#310,#301,#158,.T.);
#385=EDGE_CURVE('',#311,#310,#260,.T.);
#386=EDGE_CURVE('',#304,#311,#159,.T.);
#387=EDGE_CURVE('',#310,#291,#160,.T.);
#388=EDGE_CURVE('',#290,#311,#161,.T.);
#389=EDGE_CURVE('',#289,#304,#162,.T.);
#390=EDGE_CURVE('',#309,#312,#163,.F.);
#391=EDGE_CURVE('',#313,#312,#164,.T.);
#392=EDGE_CURVE('',#313,#307,#165,.F.);
#393=EDGE_CURVE('',#306,#314,#166,.F.);
#394=EDGE_CURVE('',#315,#314,#167,.T.);
#395=EDGE_CURVE('',#315,#308,#168,.F.);
#396=EDGE_CURVE('',#312,#315,#169,.T.);
#397=EDGE_CURVE('',#286,#277,#170,.T.);
#398=EDGE_CURVE('',#278,#285,#171,.T.);
#399=EDGE_CURVE('',#284,#279,#172,.T.);
#400=EDGE_CURVE('',#305,#316,#173,.T.);
#401=EDGE_CURVE('',#316,#316,#261,.T.);
#402=EDGE_CURVE('',#316,#317,#174,.T.);
#403=EDGE_CURVE('',#317,#317,#262,.T.);
#404=EDGE_CURVE('',#300,#299,#175,.T.);
#405=EDGE_CURVE('',#314,#313,#176,.T.);
#406=ORIENTED_EDGE('',*,*,#318,.T.);
#407=ORIENTED_EDGE('',*,*,#319,.T.);
#408=ORIENTED_EDGE('',*,*,#320,.T.);
#409=ORIENTED_EDGE('',*,*,#321,.T.);
#410=ORIENTED_EDGE('',*,*,#319,.F.);
#411=ORIENTED_EDGE('',*,*,#322,.T.);
#412=ORIENTED_EDGE('',*,*,#323,.F.);
#413=ORIENTED_EDGE('',*,*,#324,.F.);
#414=ORIENTED_EDGE('',*,*,#325,.T.);
#415=ORIENTED_EDGE('',*,*,#326,.T.);
#416=ORIENTED_EDGE('',*,*,#327,.T.);
#417=ORIENTED_EDGE('',*,*,#328,.T.);
#418=ORIENTED_EDGE('',*,*,#329,.T.);
#419=ORIENTED_EDGE('',*,*,#330,.T.);
#420=ORIENTED_EDGE('',*,*,#331,.T.);
#421=ORIENTED_EDGE('',*,*,#332,.T.);
#422=ORIENTED_EDGE('',*,*,#333,.T.);
#423=ORIENTED_EDGE('',*,*,#332,.F.);
#424=ORIENTED_EDGE('',*,*,#334,.T.);
#425=ORIENTED_EDGE('',*,*,#328,.F.);
#426=ORIENTED_EDGE('',*,*,#325,.F.);
#427=ORIENTED_EDGE('',*,*,#335,.T.);
#428=ORIENTED_EDGE('',*,*,#320,.F.);
#429=ORIENTED_EDGE('',*,*,#324,.T.);
#430=ORIENTED_EDGE('',*,*,#336,.F.);
#431=ORIENTED_EDGE('',*,*,#337,.F.);
#432=ORIENTED_EDGE('',*,*,#338,.F.);
#433=ORIENTED_EDGE('',*,*,#339,.T.);
#434=ORIENTED_EDGE('',*,*,#340,.F.);
#435=ORIENTED_EDGE('',*,*,#341,.F.);
#436=ORIENTED_EDGE('',*,*,#321,.F.);
#437=ORIENTED_EDGE('',*,*,#335,.F.);
#438=ORIENTED_EDGE('',*,*,#334,.F.);
#439=ORIENTED_EDGE('',*,*,#342,.T.);
#440=ORIENTED_EDGE('',*,*,#331,.F.);
#441=ORIENTED_EDGE('',*,*,#343,.F.);
#442=ORIENTED_EDGE('',*,*,#344,.F.);
#443=ORIENTED_EDGE('',*,*,#345,.T.);
#444=ORIENTED_EDGE('',*,*,#346,.F.);
#445=ORIENTED_EDGE('',*,*,#347,.F.);
#446=ORIENTED_EDGE('',*,*,#348,.F.);
#447=ORIENTED_EDGE('',*,*,#322,.F.);
#448=ORIENTED_EDGE('',*,*,#318,.F.);
#449=ORIENTED_EDGE('',*,*,#342,.F.);
#450=ORIENTED_EDGE('',*,*,#344,.T.);
#451=ORIENTED_EDGE('',*,*,#349,.T.);
#452=ORIENTED_EDGE('',*,*,#340,.T.);
#453=ORIENTED_EDGE('',*,*,#350,.T.);
#454=ORIENTED_EDGE('',*,*,#349,.F.);
#455=ORIENTED_EDGE('',*,*,#343,.T.);
#456=ORIENTED_EDGE('',*,*,#330,.F.);
#457=ORIENTED_EDGE('',*,*,#351,.T.);
#458=ORIENTED_EDGE('',*,*,#352,.F.);
#459=ORIENTED_EDGE('',*,*,#353,.F.);
#460=ORIENTED_EDGE('',*,*,#354,.T.);
#461=ORIENTED_EDGE('',*,*,#355,.T.);
#462=ORIENTED_EDGE('',*,*,#356,.T.);
#463=ORIENTED_EDGE('',*,*,#326,.F.);
#464=ORIENTED_EDGE('',*,*,#341,.T.);
#465=ORIENTED_EDGE('',*,*,#357,.F.);
#466=ORIENTED_EDGE('',*,*,#358,.F.);
#467=ORIENTED_EDGE('',*,*,#359,.F.);
#468=ORIENTED_EDGE('',*,*,#360,.F.);
#469=ORIENTED_EDGE('',*,*,#361,.F.);
#470=ORIENTED_EDGE('',*,*,#362,.F.);
#471=ORIENTED_EDGE('',*,*,#361,.T.);
#472=ORIENTED_EDGE('',*,*,#363,.T.);
#473=ORIENTED_EDGE('',*,*,#358,.T.);
#474=ORIENTED_EDGE('',*,*,#364,.T.);
#475=ORIENTED_EDGE('',*,*,#365,.T.);
#476=ORIENTED_EDGE('',*,*,#366,.T.);
#477=ORIENTED_EDGE('',*,*,#353,.T.);
#478=ORIENTED_EDGE('',*,*,#362,.T.);
#479=ORIENTED_EDGE('',*,*,#367,.T.);
#480=ORIENTED_EDGE('',*,*,#368,.T.);
#481=ORIENTED_EDGE('',*,*,#369,.T.);
#482=ORIENTED_EDGE('',*,*,#360,.T.);
#483=ORIENTED_EDGE('',*,*,#352,.T.);
#484=ORIENTED_EDGE('',*,*,#370,.T.);
#485=ORIENTED_EDGE('',*,*,#371,.T.);
#486=ORIENTED_EDGE('',*,*,#359,.T.);
#487=ORIENTED_EDGE('',*,*,#372,.T.);
#488=ORIENTED_EDGE('',*,*,#373,.T.);
#489=ORIENTED_EDGE('',*,*,#374,.T.);
#490=ORIENTED_EDGE('',*,*,#357,.T.);
#491=ORIENTED_EDGE('',*,*,#375,.T.);
#492=ORIENTED_EDGE('',*,*,#376,.F.);
#493=ORIENTED_EDGE('',*,*,#367,.F.);
#494=ORIENTED_EDGE('',*,*,#364,.F.);
#495=ORIENTED_EDGE('',*,*,#374,.F.);
#496=ORIENTED_EDGE('',*,*,#377,.T.);
#497=ORIENTED_EDGE('',*,*,#378,.T.);
#498=ORIENTED_EDGE('',*,*,#379,.F.);
#499=ORIENTED_EDGE('',*,*,#380,.F.);
#500=ORIENTED_EDGE('',*,*,#381,.F.);
#501=ORIENTED_EDGE('',*,*,#382,.F.);
#502=ORIENTED_EDGE('',*,*,#365,.F.);
#503=ORIENTED_EDGE('',*,*,#377,.F.);
#504=ORIENTED_EDGE('',*,*,#373,.F.);
#505=ORIENTED_EDGE('',*,*,#383,.T.);
#506=ORIENTED_EDGE('',*,*,#375,.F.);
#507=ORIENTED_EDGE('',*,*,#371,.F.);
#508=ORIENTED_EDGE('',*,*,#384,.F.);
#509=ORIENTED_EDGE('',*,*,#385,.F.);
#510=ORIENTED_EDGE('',*,*,#386,.F.);
#511=ORIENTED_EDGE('',*,*,#385,.T.);
#512=ORIENTED_EDGE('',*,*,#387,.T.);
#513=ORIENTED_EDGE('',*,*,#355,.F.);
#514=ORIENTED_EDGE('',*,*,#388,.T.);
#515=ORIENTED_EDGE('',*,*,#388,.F.);
#516=ORIENTED_EDGE('',*,*,#354,.F.);
#517=ORIENTED_EDGE('',*,*,#389,.T.);
#518=ORIENTED_EDGE('',*,*,#386,.T.);
#519=ORIENTED_EDGE('',*,*,#390,.T.);
#520=ORIENTED_EDGE('',*,*,#391,.F.);
#521=ORIENTED_EDGE('',*,*,#392,.T.);
#522=ORIENTED_EDGE('',*,*,#382,.T.);
#523=ORIENTED_EDGE('',*,*,#393,.T.);
#524=ORIENTED_EDGE('',*,*,#394,.F.);
#525=ORIENTED_EDGE('',*,*,#395,.T.);
#526=ORIENTED_EDGE('',*,*,#380,.T.);
#527=ORIENTED_EDGE('',*,*,#396,.F.);
#528=ORIENTED_EDGE('',*,*,#390,.F.);
#529=ORIENTED_EDGE('',*,*,#381,.T.);
#530=ORIENTED_EDGE('',*,*,#395,.F.);
#531=ORIENTED_EDGE('',*,*,#348,.T.);
#532=ORIENTED_EDGE('',*,*,#397,.T.);
#533=ORIENTED_EDGE('',*,*,#336,.T.);
#534=ORIENTED_EDGE('',*,*,#323,.T.);
#535=ORIENTED_EDGE('',*,*,#397,.F.);
#536=ORIENTED_EDGE('',*,*,#347,.T.);
#537=ORIENTED_EDGE('',*,*,#398,.F.);
#538=ORIENTED_EDGE('',*,*,#337,.T.);
#539=ORIENTED_EDGE('',*,*,#338,.T.);
#540=ORIENTED_EDGE('',*,*,#398,.T.);
#541=ORIENTED_EDGE('',*,*,#346,.T.);
#542=ORIENTED_EDGE('',*,*,#399,.T.);
#543=ORIENTED_EDGE('',*,*,#378,.F.);
#544=ORIENTED_EDGE('',*,*,#400,.T.);
#545=ORIENTED_EDGE('',*,*,#401,.F.);
#546=ORIENTED_EDGE('',*,*,#400,.F.);
#547=ORIENTED_EDGE('',*,*,#401,.T.);
#548=ORIENTED_EDGE('',*,*,#402,.T.);
#549=ORIENTED_EDGE('',*,*,#403,.F.);
#550=ORIENTED_EDGE('',*,*,#402,.F.);
#551=ORIENTED_EDGE('',*,*,#350,.F.);
#552=ORIENTED_EDGE('',*,*,#339,.F.);
#553=ORIENTED_EDGE('',*,*,#399,.F.);
#554=ORIENTED_EDGE('',*,*,#345,.F.);
#555=ORIENTED_EDGE('',*,*,#327,.F.);
#556=ORIENTED_EDGE('',*,*,#356,.F.);
#557=ORIENTED_EDGE('',*,*,#387,.F.);
#558=ORIENTED_EDGE('',*,*,#384,.T.);
#559=ORIENTED_EDGE('',*,*,#370,.F.);
#560=ORIENTED_EDGE('',*,*,#404,.T.);
#561=ORIENTED_EDGE('',*,*,#368,.F.);
#562=ORIENTED_EDGE('',*,*,#351,.F.);
#563=ORIENTED_EDGE('',*,*,#329,.F.);
#564=ORIENTED_EDGE('',*,*,#333,.F.);
#565=ORIENTED_EDGE('',*,*,#405,.T.);
#566=ORIENTED_EDGE('',*,*,#391,.T.);
#567=ORIENTED_EDGE('',*,*,#396,.T.);
#568=ORIENTED_EDGE('',*,*,#394,.T.);
#569=ORIENTED_EDGE('',*,*,#383,.F.);
#570=ORIENTED_EDGE('',*,*,#376,.T.);
#571=ORIENTED_EDGE('',*,*,#389,.F.);
#572=ORIENTED_EDGE('',*,*,#366,.F.);
#573=ORIENTED_EDGE('',*,*,#403,.T.);
#574=ORIENTED_EDGE('',*,*,#379,.T.);
#575=ORIENTED_EDGE('',*,*,#392,.F.);
#576=ORIENTED_EDGE('',*,*,#405,.F.);
#577=ORIENTED_EDGE('',*,*,#393,.F.);
#578=ORIENTED_EDGE('',*,*,#369,.F.);
#579=ORIENTED_EDGE('',*,*,#404,.F.);
#580=ORIENTED_EDGE('',*,*,#372,.F.);
#581=ORIENTED_EDGE('',*,*,#363,.F.);
#582=CYLINDRICAL_SURFACE('',#654,0.5);
#583=CYLINDRICAL_SURFACE('',#658,0.5);
#584=CYLINDRICAL_SURFACE('',#661,0.5);
#585=CYLINDRICAL_SURFACE('',#664,0.5);
#586=CYLINDRICAL_SURFACE('',#674,0.5);
#587=CYLINDRICAL_SURFACE('',#685,2.);
#588=CYLINDRICAL_SURFACE('',#686,2.);
#589=CYLINDRICAL_SURFACE('',#688,2.);
#590=CYLINDRICAL_SURFACE('',#690,2.);
#591=CYLINDRICAL_SURFACE('',#692,2.);
#592=CYLINDRICAL_SURFACE('',#699,1.);
#593=CYLINDRICAL_SURFACE('',#704,0.5);
#594=CYLINDRICAL_SURFACE('',#706,0.5);
#595=CYLINDRICAL_SURFACE('',#709,3.5);
#596=ADVANCED_FACE('',(#42),#582,.F.);
#597=ADVANCED_FACE('',(#43),#24,.T.);
#598=ADVANCED_FACE('',(#44),#583,.F.);
#599=ADVANCED_FACE('',(#45),#584,.F.);
#600=ADVANCED_FACE('',(#46),#585,.F.);
#601=ADVANCED_FACE('',(#47),#25,.T.);
#602=ADVANCED_FACE('',(#48),#26,.T.);
#603=ADVANCED_FACE('',(#49),#27,.T.);
#604=ADVANCED_FACE('',(#50),#586,.T.);
#605=ADVANCED_FACE('',(#51),#28,.T.);
#606=ADVANCED_FACE('',(#52),#20,.T.);
#607=ADVANCED_FACE('',(#53),#21,.T.);
#608=ADVANCED_FACE('',(#54),#587,.T.);
#609=ADVANCED_FACE('',(#55),#588,.T.);
#610=ADVANCED_FACE('',(#56),#589,.T.);
#611=ADVANCED_FACE('',(#57),#590,.T.);
#612=ADVANCED_FACE('',(#58),#591,.T.);
#613=ADVANCED_FACE('',(#59,#16,#17),#29,.F.);
#614=ADVANCED_FACE('',(#60),#30,.T.);
#615=ADVANCED_FACE('',(#61),#31,.T.);
#616=ADVANCED_FACE('',(#62),#592,.T.);
#617=ADVANCED_FACE('',(#63),#32,.T.);
#618=ADVANCED_FACE('',(#64),#33,.T.);
#619=ADVANCED_FACE('',(#65),#34,.T.);
#620=ADVANCED_FACE('',(#66),#35,.T.);
#621=ADVANCED_FACE('',(#67),#593,.T.);
#622=ADVANCED_FACE('',(#68),#36,.T.);
#623=ADVANCED_FACE('',(#69),#594,.T.);
#624=ADVANCED_FACE('',(#70),#15,.F.);
#625=ADVANCED_FACE('',(#71),#595,.F.);
#626=ADVANCED_FACE('',(#72),#37,.T.);
#627=ADVANCED_FACE('',(#73,#18),#38,.T.);
#628=ADVANCED_FACE('',(#74,#19),#39,.T.);
#629=ADVANCED_FACE('',(#75),#40,.T.);
#630=ADVANCED_FACE('',(#76),#41,.T.);
#631=CLOSED_SHELL('',(#596,#597,#598,#599,#600,#601,#602,#603,#604,#605,
#606,#607,#608,#609,#610,#611,#612,#613,#614,#615,#616,#617,#618,#619,#620,
#621,#622,#623,#624,#625,#626,#627,#628,#629,#630));
#632=DERIVED_UNIT_ELEMENT(#635,1.);
#633=DERIVED_UNIT_ELEMENT(#1087,-3.);
#634=DIMENSIONAL_EXPONENTS(0.,1.,0.,0.,0.,0.,0.);
#635=(
CONVERSION_BASED_UNIT('gram',#637)
MASS_UNIT()
NAMED_UNIT(#634)
);
#636=(
MASS_UNIT()
NAMED_UNIT(*)
SI_UNIT(.KILO.,.GRAM.)
);
#637=MASS_MEASURE_WITH_UNIT(MASS_MEASURE(0.001),#636);
#638=DERIVED_UNIT((#632,#633));
#639=MEASURE_REPRESENTATION_ITEM('density measure',
POSITIVE_RATIO_MEASURE(1.),#638);
#640=PROPERTY_DEFINITION_REPRESENTATION(#645,#642);
#641=PROPERTY_DEFINITION_REPRESENTATION(#646,#643);
#642=REPRESENTATION('material name',(#644),#1084);
#643=REPRESENTATION('density',(#639),#1084);
#644=DESCRIPTIVE_REPRESENTATION_ITEM('Gen\X\E9rico','Gen\X\E9rico');
#645=PROPERTY_DEFINITION('material property','material name',#1094);
#646=PROPERTY_DEFINITION('material property','density of part',#1094);
#647=DATE_TIME_ROLE('creation_date');
#648=APPLIED_DATE_AND_TIME_ASSIGNMENT(#649,#647,(#1094));
#649=DATE_AND_TIME(#650,#651);
#650=CALENDAR_DATE(2026,17,4);
#651=LOCAL_TIME(0,0,0.,#652);
#652=COORDINATED_UNIVERSAL_TIME_OFFSET(0,0,.BEHIND.);
#653=AXIS2_PLACEMENT_3D('',#903,#716,#717);
#654=AXIS2_PLACEMENT_3D('',#904,#718,#719);
#655=AXIS2_PLACEMENT_3D('',#907,#720,#721);
#656=AXIS2_PLACEMENT_3D('',#911,#723,#724);
#657=AXIS2_PLACEMENT_3D('',#913,#726,#727);
#658=AXIS2_PLACEMENT_3D('',#919,#731,#732);
#659=AXIS2_PLACEMENT_3D('',#924,#734,#735);
#660=AXIS2_PLACEMENT_3D('',#927,#737,#738);
#661=AXIS2_PLACEMENT_3D('',#928,#739,#740);
#662=AXIS2_PLACEMENT_3D('',#933,#742,#743);
#663=AXIS2_PLACEMENT_3D('',#936,#745,#746);
#664=AXIS2_PLACEMENT_3D('',#937,#747,#748);
#665=AXIS2_PLACEMENT_3D('',#940,#751,#752);
#666=AXIS2_PLACEMENT_3D('',#943,#754,#755);
#667=AXIS2_PLACEMENT_3D('',#947,#757,#758);
#668=AXIS2_PLACEMENT_3D('',#951,#760,#761);
#669=AXIS2_PLACEMENT_3D('',#953,#763,#764);
#670=AXIS2_PLACEMENT_3D('',#955,#766,#767);
#671=AXIS2_PLACEMENT_3D('',#959,#769,#770);
#672=AXIS2_PLACEMENT_3D('',#963,#772,#773);
#673=AXIS2_PLACEMENT_3D('',#966,#775,#776);
#674=AXIS2_PLACEMENT_3D('',#967,#777,#778);
#675=AXIS2_PLACEMENT_3D('',#970,#781,#782);
#676=AXIS2_PLACEMENT_3D('',#980,#787,#788);
#677=AXIS2_PLACEMENT_3D('',#982,#790,#791);
#678=AXIS2_PLACEMENT_3D('',#985,#792,#793);
#679=AXIS2_PLACEMENT_3D('',#987,#794,#795);
#680=AXIS2_PLACEMENT_3D('',#988,#796,#797);
#681=AXIS2_PLACEMENT_3D('',#989,#798,#799);
#682=AXIS2_PLACEMENT_3D('',#991,#800,#801);
#683=AXIS2_PLACEMENT_3D('',#993,#802,#803);
#684=AXIS2_PLACEMENT_3D('',#994,#804,#805);
#685=AXIS2_PLACEMENT_3D('',#995,#806,#807);
#686=AXIS2_PLACEMENT_3D('',#998,#810,#811);
#687=AXIS2_PLACEMENT_3D('',#1001,#812,#813);
#688=AXIS2_PLACEMENT_3D('',#1004,#816,#817);
#689=AXIS2_PLACEMENT_3D('',#1006,#818,#819);
#690=AXIS2_PLACEMENT_3D('',#1008,#821,#822);
#691=AXIS2_PLACEMENT_3D('',#1011,#823,#824);
#692=AXIS2_PLACEMENT_3D('',#1014,#827,#828);
#693=AXIS2_PLACEMENT_3D('',#1017,#829,#830);
#694=AXIS2_PLACEMENT_3D('',#1022,#834,#835);
#695=AXIS2_PLACEMENT_3D('',#1025,#837,#838);
#696=AXIS2_PLACEMENT_3D('',#1034,#843,#844);
#697=AXIS2_PLACEMENT_3D('',#1036,#846,#847);
#698=AXIS2_PLACEMENT_3D('',#1040,#849,#850);
#699=AXIS2_PLACEMENT_3D('',#1042,#852,#853);
#700=AXIS2_PLACEMENT_3D('',#1045,#856,#857);
#701=AXIS2_PLACEMENT_3D('',#1047,#859,#860);
#702=AXIS2_PLACEMENT_3D('',#1053,#864,#865);
#703=AXIS2_PLACEMENT_3D('',#1059,#869,#870);
#704=AXIS2_PLACEMENT_3D('',#1061,#872,#873);
#705=AXIS2_PLACEMENT_3D('',#1063,#875,#876);
#706=AXIS2_PLACEMENT_3D('',#1065,#878,#879);
#707=AXIS2_PLACEMENT_3D('',#1067,#881,#882);
#708=AXIS2_PLACEMENT_3D('',#1070,#884,#885);
#709=AXIS2_PLACEMENT_3D('',#1071,#886,#887);
#710=AXIS2_PLACEMENT_3D('',#1074,#889,#890);
#711=AXIS2_PLACEMENT_3D('',#1075,#891,#892);
#712=AXIS2_PLACEMENT_3D('',#1076,#893,#894);
#713=AXIS2_PLACEMENT_3D('',#1079,#897,#898);
#714=AXIS2_PLACEMENT_3D('',#1080,#899,#900);
#715=AXIS2_PLACEMENT_3D('',#1081,#901,#902);
#716=DIRECTION('axis',(0.,0.,1.));
#717=DIRECTION('refdir',(1.,0.,0.));
#718=DIRECTION('center_axis',(-2.92163953848725E-16,0.,1.));
#719=DIRECTION('ref_axis',(0.707106781186546,0.707106781186549,0.));
#720=DIRECTION('center_axis',(0.,1.11022302462516E-15,-1.));
#721=DIRECTION('ref_axis',(0.707106781186546,0.707106781186549,0.));
#722=DIRECTION('',(-2.92163953848725E-16,0.,1.));
#723=DIRECTION('center_axis',(0.,0.,1.));
#724=DIRECTION('ref_axis',(0.707106781186546,0.707106781186549,0.));
#725=DIRECTION('',(2.92163953848725E-16,0.,-1.));
#726=DIRECTION('center_axis',(-1.,0.,-2.92163953848725E-16));
#727=DIRECTION('ref_axis',(2.92163953848725E-16,0.,-1.));
#728=DIRECTION('',(0.,-1.,0.));
#729=DIRECTION('',(2.92163953848725E-16,0.,-1.));
#730=DIRECTION('',(0.,-1.,0.));
#731=DIRECTION('center_axis',(0.,1.,0.));
#732=DIRECTION('ref_axis',(-0.707106781186541,0.,-0.707106781186554));
#733=DIRECTION('',(0.,1.,0.));
#734=DIRECTION('center_axis',(0.,1.,0.));
#735=DIRECTION('ref_axis',(-0.707106781186541,0.,-0.707106781186554));
#736=DIRECTION('',(0.,-1.,0.));
#737=DIRECTION('center_axis',(0.,-0.707106781186546,-0.707106781186549));
#738=DIRECTION('ref_axis',(0.,-0.707106781186549,0.707106781186546));
#739=DIRECTION('center_axis',(0.,-1.,-1.11022302462516E-15));
#740=DIRECTION('ref_axis',(-0.707106781186548,0.,0.707106781186548));
#741=DIRECTION('',(0.,1.,1.11022302462516E-15));
#742=DIRECTION('center_axis',(0.,1.,0.));
#743=DIRECTION('ref_axis',(-0.707106781186548,0.,0.707106781186548));
#744=DIRECTION('',(0.,-1.,-1.11022302462516E-15));
#745=DIRECTION('center_axis',(0.,-0.707106781186548,0.707106781186547));
#746=DIRECTION('ref_axis',(0.,0.707106781186547,0.707106781186548));
#747=DIRECTION('center_axis',(0.,0.,1.));
#748=DIRECTION('ref_axis',(-0.707106781186546,0.707106781186549,0.));
#749=DIRECTION('',(0.,0.,-1.));
#750=DIRECTION('',(0.,0.,1.));
#751=DIRECTION('center_axis',(0.,0.,1.));
#752=DIRECTION('ref_axis',(0.,-1.,0.));
#753=DIRECTION('',(1.,0.,0.));
#754=DIRECTION('center_axis',(0.,0.,-1.));
#755=DIRECTION('ref_axis',(-0.707106781186546,-0.707106781186549,0.));
#756=DIRECTION('',(-1.,0.,0.));
#757=DIRECTION('center_axis',(0.,0.,-1.));
#758=DIRECTION('ref_axis',(0.707106781186546,-0.707106781186549,0.));
#759=DIRECTION('',(0.,1.,0.));
#760=DIRECTION('center_axis',(0.,0.,-1.));
#761=DIRECTION('ref_axis',(0.707106781186546,0.707106781186549,0.));
#762=DIRECTION('',(1.,0.,0.));
#763=DIRECTION('center_axis',(0.,-1.,0.));
#764=DIRECTION('ref_axis',(0.,0.,-1.));
#765=DIRECTION('',(1.,0.,0.));
#766=DIRECTION('center_axis',(0.,1.11022302462516E-15,-1.));
#767=DIRECTION('ref_axis',(0.,1.,1.11022302462516E-15));
#768=DIRECTION('',(-1.,0.,0.));
#769=DIRECTION('center_axis',(0.,-1.11022302462516E-15,1.));
#770=DIRECTION('ref_axis',(0.707106781186546,0.707106781186549,0.));
#771=DIRECTION('',(0.,-1.,0.));
#772=DIRECTION('center_axis',(0.,-1.11022302462516E-15,1.));
#773=DIRECTION('ref_axis',(0.707106781186546,-0.707106781186549,0.));
#774=DIRECTION('',(1.,0.,0.));
#775=DIRECTION('center_axis',(0.,-1.11022302462516E-15,1.));
#776=DIRECTION('ref_axis',(-0.707106781186546,-0.707106781186549,0.));
#777=DIRECTION('center_axis',(0.,0.,-1.));
#778=DIRECTION('ref_axis',(0.707106781186546,0.707106781186549,0.));
#779=DIRECTION('',(0.,0.,1.));
#780=DIRECTION('',(0.,0.,-1.));
#781=DIRECTION('center_axis',(0.,1.,0.));
#782=DIRECTION('ref_axis',(0.,0.,1.));
#783=DIRECTION('',(0.,0.,-1.));
#784=DIRECTION('',(1.,0.,0.));
#785=DIRECTION('',(0.,0.,-1.));
#786=DIRECTION('',(1.,0.,0.));
#787=DIRECTION('center_axis',(0.,1.,0.));
#788=DIRECTION('ref_axis',(0.,0.,1.));
#789=DIRECTION('',(0.,0.,-1.));
#790=DIRECTION('center_axis',(0.408248290463863,-0.816496580927726,0.408248290463863));
#791=DIRECTION('ref_axis',(-0.577350269189626,-0.577350269189626,-0.577350269189626));
#792=DIRECTION('center_axis',(0.,0.,-1.));
#793=DIRECTION('ref_axis',(-1.,0.,0.));
#794=DIRECTION('center_axis',(0.,-1.,0.));
#795=DIRECTION('ref_axis',(0.,0.,-1.));
#796=DIRECTION('center_axis',(-1.,0.,0.));
#797=DIRECTION('ref_axis',(0.,-1.,0.));
#798=DIRECTION('center_axis',(-0.408248290463862,-0.816496580927726,-0.408248290463863));
#799=DIRECTION('ref_axis',(-0.577350269189626,0.577350269189625,-0.577350269189626));
#800=DIRECTION('center_axis',(-1.,-5.55111512312578E-16,0.));
#801=DIRECTION('ref_axis',(0.,0.,-1.));
#802=DIRECTION('center_axis',(0.,1.,0.));
#803=DIRECTION('ref_axis',(-1.,0.,0.));
#804=DIRECTION('center_axis',(0.,0.,-1.));
#805=DIRECTION('ref_axis',(0.,1.,0.));
#806=DIRECTION('center_axis',(0.,1.,0.));
#807=DIRECTION('ref_axis',(-0.707106781186547,0.,-0.707106781186548));
#808=DIRECTION('',(0.,-1.,0.));
#809=DIRECTION('',(0.,1.,0.));
#810=DIRECTION('center_axis',(0.,0.,1.));
#811=DIRECTION('ref_axis',(-0.707106781186548,0.707106781186548,0.));
#812=DIRECTION('center_axis',(0.,0.,-1.));
#813=DIRECTION('ref_axis',(-0.707106781186548,0.707106781186548,0.));
#814=DIRECTION('',(0.,0.,-1.));
#815=DIRECTION('',(0.,0.,1.));
#816=DIRECTION('center_axis',(-1.,0.,0.));
#817=DIRECTION('ref_axis',(0.,0.707106781186548,-0.707106781186548));
#818=DIRECTION('center_axis',(-1.,0.,0.));
#819=DIRECTION('ref_axis',(0.,0.707106781186548,-0.707106781186548));
#820=DIRECTION('',(-1.,0.,0.));
#821=DIRECTION('center_axis',(1.,0.,0.));
#822=DIRECTION('ref_axis',(0.,-0.707106781186546,-0.707106781186549));
#823=DIRECTION('center_axis',(-1.,0.,0.));
#824=DIRECTION('ref_axis',(0.,-0.707106781186546,-0.707106781186549));
#825=DIRECTION('',(-1.,0.,0.));
#826=DIRECTION('',(1.,0.,0.));
#827=DIRECTION('center_axis',(0.,0.,1.));
#828=DIRECTION('ref_axis',(-0.707106781186549,-0.707106781186546,0.));
#829=DIRECTION('center_axis',(0.,0.,-1.));
#830=DIRECTION('ref_axis',(-0.707106781186549,-0.707106781186546,0.));
#831=DIRECTION('',(0.,0.,-1.));
#832=DIRECTION('',(0.,0.,1.));
#833=DIRECTION('',(0.,0.,-1.));
#834=DIRECTION('center_axis',(1.,0.,0.));
#835=DIRECTION('ref_axis',(0.,0.,-1.));
#836=DIRECTION('',(0.,1.,0.));
#837=DIRECTION('center_axis',(1.,0.,0.));
#838=DIRECTION('ref_axis',(0.,0.,1.));
#839=DIRECTION('',(0.,0.,1.));
#840=DIRECTION('',(0.,-1.,0.));
#841=DIRECTION('',(0.,0.,-1.));
#842=DIRECTION('',(0.,1.,0.));
#843=DIRECTION('center_axis',(0.,0.,1.));
#844=DIRECTION('ref_axis',(0.,-1.,0.));
#845=DIRECTION('',(0.,1.,0.));
#846=DIRECTION('center_axis',(0.,-1.,0.));
#847=DIRECTION('ref_axis',(0.,0.,-1.));
#848=DIRECTION('',(0.,0.,-1.));
#849=DIRECTION('center_axis',(0.,1.,0.));
#850=DIRECTION('ref_axis',(0.707106781186548,0.,0.707106781186548));
#851=DIRECTION('',(1.,0.,0.));
#852=DIRECTION('center_axis',(0.,-1.,0.));
#853=DIRECTION('ref_axis',(0.707106781186548,0.,0.707106781186548));
#854=DIRECTION('',(0.,1.,0.));
#855=DIRECTION('',(0.,-1.,0.));
#856=DIRECTION('center_axis',(0.,0.,1.));
#857=DIRECTION('ref_axis',(0.,-1.,0.));
#858=DIRECTION('',(0.,-1.,0.));
#859=DIRECTION('center_axis',(-0.0232495277487638,0.,-0.999729693196846));
#860=DIRECTION('ref_axis',(-0.999729693196846,0.,0.0232495277487638));
#861=DIRECTION('',(-0.999729693196846,0.,0.0232495277487638));
#862=DIRECTION('',(0.,1.,0.));
#863=DIRECTION('',(0.999729693196846,0.,-0.0232495277487638));
#864=DIRECTION('center_axis',(-0.0232495277487639,0.,0.999729693196846));
#865=DIRECTION('ref_axis',(0.999729693196846,0.,0.0232495277487639));
#866=DIRECTION('',(-0.999729693196846,0.,-0.0232495277487639));
#867=DIRECTION('',(0.,-1.,0.));
#868=DIRECTION('',(0.999729693196846,0.,0.0232495277487639));
#869=DIRECTION('center_axis',(0.,-1.,0.));
#870=DIRECTION('ref_axis',(0.,0.,-1.));
#871=DIRECTION('',(0.,0.,-1.));
#872=DIRECTION('center_axis',(2.92163953848725E-16,0.,-1.));
#873=DIRECTION('ref_axis',(-0.707106781186546,-0.707106781186549,0.));
#874=DIRECTION('',(-2.92163953848725E-16,0.,1.));
#875=DIRECTION('center_axis',(0.,-1.,0.));
#876=DIRECTION('ref_axis',(0.,0.,-1.));
#877=DIRECTION('',(0.,0.,-1.));
#878=DIRECTION('center_axis',(0.,0.,1.));
#879=DIRECTION('ref_axis',(0.707106781186546,-0.707106781186549,0.));
#880=DIRECTION('',(0.,0.,1.));
#881=DIRECTION('center_axis',(-1.,0.,0.));
#882=DIRECTION('ref_axis',(0.,0.,1.));
#883=DIRECTION('',(0.707106781186548,8.65956056235493E-17,0.707106781186547));
#884=DIRECTION('center_axis',(-1.,0.,0.));
#885=DIRECTION('ref_axis',(0.,0.,1.));
#886=DIRECTION('center_axis',(-1.,0.,0.));
#887=DIRECTION('ref_axis',(0.,0.,1.));
#888=DIRECTION('',(1.,0.,0.));
#889=DIRECTION('center_axis',(-1.,0.,0.));
#890=DIRECTION('ref_axis',(0.,0.,1.));
#891=DIRECTION('center_axis',(1.,0.,0.));
#892=DIRECTION('ref_axis',(0.,0.,-1.));
#893=DIRECTION('center_axis',(1.,0.,0.));
#894=DIRECTION('ref_axis',(0.,0.,-1.));
#895=DIRECTION('',(0.,1.,0.));
#896=DIRECTION('',(0.,0.,1.));
#897=DIRECTION('center_axis',(1.,0.,0.));
#898=DIRECTION('ref_axis',(0.,0.,-1.));
#899=DIRECTION('center_axis',(0.,1.,0.));
#900=DIRECTION('ref_axis',(0.,0.,1.));
#901=DIRECTION('center_axis',(0.,0.,-1.));
#902=DIRECTION('ref_axis',(0.,1.,0.));
#903=CARTESIAN_POINT('',(0.,0.,0.));
#904=CARTESIAN_POINT('Origin',(26.2,2.5,51.));
#905=CARTESIAN_POINT('',(26.2,3.,13.));
#906=CARTESIAN_POINT('',(26.7,2.5,13.));
#907=CARTESIAN_POINT('Origin',(26.2,2.5,13.));
#908=CARTESIAN_POINT('',(26.7,2.5,51.));
#909=CARTESIAN_POINT('',(26.7,2.5,51.));
#910=CARTESIAN_POINT('',(26.2,3.,51.));
#911=CARTESIAN_POINT('Origin',(26.2,2.5,51.));
#912=CARTESIAN_POINT('',(26.2,3.,51.));
#913=CARTESIAN_POINT('Origin',(26.7,3.,51.));
#914=CARTESIAN_POINT('',(26.7,0.499999999999999,13.));
#915=CARTESIAN_POINT('',(26.7,3.,13.));
#916=CARTESIAN_POINT('',(26.7,0.499999999999999,51.));
#917=CARTESIAN_POINT('',(26.7,0.499999999999999,41.5));
#918=CARTESIAN_POINT('',(26.7,3.,51.));
#919=CARTESIAN_POINT('Origin',(22.,-9.45,51.5));
#920=CARTESIAN_POINT('',(22.,3.,51.));
#921=CARTESIAN_POINT('',(22.,7.,51.));
#922=CARTESIAN_POINT('',(22.,-9.45,51.));
#923=CARTESIAN_POINT('',(21.5,7.,51.5));
#924=CARTESIAN_POINT('Origin',(22.,7.,51.5));
#925=CARTESIAN_POINT('',(21.5,2.5,51.5));
#926=CARTESIAN_POINT('',(21.5,-9.45,51.5));
#927=CARTESIAN_POINT('Origin',(22.,2.5,51.5));
#928=CARTESIAN_POINT('Origin',(22.,-10.45,12.5));
#929=CARTESIAN_POINT('',(21.5,2.5,12.5));
#930=CARTESIAN_POINT('',(21.5,7.,12.5));
#931=CARTESIAN_POINT('',(21.5,-10.45,12.5));
#932=CARTESIAN_POINT('',(22.,7.,13.));
#933=CARTESIAN_POINT('Origin',(22.,7.00000000000002,12.5));
#934=CARTESIAN_POINT('',(22.,3.,13.));
#935=CARTESIAN_POINT('',(22.,-10.45,13.));
#936=CARTESIAN_POINT('Origin',(22.,2.5,12.5));
#937=CARTESIAN_POINT('Origin',(22.,2.5,37.5));
#938=CARTESIAN_POINT('',(21.5,2.5,37.5));
#939=CARTESIAN_POINT('',(22.,3.,37.5));
#940=CARTESIAN_POINT('Origin',(21.5,5.,51.));
#941=CARTESIAN_POINT('',(21.5,3.,51.));
#942=CARTESIAN_POINT('',(27.2,-5.55111512312578E-16,51.));
#943=CARTESIAN_POINT('Origin',(27.2,0.499999999999999,51.));
#944=CARTESIAN_POINT('',(28.,-5.55111512312578E-16,51.));
#945=CARTESIAN_POINT('',(28.5,-5.55111512312578E-16,51.));
#946=CARTESIAN_POINT('',(28.5,0.499999999999999,51.));
#947=CARTESIAN_POINT('Origin',(28.,0.499999999999999,51.));
#948=CARTESIAN_POINT('',(28.5,6.5,51.));
#949=CARTESIAN_POINT('',(28.5,5.,51.));
#950=CARTESIAN_POINT('',(28.,7.,51.));
#951=CARTESIAN_POINT('Origin',(28.,6.5,51.));
#952=CARTESIAN_POINT('',(21.5,7.,51.));
#953=CARTESIAN_POINT('Origin',(21.5,3.,51.));
#954=CARTESIAN_POINT('',(21.5,3.,13.));
#955=CARTESIAN_POINT('Origin',(21.5,3.,13.));
#956=CARTESIAN_POINT('',(28.,7.,13.));
#957=CARTESIAN_POINT('',(28.5,7.,13.));
#958=CARTESIAN_POINT('',(28.5,6.5,13.));
#959=CARTESIAN_POINT('Origin',(28.,6.5,13.));
#960=CARTESIAN_POINT('',(28.5,0.499999999999999,13.));
#961=CARTESIAN_POINT('',(28.5,3.,13.));
#962=CARTESIAN_POINT('',(28.,-5.55111512312578E-16,13.));
#963=CARTESIAN_POINT('Origin',(28.,0.499999999999999,13.));
#964=CARTESIAN_POINT('',(27.2,-5.55111512312578E-16,13.));
#965=CARTESIAN_POINT('',(21.5,-5.55111512312578E-16,13.));
#966=CARTESIAN_POINT('Origin',(27.2,0.499999999999999,13.));
#967=CARTESIAN_POINT('Origin',(28.,6.5,31.75));
#968=CARTESIAN_POINT('',(28.,7.,31.75));
#969=CARTESIAN_POINT('',(28.5,6.5,31.75));
#970=CARTESIAN_POINT('Origin',(14.25,7.,31.5));
#971=CARTESIAN_POINT('',(21.5,7.,-3.));
#972=CARTESIAN_POINT('',(21.5,7.,13.));
#973=CARTESIAN_POINT('',(2.,7.,-3.));
#974=CARTESIAN_POINT('',(7.125,7.,-3.));
#975=CARTESIAN_POINT('',(2.,7.,53.));
#976=CARTESIAN_POINT('',(2.,7.,27.75));
#977=CARTESIAN_POINT('',(20.5,7.,53.));
#978=CARTESIAN_POINT('',(2.,7.,53.));
#979=CARTESIAN_POINT('',(21.5,7.,52.));
#980=CARTESIAN_POINT('Origin',(20.5,7.,52.));
#981=CARTESIAN_POINT('',(21.5,7.,52.));
#982=CARTESIAN_POINT('Origin',(2.,-50.8,-3.));
#983=CARTESIAN_POINT('',(0.,-50.8,-3.));
#984=CARTESIAN_POINT('',(2.,-52.8,-3.));
#985=CARTESIAN_POINT('Origin',(2.,-50.8,-3.));
#986=CARTESIAN_POINT('',(2.,-50.8,-5.));
#987=CARTESIAN_POINT('Origin',(2.,-50.8,-3.));
#988=CARTESIAN_POINT('Origin',(2.,-50.8,-3.));
#989=CARTESIAN_POINT('Origin',(2.,5.,-3.));
#990=CARTESIAN_POINT('',(2.,5.,-5.));
#991=CARTESIAN_POINT('Origin',(2.,5.,-3.));
#992=CARTESIAN_POINT('',(0.,5.,-3.));
#993=CARTESIAN_POINT('Origin',(2.,5.,-3.));
#994=CARTESIAN_POINT('Origin',(2.,5.,-3.));
#995=CARTESIAN_POINT('Origin',(2.,-38.35,-3.));
#996=CARTESIAN_POINT('',(2.,-38.35,-5.));
#997=CARTESIAN_POINT('',(0.,-38.35,-3.));
#998=CARTESIAN_POINT('Origin',(2.,5.,27.75));
#999=CARTESIAN_POINT('',(0.,5.,68.));
#1000=CARTESIAN_POINT('',(2.,7.,68.));
#1001=CARTESIAN_POINT('Origin',(2.,5.,68.));
#1002=CARTESIAN_POINT('',(2.,7.,68.));
#1003=CARTESIAN_POINT('',(0.,5.,27.75));
#1004=CARTESIAN_POINT('Origin',(7.125,5.,-3.));
#1005=CARTESIAN_POINT('',(21.5,5.,-5.));
#1006=CARTESIAN_POINT('Origin',(21.5,5.,-3.));
#1007=CARTESIAN_POINT('',(7.125,5.,-5.));
#1008=CARTESIAN_POINT('Origin',(0.,-50.8,-3.));
#1009=CARTESIAN_POINT('',(21.5,-50.8,-5.));
#1010=CARTESIAN_POINT('',(21.5,-52.8,-3.));
#1011=CARTESIAN_POINT('Origin',(21.5,-50.8,-3.));
#1012=CARTESIAN_POINT('',(0.,-52.8,-3.));
#1013=CARTESIAN_POINT('',(0.,-50.8,-5.));
#1014=CARTESIAN_POINT('Origin',(2.,-50.8,38.5));
#1015=CARTESIAN_POINT('',(2.,-52.8,68.));
#1016=CARTESIAN_POINT('',(0.,-50.8,68.));
#1017=CARTESIAN_POINT('Origin',(2.,-50.8,68.));
#1018=CARTESIAN_POINT('',(0.,-50.8,38.5));
#1019=CARTESIAN_POINT('',(2.,-52.8,53.));
#1020=CARTESIAN_POINT('',(2.,-52.8,38.5));
#1021=CARTESIAN_POINT('',(2.,-52.8,53.));
#1022=CARTESIAN_POINT('Origin',(0.,-23.9,24.));
#1023=CARTESIAN_POINT('',(0.,-52.8,68.));
#1024=CARTESIAN_POINT('',(-1.73472347597681E-15,-37.5,56.));
#1025=CARTESIAN_POINT('Origin',(0.,-37.5,60.5));
#1026=CARTESIAN_POINT('',(0.,-47.8,0.));
#1027=CARTESIAN_POINT('',(0.,-47.8,48.));
#1028=CARTESIAN_POINT('',(0.,-47.8,0.));
#1029=CARTESIAN_POINT('',(0.,0.,0.));
#1030=CARTESIAN_POINT('',(0.,-35.85,0.));
#1031=CARTESIAN_POINT('',(0.,0.,48.));
#1032=CARTESIAN_POINT('',(0.,0.,48.));
#1033=CARTESIAN_POINT('',(0.,-11.95,48.));
#1034=CARTESIAN_POINT('Origin',(0.,5.,68.));
#1035=CARTESIAN_POINT('',(2.,5.,68.));
#1036=CARTESIAN_POINT('Origin',(0.,-52.8,53.));
#1037=CARTESIAN_POINT('',(21.5,-52.8,52.));
#1038=CARTESIAN_POINT('',(21.5,-52.8,53.));
#1039=CARTESIAN_POINT('',(20.5,-52.8,53.));
#1040=CARTESIAN_POINT('Origin',(20.5,-52.8,52.));
#1041=CARTESIAN_POINT('',(0.,-52.8,53.));
#1042=CARTESIAN_POINT('Origin',(20.5,-9.45,52.));
#1043=CARTESIAN_POINT('',(21.5,5.,52.));
#1044=CARTESIAN_POINT('',(20.5,-9.45,53.));
#1045=CARTESIAN_POINT('Origin',(0.,5.,53.));
#1046=CARTESIAN_POINT('',(2.,-9.45,53.));
#1047=CARTESIAN_POINT('Origin',(10.75,-11.95,47.75));
#1048=CARTESIAN_POINT('',(21.5,0.,47.5));
#1049=CARTESIAN_POINT('',(5.375,1.11022302462516E-15,47.875));
#1050=CARTESIAN_POINT('',(21.5,-47.8,47.5));
#1051=CARTESIAN_POINT('',(21.5,-47.8,47.5));
#1052=CARTESIAN_POINT('',(5.93283783783784,-47.8,47.862027027027));
#1053=CARTESIAN_POINT('Origin',(10.75,-35.85,0.25));
#1054=CARTESIAN_POINT('',(21.5,-47.8,0.5));
#1055=CARTESIAN_POINT('',(5.375,-47.8,0.125));
#1056=CARTESIAN_POINT('',(21.5,0.,0.5));
#1057=CARTESIAN_POINT('',(21.5,0.,0.5));
#1058=CARTESIAN_POINT('',(5.93283783783784,-2.22044604925031E-15,0.137972972972977));
#1059=CARTESIAN_POINT('Origin',(0.,0.,48.));
#1060=CARTESIAN_POINT('',(21.5,0.,48.));
#1061=CARTESIAN_POINT('Origin',(27.2,0.499999999999999,41.5));
#1062=CARTESIAN_POINT('',(27.2,-5.55111512312578E-16,41.5));
#1063=CARTESIAN_POINT('Origin',(27.6,-5.55111512312578E-16,32.));
#1064=CARTESIAN_POINT('',(28.,-5.55111512312578E-16,32.));
#1065=CARTESIAN_POINT('Origin',(28.,0.499999999999999,32.));
#1066=CARTESIAN_POINT('',(28.5,0.499999999999999,32.));
#1067=CARTESIAN_POINT('Origin',(0.5,-37.5,60.5));
#1068=CARTESIAN_POINT('',(1.,-37.5,57.));
#1069=CARTESIAN_POINT('',(0.5,-37.5,56.5));
#1070=CARTESIAN_POINT('Origin',(0.999999999999996,-37.5,60.5));
#1071=CARTESIAN_POINT('Origin',(97.3760237430139,-37.5,60.5));
#1072=CARTESIAN_POINT('',(1.99999999999999,-37.5,57.));
#1073=CARTESIAN_POINT('',(97.3760237430139,-37.5,57.));
#1074=CARTESIAN_POINT('Origin',(1.99999999999999,-37.5,60.5));
#1075=CARTESIAN_POINT('Origin',(28.5,4.,32.));
#1076=CARTESIAN_POINT('Origin',(21.5,-23.9,24.));
#1077=CARTESIAN_POINT('',(21.5,-52.8,-5.));
#1078=CARTESIAN_POINT('',(21.5,-47.8,0.));
#1079=CARTESIAN_POINT('Origin',(2.,-23.9,60.5));
#1080=CARTESIAN_POINT('Origin',(0.,-47.8,0.));
#1081=CARTESIAN_POINT('Origin',(0.,-52.8,-5.));
#1082=UNCERTAINTY_MEASURE_WITH_UNIT(LENGTH_MEASURE(0.01),#1086,
'DISTANCE_ACCURACY_VALUE',
'Maximum model space distance between geometric entities at asserted c
onnectivities');
#1083=UNCERTAINTY_MEASURE_WITH_UNIT(LENGTH_MEASURE(0.01),#1086,
'DISTANCE_ACCURACY_VALUE',
'Maximum model space distance between geometric entities at asserted c
onnectivities');
#1084=(
GEOMETRIC_REPRESENTATION_CONTEXT(3)
GLOBAL_UNCERTAINTY_ASSIGNED_CONTEXT((#1082))
GLOBAL_UNIT_ASSIGNED_CONTEXT((#1086,#1088,#1089))
REPRESENTATION_CONTEXT('','3D')
);
#1085=(
GEOMETRIC_REPRESENTATION_CONTEXT(3)
GLOBAL_UNCERTAINTY_ASSIGNED_CONTEXT((#1083))
GLOBAL_UNIT_ASSIGNED_CONTEXT((#1086,#1088,#1089))
REPRESENTATION_CONTEXT('','3D')
);
#1086=(
LENGTH_UNIT()
NAMED_UNIT(*)
SI_UNIT(.MILLI.,.METRE.)
);
#1087=(
LENGTH_UNIT()
NAMED_UNIT(*)
SI_UNIT(.CENTI.,.METRE.)
);
#1088=(
NAMED_UNIT(*)
PLANE_ANGLE_UNIT()
SI_UNIT($,.RADIAN.)
);
#1089=(
NAMED_UNIT(*)
SI_UNIT($,.STERADIAN.)
SOLID_ANGLE_UNIT()
);
#1090=SHAPE_DEFINITION_REPRESENTATION(#1091,#1092);
#1091=PRODUCT_DEFINITION_SHAPE('',$,#1094);
#1092=SHAPE_REPRESENTATION('',(#653),#1084);
#1093=PRODUCT_DEFINITION_CONTEXT('part definition',#1098,'design');
#1094=PRODUCT_DEFINITION('cajetinparaestructura','cajetinparapantalla',
#1095,#1093);
#1095=PRODUCT_DEFINITION_FORMATION('',$,#1100);
#1096=PRODUCT_RELATED_PRODUCT_CATEGORY('cajetinparapantalla',
'cajetinparapantalla',(#1100));
#1097=APPLICATION_PROTOCOL_DEFINITION('international standard',
'automotive_design',2009,#1098);
#1098=APPLICATION_CONTEXT(
'Core Data for Automotive Mechanical Design Process');
#1099=PRODUCT_CONTEXT('part definition',#1098,'mechanical');
#1100=PRODUCT('cajetinparaestructura','cajetinparapantalla',$,(#1099));
#1101=PRESENTATION_STYLE_ASSIGNMENT((#1102));
#1102=SURFACE_STYLE_USAGE(.BOTH.,#1105);
#1103=SURFACE_STYLE_RENDERING_WITH_PROPERTIES($,#1109,(#1104));
#1104=SURFACE_STYLE_TRANSPARENT(0.);
#1105=SURFACE_SIDE_STYLE('',(#1106,#1103));
#1106=SURFACE_STYLE_FILL_AREA(#1107);
#1107=FILL_AREA_STYLE('',(#1108));
#1108=FILL_AREA_STYLE_COLOUR('',#1109);
#1109=COLOUR_RGB('',0.749019607843137,0.749019607843137,0.749019607843137);
ENDSEC;
END-ISO-10303-21;
