# WaveFront *.obj file (generated by Autodesk ATF)

mtllib cajetinparapantalla.mtl

g Sólido1

v 0.000000 -50.799999 -3.000000
v 0.000000 -50.799999 68.000002
v 0.000000 -47.800002 0.000000
v 0.000000 -47.800002 48.000002
v 0.000000 -41.954198 59.859581
v 0.000000 -41.954198 61.140418
v 0.000000 -41.593342 58.630633
v 0.000000 -41.593342 62.369366
v 0.000000 -40.900874 57.553124
v 0.000000 -40.900874 63.446875
v 0.000000 -39.932883 56.714358
v 0.000000 -39.932883 64.285641
v 0.000000 -38.767796 56.182280
v 0.000000 -38.767796 64.817719
v 0.000000 -37.500000 55.999999
v 0.000000 -37.500000 65.000000
v 0.000000 -36.232204 56.182280
v 0.000000 -36.232204 64.817719
v 0.000000 -35.067117 56.714358
v 0.000000 -35.067117 64.285641
v 0.000000 -34.099126 57.553124
v 0.000000 -34.099126 63.446875
v 0.000000 -33.406656 58.630633
v 0.000000 -33.406656 62.369366
v 0.000000 -33.045805 59.859581
v 0.000000 -33.045805 61.140418
v 0.000000 0.000000 0.000000
v 0.000000 0.000000 48.000002
v 0.000000 5.000000 -3.000000
v 0.000000 5.000000 68.000002
v 0.152241 -51.565366 -3.000000
v 0.152241 -51.565366 68.000002
v 0.152241 -50.799999 -3.765367
v 0.152241 5.000000 -3.765367
v 0.152241 5.765367 -3.000000
v 0.152241 5.765367 68.000002
v 0.210893 -51.456637 -3.606564
v 0.210893 5.656639 -3.606564
v 0.512354 -52.104335 -3.292599
v 0.512354 6.304336 -3.292599
v 0.585786 -52.214212 -3.000000
v 0.585786 -52.214212 68.000002
v 0.585786 -50.799999 -4.414214
v 0.585786 5.000000 -4.414214
v 0.585786 6.414214 -3.000000
v 0.585786 6.414214 68.000002
v 0.693437 -51.565366 -4.306563
v 0.693437 5.765367 -4.306563
v 1.000000 -52.214212 -4.000000
v 1.000000 -40.988045 60.210972
v 1.000000 -40.892901 61.359200
v 1.000000 -40.705209 59.094067
v 1.000000 -40.430083 62.414317
v 1.000000 -40.075035 58.129516
v 1.000000 -39.649744 63.261991
v 1.000000 -39.165816 57.421842
v 1.000000 -38.636448 63.810358
v 1.000000 -38.076081 57.047734
v 1.000000 -37.500000 64.000001
v 1.000000 -36.923919 57.047734
v 1.000000 -36.363552 63.810358
v 1.000000 -35.834184 57.421842
v 1.000000 -35.350256 63.261991
v 1.000000 -34.924967 58.129516
v 1.000000 -34.569917 62.414317
v 1.000000 -34.294794 59.094067
v 1.000000 -34.107099 61.359200
v 1.000000 -34.011955 60.210972
v 1.000000 6.414214 -4.000000
v 1.234633 -52.647758 -3.000000
v 1.234633 -52.647758 68.000002
v 1.234633 -50.799999 -4.847759
v 1.234633 5.000000 -4.847759
v 1.234633 6.847759 -3.000000
v 1.234633 6.847759 68.000002
v 1.393436 -51.456637 -4.789107
v 1.393436 5.656639 -4.789107
v 1.458804 -52.647758 -3.541196
v 1.458804 6.847759 -3.541196
v 1.707401 -52.104335 -4.487647
v 1.707401 6.304336 -4.487647
v 2.000000 -52.800002 -3.000000
v 2.000000 -52.800002 53.000002
v 2.000000 -52.800002 68.000002
v 2.000000 -52.647758 -3.765367
v 2.000000 -52.214212 -4.414214
v 2.000000 -51.565366 -4.847759
v 2.000000 -50.799999 -5.000000
v 2.000000 -40.988045 60.789027
v 2.000000 -40.892901 59.640799
v 2.000000 -40.705209 61.905932
v 2.000000 -40.430083 58.585682
v 2.000000 -40.075035 62.870483
v 2.000000 -39.649744 57.738008
v 2.000000 -39.165816 63.578157
v 2.000000 -38.636448 57.189641
v 2.000000 -38.076081 63.952265
v 2.000000 -37.500000 56.999998
v 2.000000 -36.923919 63.952265
v 2.000000 -36.363552 57.189641
v 2.000000 -35.834184 63.578157
v 2.000000 -35.350256 57.738008
v 2.000000 -34.924967 62.870483
v 2.000000 -34.569917 58.585682
v 2.000000 -34.294794 61.905932
v 2.000000 -34.107099 59.640799
v 2.000000 -34.011955 60.789027
v 2.000000 5.000000 -5.000000
v 2.000000 5.765367 -4.847759
v 2.000000 6.414214 -4.414214
v 2.000000 6.847759 -3.765367
v 2.000000 7.000000 -3.000000
v 2.000000 7.000000 53.000002
v 2.000000 7.000000 68.000002
v 20.500000 -52.800002 53.000002
v 20.500000 7.000000 53.000002
v 20.999999 -52.800002 52.866025
v 20.999999 7.000000 52.866025
v 21.366026 -52.800002 52.500000
v 21.366026 7.000000 52.500000
v 21.500001 -52.800002 -3.000000
v 21.500001 -52.800002 51.999998
v 21.500001 -52.647758 -3.765367
v 21.500001 -52.214212 -4.414214
v 21.500001 -51.565366 -4.847759
v 21.500001 -50.799999 -5.000000
v 21.500001 -47.800002 0.500000
v 21.500001 -47.800002 47.500000
v 21.500001 0.000000 0.500000
v 21.500001 0.000000 47.500000
v 21.500001 2.500000 12.500000
v 21.500001 2.500000 51.500001
v 21.500001 5.000000 -5.000000
v 21.500001 5.765367 -4.847759
v 21.500001 6.414214 -4.414214
v 21.500001 6.847759 -3.765367
v 21.500001 7.000000 -3.000000
v 21.500001 7.000000 12.500000
v 21.500001 7.000000 51.500001
v 21.500001 7.000000 51.999998
v 21.566987 7.000000 12.750000
v 21.566987 7.000000 51.250000
v 21.646447 2.853553 12.853553
v 21.646447 2.853553 51.146445
v 21.750000 7.000000 12.933012
v 21.750000 7.000000 51.066985
v 21.808658 2.961940 12.961940
v 21.808658 2.961940 51.038060
v 22.000000 3.000000 13.000000
v 22.000000 3.000000 50.999999
v 22.000000 7.000000 13.000000
v 22.000000 7.000000 50.999999
v 26.199999 3.000000 13.000000
v 26.199999 3.000000 50.999999
v 26.450000 2.933013 13.000000
v 26.450000 2.933013 50.999999
v 26.633012 2.750000 13.000000
v 26.633012 2.750000 50.999999
v 26.700001 0.500000 13.000000
v 26.700001 0.500000 50.999999
v 26.700001 2.500000 13.000000
v 26.700001 2.500000 50.999999
v 26.766987 0.250000 13.000000
v 26.766987 0.250000 50.999999
v 26.949999 0.066987 13.000000
v 26.949999 0.066987 50.999999
v 27.200000 0.000000 13.000000
v 27.200000 0.000000 50.999999
v 28.000000 0.000000 13.000000
v 28.000000 0.000000 50.999999
v 28.000000 7.000000 13.000000
v 28.000000 7.000000 50.999999
v 28.250000 0.066987 13.000000
v 28.250000 0.066987 50.999999
v 28.250000 6.933013 13.000000
v 28.250000 6.933013 50.999999
v 28.433013 0.250000 13.000000
v 28.433013 0.250000 50.999999
v 28.433013 6.750000 13.000000
v 28.433013 6.750000 50.999999
v 28.499999 0.500000 13.000000
v 28.499999 0.500000 50.999999
v 28.499999 6.500000 13.000000
v 28.499999 6.500000 50.999999
vt -3.800000 0.039270 0.000000
vt -3.800000 0.013090 0.000000
vt -3.800000 -0.013090 0.000000
vt -3.800000 -0.039270 0.000000
vt 0.000000 -0.039270 0.000000
vt 0.000000 -0.013090 0.000000
vt 0.000000 0.013090 0.000000
vt 0.000000 0.039270 0.000000
vt 0.000000 0.050000 0.000000
vt 3.800000 0.050000 0.000000
vt 3.800000 0.250000 0.000000
vt 0.000000 0.250000 0.000000
vt 1.245000 -0.039270 0.000000
vt 1.645000 -0.039270 0.000000
vt 1.645000 -0.013090 0.000000
vt 1.645000 0.013090 0.000000
vt 1.645000 0.039270 0.000000
vt 1.195000 0.039270 0.000000
vt 1.230355 0.000000 0.000000
vt 1.241194 -0.019635 0.000000
vt -1.295000 0.039270 0.000000
vt -1.745000 0.039270 0.000000
vt -1.745000 0.013090 0.000000
vt -1.745000 -0.013090 0.000000
vt -1.745000 -0.039270 0.000000
vt -1.345000 -0.039270 0.000000
vt -1.341194 -0.019635 0.000000
vt -1.330355 0.000000 0.000000
vt 1.400000 0.039270 0.000000
vt -2.500000 0.039270 0.000000
vt -2.464645 0.000000 0.000000
vt -2.453806 -0.019635 0.000000
vt -2.450000 -0.039270 0.000000
vt 1.350000 -0.039270 0.000000
vt 1.353806 -0.019635 0.000000
vt 1.364645 0.000000 0.000000
vt -0.200000 0.050000 0.000000
vt 0.200000 0.050000 0.000000
vt 0.200000 0.470000 0.000000
vt 0.206699 0.495000 0.000000
vt 0.225000 0.513301 0.000000
vt 0.250000 0.520000 0.000000
vt 0.450000 0.520000 0.000000
vt 0.475000 0.526699 0.000000
vt 0.493301 0.545000 0.000000
vt 0.500000 0.570000 0.000000
vt 0.500000 0.650000 0.000000
vt 0.493301 0.675000 0.000000
vt 0.475000 0.693301 0.000000
vt 0.450000 0.700000 0.000000
vt -0.150000 0.700000 0.000000
vt -0.175000 0.693301 0.000000
vt -0.193301 0.675000 0.000000
vt -0.200000 0.650000 0.000000
vt 3.800000 0.470000 0.000000
vt 0.000000 0.470000 0.000000
vt 0.000000 0.050000 0.000000
vt 3.800000 0.050000 0.000000
vt 0.000000 0.050000 0.000000
vt 0.400000 0.050000 0.000000
vt 0.400000 0.650000 0.000000
vt 0.393301 0.675000 0.000000
vt 0.375000 0.693301 0.000000
vt 0.350000 0.700000 0.000000
vt -0.250000 0.700000 0.000000
vt -0.275000 0.693301 0.000000
vt -0.293301 0.675000 0.000000
vt -0.300000 0.650000 0.000000
vt -0.300000 0.570000 0.000000
vt -0.293301 0.545000 0.000000
vt -0.275000 0.526699 0.000000
vt -0.250000 0.520000 0.000000
vt -0.050000 0.520000 0.000000
vt -0.025000 0.513301 0.000000
vt -0.006699 0.495000 0.000000
vt 0.000000 0.470000 0.000000
vt -1.875000 0.039270 0.000000
vt -1.875000 0.013090 0.000000
vt -1.875000 -0.013090 0.000000
vt -1.875000 -0.039270 0.000000
vt 1.925000 -0.039270 0.000000
vt 1.925000 -0.013090 0.000000
vt 1.925000 0.013090 0.000000
vt 1.925000 0.039270 0.000000
vt 1.950000 1.375000 0.000000
vt -1.850000 1.375000 0.000000
vt -1.850000 0.775000 0.000000
vt -1.856699 0.750000 0.000000
vt -1.875000 0.731699 0.000000
vt -1.900000 0.725000 0.000000
vt -3.450000 0.725000 0.000000
vt -3.450000 -1.225000 0.000000
vt 2.150000 -1.225000 0.000000
vt 2.150000 0.625000 0.000000
vt 2.136603 0.675000 0.000000
vt 2.100000 0.711603 0.000000
vt 2.050000 0.725000 0.000000
vt 2.000000 0.725000 0.000000
vt 1.975000 0.731699 0.000000
vt 1.956699 0.750000 0.000000
vt 1.950000 0.775000 0.000000
vt -0.191063 0.000000 0.000000
vt -0.128229 -0.067892 0.000000
vt -0.058569 -0.108311 0.000000
vt 0.012952 -0.140689 0.000000
vt 0.084107 -0.174663 0.000000
vt 0.112524 -0.092543 0.000000
vt 0.123096 0.000000 0.000000
vt 0.112524 0.092543 0.000000
vt 0.084107 0.174663 0.000000
vt 0.012952 0.140689 0.000000
vt -0.058569 0.108311 0.000000
vt -0.128229 0.067892 0.000000
vt 0.044556 0.000000 0.000000
vt -0.033984 0.000000 0.000000
vt -0.112524 0.000000 0.000000
vt -0.033984 -0.087332 0.000000
vt 0.044556 -0.087332 0.000000
vt 0.044556 0.087332 0.000000
vt -0.033984 0.087332 0.000000
vt 0.191063 0.000000 0.000000
vt 0.128229 0.067892 0.000000
vt 0.058569 0.108311 0.000000
vt -0.012952 0.140689 0.000000
vt -0.084107 0.174663 0.000000
vt -0.112524 0.092543 0.000000
vt -0.123096 0.000000 0.000000
vt -0.112524 -0.092543 0.000000
vt -0.084107 -0.174663 0.000000
vt -0.012952 -0.140689 0.000000
vt 0.058569 -0.108311 0.000000
vt 0.128229 -0.067892 0.000000
vt -0.044556 0.000000 0.000000
vt 0.033984 0.000000 0.000000
vt 0.112524 0.000000 0.000000
vt 0.033984 0.087332 0.000000
vt -0.044556 0.087332 0.000000
vt -0.044556 -0.087332 0.000000
vt 0.033984 -0.087332 0.000000
vt -4.335000 0.157080 0.000000
vt -4.335000 0.078540 0.000000
vt -4.335000 0.000000 0.000000
vt -4.335000 -0.078540 0.000000
vt -4.335000 -0.157080 0.000000
vt 1.245000 -0.157080 0.000000
vt 1.245000 -0.078540 0.000000
vt 1.245000 0.000000 0.000000
vt 1.245000 0.078540 0.000000
vt 1.245000 0.157080 0.000000
vt -4.025000 0.157080 0.000000
vt -4.025000 0.078540 0.000000
vt -4.025000 0.000000 0.000000
vt -4.025000 -0.078540 0.000000
vt -4.025000 -0.157080 0.000000
vt -2.525000 -0.157080 0.000000
vt 3.075000 -0.157080 0.000000
vt 3.075000 -0.078540 0.000000
vt 3.075000 0.000000 0.000000
vt 3.075000 0.078540 0.000000
vt 3.075000 0.157080 0.000000
vt 1.437500 -0.157080 0.000000
vt 1.437500 -0.078540 0.000000
vt 1.437500 0.000000 0.000000
vt 1.437500 0.078540 0.000000
vt 1.437500 0.157080 0.000000
vt -0.512500 0.157080 0.000000
vt -0.512500 0.078540 0.000000
vt -0.512500 0.000000 0.000000
vt -0.512500 -0.078540 0.000000
vt -0.512500 -0.157080 0.000000
vt -2.150000 0.157080 0.000000
vt -2.150000 0.078540 0.000000
vt -2.150000 0.000000 0.000000
vt -2.150000 -0.078540 0.000000
vt -2.150000 -0.157080 0.000000
vt -0.200000 -0.157080 0.000000
vt -0.200000 -0.078540 0.000000
vt -0.200000 0.000000 0.000000
vt -0.200000 0.078540 0.000000
vt -0.200000 0.157080 0.000000
vt -2.950000 0.157080 0.000000
vt -2.950000 0.078540 0.000000
vt -2.950000 0.000000 0.000000
vt -2.950000 -0.078540 0.000000
vt -2.950000 -0.157080 0.000000
vt 4.150000 -0.157080 0.000000
vt 4.150000 -0.078540 0.000000
vt 4.150000 0.000000 0.000000
vt 4.150000 0.078540 0.000000
vt 4.150000 0.157080 0.000000
vt -1.450000 0.157080 0.000000
vt 4.400000 2.890000 0.000000
vt -2.700000 2.890000 0.000000
vt -2.700000 -2.690000 0.000000
vt 4.400000 -2.690000 0.000000
vt 4.100000 -1.360000 0.000000
vt 4.081772 -1.486780 0.000000
vt 4.028564 -1.603288 0.000000
vt 3.944687 -1.700087 0.000000
vt 3.836937 -1.769334 0.000000
vt 3.714042 -1.805420 0.000000
vt 3.585958 -1.805420 0.000000
vt 3.463063 -1.769334 0.000000
vt 3.355313 -1.700087 0.000000
vt 3.271436 -1.603288 0.000000
vt 3.218228 -1.486780 0.000000
vt 3.200000 -1.360000 0.000000
vt 3.218228 -1.233220 0.000000
vt 3.271436 -1.116712 0.000000
vt 3.355313 -1.019913 0.000000
vt 3.463063 -0.950666 0.000000
vt 3.585958 -0.914580 0.000000
vt 3.714042 -0.914580 0.000000
vt 3.836937 -0.950666 0.000000
vt 3.944687 -1.019913 0.000000
vt 4.028564 -1.116712 0.000000
vt 4.081772 -1.233220 0.000000
vt 2.400000 -2.390000 0.000000
vt -2.400000 -2.390000 0.000000
vt -2.400000 2.390000 0.000000
vt 2.400000 2.390000 0.000000
vt -0.200000 0.200000 0.000000
vt -0.184776 0.123463 0.000000
vt -0.141421 0.058579 0.000000
vt -0.076537 0.015224 0.000000
vt 0.000000 0.000000 0.000000
vt 5.580000 0.000000 0.000000
vt 5.656537 0.015224 0.000000
vt 5.721421 0.058579 0.000000
vt 5.764776 0.123463 0.000000
vt 5.780000 0.200000 0.000000
vt 0.000000 0.200000 0.000000
vt 5.600000 0.200000 0.000000
vt 5.600000 2.150000 0.000000
vt 0.100000 2.150000 0.000000
vt 0.050000 2.136603 0.000000
vt 0.013397 2.100000 0.000000
vt 0.000000 2.050000 0.000000
vt -4.335000 0.078540 0.000000
vt -4.335000 0.026180 0.000000
vt -4.335000 -0.026180 0.000000
vt -4.335000 -0.078540 0.000000
vt 1.645000 -0.078540 0.000000
vt 1.645000 -0.026180 0.000000
vt 1.645000 0.026180 0.000000
vt 1.645000 0.078540 0.000000
vt 5.780000 2.050000 0.000000
vt -0.200000 2.050000 0.000000
vt -0.200000 0.200000 0.000000
vt 5.780000 0.200000 0.000000
vt 1.075291 1.195000 0.000000
vt -1.075291 1.195000 0.000000
vt -1.075291 -3.585000 0.000000
vt 1.075291 -3.585000 0.000000
vt -1.075291 -1.195000 0.000000
vt 1.075291 -1.195000 0.000000
vt 1.075291 3.585000 0.000000
vt -1.075291 3.585000 0.000000
vt 4.750000 2.150000 0.000000
vt 0.050000 2.150000 0.000000
vt 0.000000 0.000000 0.000000
vt 4.800000 0.000000 0.000000
vt -2.850000 0.039270 0.000000
vt -2.850000 0.013090 0.000000
vt -2.850000 -0.013090 0.000000
vt -2.850000 -0.039270 0.000000
vt 0.950000 -0.039270 0.000000
vt 0.950000 -0.013090 0.000000
vt 0.950000 0.013090 0.000000
vt 0.950000 0.039270 0.000000
vt -1.900000 -0.040000 0.000000
vt 1.900000 -0.040000 0.000000
vt 1.900000 0.040000 0.000000
vt -1.900000 0.040000 0.000000
vt -1.900000 0.039270 0.000000
vt -1.900000 0.013090 0.000000
vt -1.900000 -0.013090 0.000000
vt -1.900000 -0.039270 0.000000
vt 1.900000 -0.039270 0.000000
vt 1.900000 -0.013090 0.000000
vt 1.900000 0.013090 0.000000
vt 1.900000 0.039270 0.000000
vt 0.070711 0.000000 0.000000
vt 0.070711 0.114240 0.000000
vt 0.070711 0.228479 0.000000
vt 0.070711 0.342719 0.000000
vt 0.070711 0.456959 0.000000
vt 0.070711 0.571199 0.000000
vt 0.070711 0.685438 0.000000
vt 0.070711 0.799678 0.000000
vt 0.070711 0.913918 0.000000
vt 0.070711 1.028158 0.000000
vt 0.070711 1.142397 0.000000
vt 0.070711 -1.256637 0.000000
vt 0.070711 -1.142397 0.000000
vt 0.070711 -1.028158 0.000000
vt 0.070711 -0.913918 0.000000
vt 0.070711 -0.799678 0.000000
vt 0.070711 -0.685438 0.000000
vt 0.070711 -0.571199 0.000000
vt 0.070711 -0.456959 0.000000
vt 0.070711 -0.342719 0.000000
vt 0.070711 -0.228479 0.000000
vt 0.070711 -0.114240 0.000000
vt -0.070711 0.000000 0.000000
vt -0.070711 -0.132278 0.000000
vt -0.070711 -0.264555 0.000000
vt -0.070711 -0.396833 0.000000
vt -0.070711 -0.529110 0.000000
vt -0.070711 -0.661388 0.000000
vt -0.070711 -0.793666 0.000000
vt -0.070711 -0.925943 0.000000
vt -0.070711 -1.058221 0.000000
vt -0.070711 1.322776 0.000000
vt -0.070711 1.190498 0.000000
vt -0.070711 1.058221 0.000000
vt -0.070711 0.925943 0.000000
vt -0.070711 0.793666 0.000000
vt -0.070711 0.661388 0.000000
vt -0.070711 0.529110 0.000000
vt -0.070711 0.396833 0.000000
vt -0.070711 0.264555 0.000000
vt -0.070711 0.132278 0.000000
vt 0.070711 1.256637 0.000000
vt 0.070711 1.256637 0.000000
vt -0.070711 -1.190498 0.000000
vt -0.070711 -1.190498 0.000000
vt 9.637602 0.000000 0.000000
vt 9.637602 0.115743 0.000000
vt 9.637602 0.231486 0.000000
vt 9.637602 0.347229 0.000000
vt 9.637602 0.462972 0.000000
vt 9.637602 0.578714 0.000000
vt 9.637602 0.694457 0.000000
vt 9.637602 0.810200 0.000000
vt 9.637602 0.925943 0.000000
vt 9.637602 -1.157429 0.000000
vt 9.637602 -1.041686 0.000000
vt 9.637602 -0.925943 0.000000
vt 9.637602 -0.810200 0.000000
vt 9.637602 -0.694457 0.000000
vt 9.637602 -0.578714 0.000000
vt 9.637602 -0.462972 0.000000
vt 9.637602 -0.347229 0.000000
vt 9.637602 -0.231486 0.000000
vt 9.637602 -0.115743 0.000000
vt 9.537602 1.099557 0.000000
vt 9.537602 0.983815 0.000000
vt 9.537602 0.868072 0.000000
vt 9.537602 0.752329 0.000000
vt 9.537602 0.636586 0.000000
vt 9.537602 0.520843 0.000000
vt 9.537602 0.405100 0.000000
vt 9.537602 0.289357 0.000000
vt 9.537602 0.173614 0.000000
vt 9.537602 0.057871 0.000000
vt 9.537602 -0.057871 0.000000
vt 9.537602 -0.173614 0.000000
vt 9.537602 -0.289357 0.000000
vt 9.537602 -0.405100 0.000000
vt 9.537602 -0.520843 0.000000
vt 9.537602 -0.636586 0.000000
vt 9.537602 -0.752329 0.000000
vt 9.537602 -0.868072 0.000000
vt 9.537602 -0.983815 0.000000
vt 9.537602 -1.099557 0.000000
vt 9.537602 -1.099557 0.000000
vt 9.637602 1.041686 0.000000
vt 9.637602 1.041686 0.000000
vt 1.900000 0.250000 0.000000
vt -1.900000 0.250000 0.000000
vt -1.900000 -0.350000 0.000000
vt 1.900000 -0.350000 0.000000
vt -2.750000 2.640000 0.000000
vt -2.750000 3.090000 0.000000
vt -2.800000 3.090000 0.000000
vt -2.800000 -2.890000 0.000000
vt 2.700000 -2.890000 0.000000
vt 2.776537 -2.874776 0.000000
vt 2.841421 -2.831421 0.000000
vt 2.884776 -2.766537 0.000000
vt 2.900000 -2.690000 0.000000
vt 2.900000 2.890000 0.000000
vt 2.884776 2.966537 0.000000
vt 2.841421 3.031421 0.000000
vt 2.776537 3.074776 0.000000
vt 2.700000 3.090000 0.000000
vt 1.150000 3.090000 0.000000
vt 1.150000 2.640000 0.000000
vt 2.350000 -2.390000 0.000000
vt -2.350000 -2.390000 0.000000
vt -2.350000 2.390000 0.000000
vt 2.350000 2.390000 0.000000
vt 0.350000 -1.360000 0.000000
vt 0.331036 -1.473645 0.000000
vt 0.276199 -1.574974 0.000000
vt 0.191432 -1.653008 0.000000
vt 0.085920 -1.699290 0.000000
vt -0.028903 -1.708805 0.000000
vt -0.140593 -1.680521 0.000000
vt -0.237049 -1.617503 0.000000
vt -0.307816 -1.526582 0.000000
vt -0.345226 -1.417608 0.000000
vt -0.345226 -1.302392 0.000000
vt -0.307816 -1.193418 0.000000
vt -0.237049 -1.102497 0.000000
vt -0.140593 -1.039479 0.000000
vt -0.028903 -1.011195 0.000000
vt 0.085920 -1.020710 0.000000
vt 0.191432 -1.066992 0.000000
vt 0.276199 -1.145025 0.000000
vt 0.331036 -1.246355 0.000000
vt -0.750000 3.090000 0.000000
vt -0.750000 -2.890000 0.000000
vt 0.750000 -2.890000 0.000000
vt 0.750000 3.090000 0.000000
vt 0.000000 0.000000 0.000000
vt 4.800000 0.000000 0.000000
vt 4.750000 2.150000 0.000000
vt 0.050000 2.150000 0.000000
vt 5.780000 0.200000 0.000000
vt 5.780000 2.150000 0.000000
vt 0.200000 2.150000 0.000000
vt 0.200000 0.200000 0.000000
vn 0.000000 -0.100000 0.000000
vn -0.050000 -0.086603 0.000000
vn -0.086603 -0.050000 0.000000
vn -0.100000 0.000000 0.000000
vn -0.100000 0.000000 0.000000
vn -0.086603 -0.050000 0.000000
vn -0.050000 -0.086603 0.000000
vn 0.000000 -0.100000 0.000000
vn -0.100000 0.000000 0.000000
vn -0.100000 0.000000 0.000000
vn -0.100000 0.000000 0.000000
vn -0.100000 0.000000 0.000000
vn 0.000000 0.000000 0.100000
vn 0.000000 0.000000 0.100000
vn 0.050000 0.000000 0.086603
vn 0.086603 0.000000 0.050000
vn 0.100000 0.000000 0.000000
vn 0.100000 0.000000 0.000000
vn 0.070711 0.000000 0.070711
vn 0.038268 0.000000 0.092388
vn 0.100000 0.000000 0.000000
vn 0.100000 0.000000 0.000000
vn 0.086603 0.000000 -0.050000
vn 0.050000 0.000000 -0.086603
vn 0.000000 0.000000 -0.100000
vn 0.000000 0.000000 -0.100000
vn 0.038268 0.000000 -0.092388
vn 0.070711 0.000000 -0.070711
vn 0.100000 0.000000 0.000000
vn 0.100000 0.000000 0.000000
vn 0.070711 -0.070711 0.000000
vn 0.038268 -0.092388 0.000000
vn 0.000000 -0.100000 0.000000
vn 0.000000 -0.100000 0.000000
vn 0.038268 -0.092388 0.000000
vn 0.070711 -0.070711 0.000000
vn 0.000000 0.000000 0.100000
vn 0.000000 0.000000 0.100000
vn 0.000000 0.000000 0.100000
vn 0.000000 0.000000 0.100000
vn 0.000000 0.000000 0.100000
vn 0.000000 0.000000 0.100000
vn 0.000000 0.000000 0.100000
vn 0.000000 0.000000 0.100000
vn 0.000000 0.000000 0.100000
vn 0.000000 0.000000 0.100000
vn 0.000000 0.000000 0.100000
vn 0.000000 0.000000 0.100000
vn 0.000000 0.000000 0.100000
vn 0.000000 0.000000 0.100000
vn 0.000000 0.000000 0.100000
vn 0.000000 0.000000 0.100000
vn 0.000000 0.000000 0.100000
vn 0.000000 0.000000 0.100000
vn 0.000000 -0.100000 0.000000
vn 0.000000 -0.100000 0.000000
vn 0.000000 -0.100000 0.000000
vn 0.000000 -0.100000 0.000000
vn 0.000000 0.000000 -0.100000
vn 0.000000 0.000000 -0.100000
vn 0.000000 0.000000 -0.100000
vn 0.000000 0.000000 -0.100000
vn 0.000000 0.000000 -0.100000
vn 0.000000 0.000000 -0.100000
vn 0.000000 0.000000 -0.100000
vn 0.000000 0.000000 -0.100000
vn 0.000000 0.000000 -0.100000
vn 0.000000 0.000000 -0.100000
vn 0.000000 0.000000 -0.100000
vn 0.000000 0.000000 -0.100000
vn 0.000000 0.000000 -0.100000
vn 0.000000 0.000000 -0.100000
vn 0.000000 0.000000 -0.100000
vn 0.000000 0.000000 -0.100000
vn 0.000000 0.000000 -0.100000
vn 0.000000 0.000000 -0.100000
vn 0.100000 0.000000 0.000000
vn 0.086603 0.050000 0.000000
vn 0.050000 0.086603 0.000000
vn 0.000000 0.100000 0.000000
vn 0.000000 0.100000 0.000000
vn 0.050000 0.086603 0.000000
vn 0.086603 0.050000 0.000000
vn 0.100000 0.000000 0.000000
vn 0.000000 0.100000 0.000000
vn 0.000000 0.100000 0.000000
vn 0.000000 0.100000 0.000000
vn 0.000000 0.100000 0.000000
vn 0.000000 0.100000 0.000000
vn 0.000000 0.100000 0.000000
vn 0.000000 0.100000 0.000000
vn 0.000000 0.100000 0.000000
vn 0.000000 0.100000 0.000000
vn 0.000000 0.100000 0.000000
vn 0.000000 0.100000 0.000000
vn 0.000000 0.100000 0.000000
vn 0.000000 0.100000 0.000000
vn 0.000000 0.100000 0.000000
vn 0.000000 0.100000 0.000000
vn 0.000000 0.100000 0.000000
vn 0.000000 0.100000 0.000000
vn 0.000000 -0.100000 0.000000
vn -0.038268 -0.092388 0.000000
vn -0.070711 -0.070711 0.000000
vn -0.092388 -0.038268 0.000000
vn -0.100000 0.000000 0.000000
vn -0.092388 0.000000 -0.038268
vn -0.070711 0.000000 -0.070711
vn -0.038268 0.000000 -0.092388
vn 0.000000 0.000000 -0.100000
vn 0.000000 -0.038268 -0.092388
vn 0.000000 -0.070711 -0.070711
vn 0.000000 -0.092388 -0.038268
vn -0.065328 -0.038268 -0.065328
vn -0.050000 -0.070711 -0.050000
vn -0.027060 -0.092388 -0.027060
vn -0.074382 -0.065217 -0.014630
vn -0.089455 -0.032832 -0.030328
vn -0.030328 -0.032832 -0.089455
vn -0.014630 -0.065217 -0.074382
vn 0.000000 0.100000 0.000000
vn 0.000000 0.092388 -0.038268
vn 0.000000 0.070711 -0.070711
vn 0.000000 0.038268 -0.092388
vn 0.000000 0.000000 -0.100000
vn -0.038268 0.000000 -0.092388
vn -0.070711 0.000000 -0.070711
vn -0.092388 0.000000 -0.038268
vn -0.100000 0.000000 0.000000
vn -0.092388 0.038268 0.000000
vn -0.070711 0.070711 0.000000
vn -0.038268 0.092388 0.000000
vn -0.065328 0.038268 -0.065328
vn -0.050000 0.070711 -0.050000
vn -0.027060 0.092388 -0.027060
vn -0.014630 0.065217 -0.074382
vn -0.030328 0.032832 -0.089455
vn -0.089455 0.032832 -0.030328
vn -0.074382 0.065217 -0.014630
vn -0.100000 0.000000 0.000000
vn -0.092388 0.000000 -0.038268
vn -0.070711 0.000000 -0.070711
vn -0.038268 0.000000 -0.092388
vn 0.000000 0.000000 -0.100000
vn 0.000000 0.000000 -0.100000
vn -0.038268 0.000000 -0.092388
vn -0.070711 0.000000 -0.070711
vn -0.092388 0.000000 -0.038268
vn -0.100000 0.000000 0.000000
vn -0.100000 0.000000 0.000000
vn -0.092388 0.038268 0.000000
vn -0.070711 0.070711 0.000000
vn -0.038268 0.092388 0.000000
vn 0.000000 0.100000 0.000000
vn 0.000000 0.100000 0.000000
vn 0.000000 0.100000 0.000000
vn -0.038268 0.092388 0.000000
vn -0.070711 0.070711 0.000000
vn -0.092388 0.038268 0.000000
vn -0.100000 0.000000 0.000000
vn 0.000000 0.100000 0.000000
vn 0.000000 0.092388 -0.038268
vn 0.000000 0.070711 -0.070711
vn 0.000000 0.038268 -0.092388
vn 0.000000 0.000000 -0.100000
vn 0.000000 0.000000 -0.100000
vn 0.000000 0.038268 -0.092388
vn 0.000000 0.070711 -0.070711
vn 0.000000 0.092388 -0.038268
vn 0.000000 0.100000 0.000000
vn 0.000000 0.000000 -0.100000
vn 0.000000 -0.038268 -0.092388
vn 0.000000 -0.070711 -0.070711
vn 0.000000 -0.092388 -0.038268
vn 0.000000 -0.100000 0.000000
vn 0.000000 -0.100000 0.000000
vn 0.000000 -0.092388 -0.038268
vn 0.000000 -0.070711 -0.070711
vn 0.000000 -0.038268 -0.092388
vn 0.000000 0.000000 -0.100000
vn 0.000000 -0.100000 0.000000
vn -0.038268 -0.092388 0.000000
vn -0.070711 -0.070711 0.000000
vn -0.092388 -0.038268 0.000000
vn -0.100000 0.000000 0.000000
vn -0.100000 0.000000 0.000000
vn -0.092388 -0.038268 0.000000
vn -0.070711 -0.070711 0.000000
vn -0.038268 -0.092388 0.000000
vn 0.000000 -0.100000 0.000000
vn 0.000000 -0.100000 0.000000
vn -0.100000 0.000000 0.000000
vn -0.100000 0.000000 0.000000
vn -0.100000 0.000000 0.000000
vn -0.100000 0.000000 0.000000
vn -0.100000 0.000000 0.000000
vn -0.100000 0.000000 0.000000
vn -0.100000 0.000000 0.000000
vn -0.100000 0.000000 0.000000
vn -0.100000 0.000000 0.000000
vn -0.100000 0.000000 0.000000
vn -0.100000 0.000000 0.000000
vn -0.100000 0.000000 0.000000
vn -0.100000 0.000000 0.000000
vn -0.100000 0.000000 0.000000
vn -0.100000 0.000000 0.000000
vn -0.100000 0.000000 0.000000
vn -0.100000 0.000000 0.000000
vn -0.100000 0.000000 0.000000
vn -0.100000 0.000000 0.000000
vn -0.100000 0.000000 0.000000
vn -0.100000 0.000000 0.000000
vn -0.100000 0.000000 0.000000
vn -0.100000 0.000000 0.000000
vn -0.100000 0.000000 0.000000
vn -0.100000 0.000000 0.000000
vn -0.100000 0.000000 0.000000
vn -0.100000 0.000000 0.000000
vn -0.100000 0.000000 0.000000
vn -0.100000 0.000000 0.000000
vn -0.100000 0.000000 0.000000
vn 0.000000 0.000000 0.100000
vn 0.000000 0.000000 0.100000
vn 0.000000 0.000000 0.100000
vn 0.000000 0.000000 0.100000
vn 0.000000 0.000000 0.100000
vn 0.000000 0.000000 0.100000
vn 0.000000 0.000000 0.100000
vn 0.000000 0.000000 0.100000
vn 0.000000 0.000000 0.100000
vn 0.000000 0.000000 0.100000
vn 0.000000 -0.100000 0.000000
vn 0.000000 -0.100000 0.000000
vn 0.000000 -0.100000 0.000000
vn 0.000000 -0.100000 0.000000
vn 0.000000 -0.100000 0.000000
vn 0.000000 -0.100000 0.000000
vn 0.000000 -0.100000 0.000000
vn 0.000000 0.000000 0.100000
vn 0.050000 0.000000 0.086603
vn 0.086603 0.000000 0.050000
vn 0.100000 0.000000 0.000000
vn 0.100000 0.000000 0.000000
vn 0.086603 0.000000 0.050000
vn 0.050000 0.000000 0.086603
vn 0.000000 0.000000 0.100000
vn 0.000000 0.000000 0.100000
vn 0.000000 0.000000 0.100000
vn 0.000000 0.000000 0.100000
vn 0.000000 0.000000 0.100000
vn -0.002325 0.000000 -0.099973
vn -0.002325 0.000000 -0.099973
vn -0.002325 0.000000 -0.099973
vn -0.002325 0.000000 -0.099973
vn -0.002325 0.000000 0.099973
vn -0.002325 0.000000 0.099973
vn -0.002325 0.000000 0.099973
vn -0.002325 0.000000 0.099973
vn 0.000000 -0.100000 0.000000
vn 0.000000 -0.100000 0.000000
vn 0.000000 -0.100000 0.000000
vn 0.000000 -0.100000 0.000000
vn -0.100000 0.000000 0.000000
vn -0.086603 -0.050000 0.000000
vn -0.050000 -0.086603 0.000000
vn 0.000000 -0.100000 0.000000
vn 0.000000 -0.100000 0.000000
vn -0.050000 -0.086603 0.000000
vn -0.086603 -0.050000 0.000000
vn -0.100000 0.000000 0.000000
vn 0.000000 -0.100000 0.000000
vn 0.000000 -0.100000 0.000000
vn 0.000000 -0.100000 0.000000
vn 0.000000 -0.100000 0.000000
vn 0.100000 0.000000 0.000000
vn 0.086603 -0.050000 0.000000
vn 0.050000 -0.086603 0.000000
vn 0.000000 -0.100000 0.000000
vn 0.000000 -0.100000 0.000000
vn 0.050000 -0.086603 0.000000
vn 0.086603 -0.050000 0.000000
vn 0.100000 0.000000 0.000000
vn -0.070711 0.000000 -0.070711
vn -0.070711 -0.019921 -0.067846
vn -0.070711 -0.038229 -0.059486
vn -0.070711 -0.053440 -0.046306
vn -0.070711 -0.064321 -0.029374
vn -0.070711 -0.069991 -0.010063
vn -0.070711 -0.069991 0.010063
vn -0.070711 -0.064321 0.029374
vn -0.070711 -0.053440 0.046306
vn -0.070711 -0.038229 0.059486
vn -0.070711 -0.019921 0.067846
vn -0.070711 0.000000 0.070711
vn -0.070711 0.019921 0.067846
vn -0.070711 0.038229 0.059486
vn -0.070711 0.053440 0.046306
vn -0.070711 0.064321 0.029374
vn -0.070711 0.069991 0.010063
vn -0.070711 0.069991 -0.010063
vn -0.070711 0.064321 -0.029374
vn -0.070711 0.053440 -0.046306
vn -0.070711 0.038229 -0.059486
vn -0.070711 0.019921 -0.067846
vn -0.070711 0.000000 -0.070711
vn -0.070711 0.022960 -0.066879
vn -0.070711 0.043431 -0.055801
vn -0.070711 0.059197 -0.038675
vn -0.070711 0.068547 -0.017358
vn -0.070711 0.070469 0.005839
vn -0.070711 0.064755 0.028404
vn -0.070711 0.052024 0.047891
vn -0.070711 0.033655 0.062188
vn -0.070711 0.011639 0.069746
vn -0.070711 -0.011639 0.069746
vn -0.070711 -0.033655 0.062188
vn -0.070711 -0.052024 0.047891
vn -0.070711 -0.064755 0.028404
vn -0.070711 -0.070469 0.005839
vn -0.070711 -0.068547 -0.017358
vn -0.070711 -0.059197 -0.038675
vn -0.070711 -0.043431 -0.055801
vn -0.070711 -0.022960 -0.066879
vn -0.070711 0.000000 0.070711
vn -0.070711 0.000000 0.070711
vn -0.070711 0.011639 0.069746
vn -0.070711 0.011639 0.069746
vn 0.000000 0.000000 -0.100000
vn 0.000000 -0.032470 -0.094582
vn 0.000000 -0.061421 -0.078914
vn 0.000000 -0.083717 -0.054695
vn 0.000000 -0.096940 -0.024549
vn 0.000000 -0.099658 0.008258
vn 0.000000 -0.091577 0.040170
vn 0.000000 -0.073572 0.067728
vn 0.000000 -0.047595 0.087947
vn 0.000000 -0.016459 0.098636
vn 0.000000 0.016459 0.098636
vn 0.000000 0.047595 0.087947
vn 0.000000 0.073572 0.067728
vn 0.000000 0.091577 0.040170
vn 0.000000 0.099658 0.008258
vn 0.000000 0.096940 -0.024549
vn 0.000000 0.083717 -0.054695
vn 0.000000 0.061421 -0.078914
vn 0.000000 0.032470 -0.094582
vn 0.000000 0.000000 0.100000
vn 0.000000 -0.032470 0.094582
vn 0.000000 -0.061421 0.078914
vn 0.000000 -0.083717 0.054695
vn 0.000000 -0.096940 0.024549
vn 0.000000 -0.099658 -0.008258
vn 0.000000 -0.091577 -0.040170
vn 0.000000 -0.073572 -0.067728
vn 0.000000 -0.047595 -0.087947
vn 0.000000 -0.016459 -0.098636
vn 0.000000 0.016459 -0.098636
vn 0.000000 0.047595 -0.087947
vn 0.000000 0.073572 -0.067728
vn 0.000000 0.091577 -0.040170
vn 0.000000 0.099658 -0.008258
vn 0.000000 0.096940 0.024549
vn 0.000000 0.083717 0.054695
vn 0.000000 0.061421 0.078914
vn 0.000000 0.032470 0.094582
vn 0.000000 0.000000 0.100000
vn 0.000000 0.000000 0.100000
vn 0.000000 -0.016459 0.098636
vn 0.000000 -0.016459 0.098636
vn 0.100000 0.000000 0.000000
vn 0.100000 0.000000 0.000000
vn 0.100000 0.000000 0.000000
vn 0.100000 0.000000 0.000000
vn 0.100000 0.000000 0.000000
vn 0.100000 0.000000 0.000000
vn 0.100000 0.000000 0.000000
vn 0.100000 0.000000 0.000000
vn 0.100000 0.000000 0.000000
vn 0.100000 0.000000 0.000000
vn 0.100000 0.000000 0.000000
vn 0.100000 0.000000 0.000000
vn 0.100000 0.000000 0.000000
vn 0.100000 0.000000 0.000000
vn 0.100000 0.000000 0.000000
vn 0.100000 0.000000 0.000000
vn 0.100000 0.000000 0.000000
vn 0.100000 0.000000 0.000000
vn 0.100000 0.000000 0.000000
vn 0.100000 0.000000 0.000000
vn 0.100000 0.000000 0.000000
vn 0.100000 0.000000 0.000000
vn 0.100000 0.000000 0.000000
vn 0.100000 0.000000 0.000000
vn 0.100000 0.000000 0.000000
vn 0.100000 0.000000 0.000000
vn 0.100000 0.000000 0.000000
vn 0.100000 0.000000 0.000000
vn 0.100000 0.000000 0.000000
vn 0.100000 0.000000 0.000000
vn 0.100000 0.000000 0.000000
vn 0.100000 0.000000 0.000000
vn 0.100000 0.000000 0.000000
vn 0.100000 0.000000 0.000000
vn 0.100000 0.000000 0.000000
vn 0.100000 0.000000 0.000000
vn 0.100000 0.000000 0.000000
vn 0.100000 0.000000 0.000000
vn 0.100000 0.000000 0.000000
vn 0.100000 0.000000 0.000000
vn 0.100000 0.000000 0.000000
vn 0.100000 0.000000 0.000000
vn 0.100000 0.000000 0.000000
vn 0.100000 0.000000 0.000000
vn 0.100000 0.000000 0.000000
vn 0.100000 0.000000 0.000000
vn 0.100000 0.000000 0.000000
vn 0.000000 0.100000 0.000000
vn 0.000000 0.100000 0.000000
vn 0.000000 0.100000 0.000000
vn 0.000000 0.100000 0.000000
vn 0.000000 0.000000 -0.100000
vn 0.000000 0.000000 -0.100000
vn 0.000000 0.000000 -0.100000
vn 0.000000 0.000000 -0.100000
usemtl 191,191,191
f 154/8/8 153/1/1 156/7/7
f 156/7/7 153/1/1 155/2/2
f 156/7/7 155/2/2 158/6/6
f 158/6/6 155/2/2 157/3/3
f 158/6/6 157/3/3 162/5/5
f 162/5/5 157/3/3 161/4/4
f 162/9/9 161/10/10 160/12/12
f 160/12/12 161/10/10 159/11/11
f 150/13/13 152/14/14 148/20/20
f 148/20/20 152/14/14 146/15/15
f 148/20/20 146/15/15 144/19/19
f 144/19/19 146/15/15 142/16/16
f 144/19/19 142/16/16 132/18/18
f 132/18/18 142/16/16 139/17/17
f 138/22/22 141/23/23 131/21/21
f 131/21/21 141/23/23 143/28/28
f 143/28/28 141/23/23 145/24/24
f 143/28/28 145/24/24 147/27/27
f 147/27/27 145/24/24 151/25/25
f 147/27/27 151/25/25 149/26/26
f 131/30/30 143/31/31 132/29/29
f 132/29/29 143/31/31 144/36/36
f 144/36/36 143/31/31 147/32/32
f 144/36/36 147/32/32 148/35/35
f 148/35/35 147/32/32 150/34/34
f 150/34/34 147/32/32 149/33/33
f 150/38/38 154/39/39 152/37/37
f 152/37/37 154/39/39 172/54/54
f 172/54/54 154/39/39 156/40/40
f 172/54/54 156/40/40 184/51/51
f 184/51/51 156/40/40 158/41/41
f 184/51/51 158/41/41 162/42/42
f 184/51/51 162/42/42 182/50/50
f 182/50/50 162/42/42 160/43/43
f 182/50/50 160/43/43 170/47/47
f 170/47/47 160/43/43 168/46/46
f 168/46/46 160/43/43 166/45/45
f 166/45/45 160/43/43 164/44/44
f 170/47/47 174/48/48 182/50/50
f 182/50/50 174/48/48 178/49/49
f 180/52/52 176/53/53 184/51/51
f 184/51/51 176/53/53 172/54/54
f 153/55/55 154/56/56 149/58/58
f 149/58/58 154/56/56 150/57/57
f 149/59/59 151/60/60 153/76/76
f 153/76/76 151/60/60 171/61/61
f 153/76/76 171/61/61 155/75/75
f 155/75/75 171/61/61 183/64/64
f 155/75/75 183/64/64 157/74/74
f 157/74/74 183/64/64 161/73/73
f 161/73/73 183/64/64 181/65/65
f 161/73/73 181/65/65 159/72/72
f 159/72/72 181/65/65 169/68/68
f 159/72/72 169/68/68 167/69/69
f 171/61/61 175/62/62 183/64/64
f 183/64/64 175/62/62 179/63/63
f 177/66/66 173/67/67 181/65/65
f 181/65/65 173/67/67 169/68/68
f 167/69/69 165/70/70 159/72/72
f 159/72/72 165/70/70 163/71/71
f 184/84/84 183/77/77 180/83/83
f 180/83/83 183/77/77 179/78/78
f 180/83/83 179/78/78 176/82/82
f 176/82/82 179/78/78 175/79/79
f 176/82/82 175/79/79 172/81/81
f 172/81/81 175/79/79 171/80/80
f 172/85/85 171/86/86 152/101/101
f 152/101/101 171/86/86 151/87/87
f 152/101/101 151/87/87 146/100/100
f 146/100/100 151/87/87 145/88/88
f 146/100/100 145/88/88 142/99/99
f 142/99/99 145/88/88 141/89/89
f 142/99/99 141/89/89 116/94/94
f 116/94/94 141/89/89 113/93/93
f 113/93/93 141/89/89 138/90/90
f 113/93/93 138/90/90 112/92/92
f 112/92/92 138/90/90 137/91/91
f 142/99/99 116/94/94 139/98/98
f 139/98/98 116/94/94 118/95/95
f 139/98/98 118/95/95 140/97/97
f 140/97/97 118/95/95 120/96/96
f 85/113/113 82/102/102 78/116/116
f 78/116/116 82/102/102 70/103/103
f 78/116/116 70/103/103 39/117/117
f 39/117/117 70/103/103 41/104/104
f 39/117/117 41/104/104 31/105/105
f 39/117/117 31/105/105 37/118/118
f 37/118/118 31/105/105 1/106/106
f 37/118/118 1/106/106 33/107/107
f 37/118/118 33/107/107 47/114/114
f 47/114/114 33/107/107 43/108/108
f 47/114/114 43/108/108 72/109/109
f 47/114/114 72/109/109 76/119/119
f 76/119/119 72/109/109 88/110/110
f 76/119/119 88/110/110 87/111/111
f 76/119/119 87/111/111 80/120/120
f 80/120/120 87/111/111 86/112/112
f 80/120/120 86/112/112 85/113/113
f 39/117/117 37/118/118 49/115/115
f 49/115/115 37/118/118 47/114/114
f 49/115/115 47/114/114 80/120/120
f 80/120/120 47/114/114 76/119/119
f 85/113/113 78/116/116 49/115/115
f 49/115/115 78/116/116 39/117/117
f 85/113/113 49/115/115 80/120/120
f 74/132/132 112/121/121 79/135/135
f 79/135/135 112/121/121 111/122/122
f 79/135/135 111/122/122 110/123/123
f 109/124/124 81/136/136 110/123/123
f 110/123/123 81/136/136 69/134/134
f 110/123/123 69/134/134 79/135/135
f 79/135/135 69/134/134 74/132/132
f 81/136/136 109/124/124 77/137/137
f 77/137/137 109/124/124 108/125/125
f 77/137/137 108/125/125 73/126/126
f 77/137/137 73/126/126 48/133/133
f 48/133/133 73/126/126 44/127/127
f 48/133/133 44/127/127 34/128/128
f 48/133/133 34/128/128 38/138/138
f 38/138/138 34/128/128 29/129/129
f 38/138/138 29/129/129 35/130/130
f 38/138/138 35/130/130 40/139/139
f 40/139/139 35/130/130 45/131/131
f 40/139/139 45/131/131 74/132/132
f 81/136/136 77/137/137 69/134/134
f 69/134/134 77/137/137 48/133/133
f 69/134/134 48/133/133 40/139/139
f 40/139/139 48/133/133 38/138/138
f 74/132/132 69/134/134 40/139/139
f 1/149/149 29/140/140 33/148/148
f 33/148/148 29/140/140 34/141/141
f 33/148/148 34/141/141 43/147/147
f 43/147/147 34/141/141 44/142/142
f 43/147/147 44/142/142 72/146/146
f 72/146/146 44/142/142 73/143/143
f 72/146/146 73/143/143 88/145/145
f 88/145/145 73/143/143 108/144/144
f 29/160/160 30/150/150 35/159/159
f 35/159/159 30/150/150 36/151/151
f 35/159/159 36/151/151 45/158/158
f 45/158/158 36/151/151 46/152/152
f 45/158/158 46/152/152 74/157/157
f 74/157/157 46/152/152 75/153/153
f 74/157/157 75/153/153 113/155/155
f 113/155/155 75/153/153 114/154/154
f 113/155/155 112/156/156 74/157/157
f 112/170/170 137/161/161 111/169/169
f 111/169/169 137/161/161 136/162/162
f 111/169/169 136/162/162 110/168/168
f 110/168/168 136/162/162 135/163/163
f 110/168/168 135/163/163 109/167/167
f 109/167/167 135/163/163 134/164/164
f 109/167/167 134/164/164 108/166/166
f 108/166/166 134/164/164 133/165/165
f 88/180/180 126/171/171 87/179/179
f 87/179/179 126/171/171 125/172/172
f 87/179/179 125/172/172 86/178/178
f 86/178/178 125/172/172 124/173/173
f 86/178/178 124/173/173 85/177/177
f 85/177/177 124/173/173 123/174/174
f 85/177/177 123/174/174 82/176/176
f 82/176/176 123/174/174 121/175/175
f 84/181/181 71/182/182 83/191/191
f 83/191/191 71/182/182 70/189/189
f 83/191/191 70/189/189 82/190/190
f 70/189/189 71/182/182 41/188/188
f 41/188/188 71/182/182 42/183/183
f 41/188/188 42/183/183 31/187/187
f 31/187/187 42/183/183 32/184/184
f 31/187/187 32/184/184 1/186/186
f 1/186/186 32/184/184 2/185/185
f 29/193/193 28/221/221 30/192/192
f 30/192/192 28/221/221 26/213/213
f 30/192/192 26/213/213 24/214/214
f 28/221/221 29/193/193 27/220/220
f 27/220/220 29/193/193 1/194/194
f 27/220/220 1/194/194 3/219/219
f 3/219/219 1/194/194 4/218/218
f 4/218/218 1/194/194 2/195/195
f 4/218/218 2/195/195 5/202/202
f 5/202/202 2/195/195 6/201/201
f 6/201/201 2/195/195 8/200/200
f 8/200/200 2/195/195 10/199/199
f 10/199/199 2/195/195 12/198/198
f 12/198/198 2/195/195 14/197/197
f 14/197/197 2/195/195 16/196/196
f 16/196/196 2/195/195 18/217/217
f 18/217/217 2/195/195 30/192/192
f 18/217/217 30/192/192 20/216/216
f 20/216/216 30/192/192 22/215/215
f 22/215/215 30/192/192 24/214/214
f 5/202/202 7/203/203 4/218/218
f 4/218/218 7/203/203 9/204/204
f 4/218/218 9/204/204 11/205/205
f 11/205/205 13/206/206 4/218/218
f 4/218/218 13/206/206 15/207/207
f 4/218/218 15/207/207 17/208/208
f 4/218/218 17/208/208 28/221/221
f 28/221/221 17/208/208 19/209/209
f 28/221/221 19/209/209 21/210/210
f 21/210/210 23/211/211 28/221/221
f 28/221/221 23/211/211 25/212/212
f 28/221/221 25/212/212 26/213/213
f 84/231/231 114/222/222 71/230/230
f 71/230/230 114/222/222 75/223/223
f 71/230/230 75/223/223 42/229/229
f 42/229/229 75/223/223 46/224/224
f 42/229/229 46/224/224 32/228/228
f 32/228/228 46/224/224 36/225/225
f 32/228/228 36/225/225 2/227/227
f 2/227/227 36/225/225 30/226/226
f 83/232/232 82/233/233 115/238/238
f 115/238/238 82/233/233 121/234/234
f 115/238/238 121/234/234 122/235/235
f 119/236/236 117/237/237 122/235/235
f 122/235/235 117/237/237 115/238/238
f 116/246/246 115/239/239 118/245/245
f 118/245/245 115/239/239 117/240/240
f 118/245/245 117/240/240 120/244/244
f 120/244/244 117/240/240 119/241/241
f 120/244/244 119/241/241 140/243/243
f 140/243/243 119/241/241 122/242/242
f 115/247/247 116/248/248 83/250/250
f 83/250/250 116/248/248 113/249/249
f 28/251/251 130/252/252 4/254/254
f 4/254/254 130/252/252 128/253/253
f 3/255/255 127/256/256 27/258/258
f 27/258/258 127/256/256 129/257/257
f 129/259/259 130/260/260 27/262/262
f 27/262/262 130/260/260 28/261/261
f 160/270/270 159/263/263 164/269/269
f 164/269/269 159/263/263 163/264/264
f 164/269/269 163/264/264 166/268/268
f 166/268/268 163/264/264 165/265/265
f 166/268/268 165/265/265 168/267/267
f 168/267/267 165/265/265 167/266/266
f 168/271/271 167/272/272 170/274/274
f 170/274/274 167/272/272 169/273/273
f 181/282/282 182/275/275 177/281/281
f 177/281/281 182/275/275 178/276/276
f 177/281/281 178/276/276 173/280/280
f 173/280/280 178/276/276 174/277/277
f 173/280/280 174/277/277 169/279/279
f 169/279/279 174/277/277 170/278/278
f 14/304/304 16/283/283 59/305/305
f 59/305/305 16/283/283 18/284/284
f 59/305/305 18/284/284 61/323/323
f 61/323/323 18/284/284 20/285/285
f 61/323/323 20/285/285 63/322/322
f 63/322/322 20/285/285 22/286/286
f 63/322/322 22/286/286 65/321/321
f 65/321/321 22/286/286 24/287/287
f 65/321/321 24/287/287 67/320/320
f 67/320/320 24/287/287 26/288/288
f 67/320/320 26/288/288 68/319/319
f 68/319/319 26/288/288 25/289/289
f 68/319/319 25/289/289 66/318/318
f 66/318/318 25/289/289 23/290/290
f 66/318/318 23/290/290 21/291/291
f 66/318/318 21/291/291 64/317/317
f 64/317/317 21/291/291 19/292/292
f 64/317/317 19/292/292 62/316/316
f 62/316/316 19/292/292 17/293/293
f 62/316/316 17/293/293 60/315/315
f 60/315/315 17/293/293 15/324/324
f 60/315/315 15/325/325 58/314/314
f 58/326/326 15/294/294 13/295/295
f 58/327/327 13/295/295 56/313/313
f 56/313/313 13/295/295 11/296/296
f 56/313/313 11/296/296 54/312/312
f 54/312/312 11/296/296 9/297/297
f 54/312/312 9/297/297 52/311/311
f 52/311/311 9/297/297 7/298/298
f 52/311/311 7/298/298 5/299/299
f 52/311/311 5/299/299 50/310/310
f 50/310/310 5/299/299 6/300/300
f 50/310/310 6/300/300 51/309/309
f 51/309/309 6/300/300 8/301/301
f 51/309/309 8/301/301 53/308/308
f 53/308/308 8/301/301 10/302/302
f 53/308/308 10/302/302 55/307/307
f 55/307/307 10/302/302 12/303/303
f 55/307/307 12/303/303 57/306/306
f 57/306/306 12/303/303 14/304/304
f 57/306/306 14/304/304 59/305/305
f 61/329/329 99/356/356 59/328/328
f 59/328/328 99/356/356 97/357/357
f 59/328/328 97/357/357 57/346/346
f 57/346/346 97/357/357 95/358/358
f 57/346/346 95/358/358 55/345/345
f 55/345/345 95/358/358 93/359/359
f 55/345/345 93/359/359 53/344/344
f 53/344/344 93/359/359 91/360/360
f 53/344/344 91/360/360 51/343/343
f 51/343/343 91/360/360 89/361/361
f 51/343/343 89/361/361 50/342/342
f 50/342/342 89/361/361 90/362/362
f 50/342/342 90/362/362 52/341/341
f 52/341/341 90/362/362 92/363/363
f 52/341/341 92/363/363 54/340/340
f 54/340/340 92/363/363 94/364/364
f 54/340/340 94/364/364 56/339/339
f 56/339/339 94/364/364 96/365/365
f 56/339/339 96/365/365 58/338/338
f 58/338/338 96/365/365 98/366/366
f 58/338/338 98/367/367 60/337/337
f 60/368/368 98/347/347 100/348/348
f 60/369/369 100/348/348 62/336/336
f 62/336/336 100/348/348 102/349/349
f 62/336/336 102/349/349 64/335/335
f 64/335/335 102/349/349 104/350/350
f 64/335/335 104/350/350 66/334/334
f 66/334/334 104/350/350 106/351/351
f 66/334/334 106/351/351 68/333/333
f 68/333/333 106/351/351 107/352/352
f 68/333/333 107/352/352 67/332/332
f 67/332/332 107/352/352 105/353/353
f 67/332/332 105/353/353 65/331/331
f 65/331/331 105/353/353 103/354/354
f 65/331/331 103/354/354 63/330/330
f 63/330/330 103/354/354 101/355/355
f 63/330/330 101/355/355 61/329/329
f 61/329/329 101/355/355 99/356/356
f 183/370/370 184/371/371 181/373/373
f 181/373/373 184/371/371 182/372/372
f 139/375/375 140/376/376 132/374/374
f 132/374/374 140/376/376 122/377/377
f 132/374/374 122/377/377 128/391/391
f 128/391/391 122/377/377 121/378/378
f 128/391/391 121/378/378 127/390/390
f 127/390/390 121/378/378 126/382/382
f 127/390/390 126/382/382 129/393/393
f 129/393/393 126/382/382 133/383/383
f 129/393/393 133/383/383 137/387/387
f 137/387/387 133/383/383 136/386/386
f 136/386/386 133/383/383 135/385/385
f 135/385/385 133/383/383 134/384/384
f 121/378/378 123/379/379 126/382/382
f 126/382/382 123/379/379 124/380/380
f 126/382/382 124/380/380 125/381/381
f 137/387/387 138/388/388 129/393/393
f 129/393/393 138/388/388 131/389/389
f 129/393/393 131/389/389 130/392/392
f 130/392/392 131/389/389 132/374/374
f 130/392/392 132/374/374 128/391/391
f 96/395/395 83/415/415 98/394/394
f 98/394/394 83/415/415 113/416/416
f 98/394/394 113/416/416 100/412/412
f 100/412/412 113/416/416 102/411/411
f 102/411/411 113/416/416 104/410/410
f 104/410/410 113/416/416 106/409/409
f 106/409/409 113/416/416 107/408/408
f 107/408/408 113/416/416 114/413/413
f 107/408/408 114/413/413 105/407/407
f 105/407/407 114/413/413 103/406/406
f 103/406/406 114/413/413 101/405/405
f 101/405/405 114/413/413 99/404/404
f 99/404/404 114/413/413 84/414/414
f 99/404/404 84/414/414 97/403/403
f 97/403/403 84/414/414 95/402/402
f 95/402/402 84/414/414 93/401/401
f 93/401/401 84/414/414 91/400/400
f 91/400/400 84/414/414 89/399/399
f 89/399/399 84/414/414 83/415/415
f 89/399/399 83/415/415 90/398/398
f 90/398/398 83/415/415 92/397/397
f 92/397/397 83/415/415 94/396/396
f 94/396/396 83/415/415 96/395/395
f 3/417/417 4/418/418 127/420/420
f 127/420/420 4/418/418 128/419/419
f 133/422/422 126/423/423 108/421/421
f 108/421/421 126/423/423 88/424/424
# 184 vertices
# 424 texture params
# 424 normals
# 372 facets

# 1 groups
