                                                                        S      1
,,,19Hcajetinparapantalla,22HAutodesk Inventor 2024,7Hunknown,32,38,7,  G      1
99,15,,1.,2,2HMM,1,0.08,15H20260430.115610,0.01,10000.,6HLegion,,11,0,  G      2
15H20260417.000000;                                                     G      3
     186       1                                                00000000D      1
     186            -409       1       0                               0D      2
     514       2                                                00010000D      3
     514                       3       1                               0D      4
     510       5                                                00010000D      5
     510            -409       1       1                               0D      6
     510       6                                                00010000D      7
     510            -409       1       1                               0D      8
     510       7                                                00010000D      9
     510            -409       1       1                               0D     10
     510       8                                                00010000D     11
     510            -409       1       1                               0D     12
     510       9                                                00010000D     13
     510            -409       1       1                               0D     14
     510      10                                                00010000D     15
     510            -409       1       1                               0D     16
     510      11                                                00010000D     17
     510            -409       1       1                               0D     18
     510      12                                                00010000D     19
     510            -409       1       1                               0D     20
     510      13                                                00010000D     21
     510            -409       1       1                               0D     22
     510      14                                                00010000D     23
     510            -409       1       1                               0D     24
     510      15                                                00010000D     25
     510            -409       1       1                               0D     26
     510      16                                                00010000D     27
     510            -409       1       1                               0D     28
     510      17                                                00010000D     29
     510            -409       1       1                               0D     30
     510      18                                                00010000D     31
     510            -409       1       1                               0D     32
     510      19                                                00010000D     33
     510            -409       1       1                               0D     34
     510      20                                                00010000D     35
     510            -409       1       1                               0D     36
     510      21                                                00010000D     37
     510            -409       1       1                               0D     38
     510      22                                                00010000D     39
     510            -409       1       1                               0D     40
     510      23                                                00010000D     41
     510            -409       1       1                               0D     42
     510      24                                                00010000D     43
     510            -409       1       1                               0D     44
     510      25                                                00010000D     45
     510            -409       1       1                               0D     46
     510      26                                                00010000D     47
     510            -409       1       1                               0D     48
     510      27                                                00010000D     49
     510            -409       1       1                               0D     50
     510      28                                                00010000D     51
     510            -409       1       1                               0D     52
     510      29                                                00010000D     53
     510            -409       1       1                               0D     54
     510      30                                                00010000D     55
     510            -409       1       1                               0D     56
     510      31                                                00010000D     57
     510            -409       1       1                               0D     58
     510      32                                                00010000D     59
     510            -409       1       1                               0D     60
     510      33                                                00010000D     61
     510            -409       1       1                               0D     62
     510      34                                                00010000D     63
     510            -409       1       1                               0D     64
     510      35                                                00010000D     65
     510            -409       1       1                               0D     66
     510      36                                                00010000D     67
     510            -409       1       1                               0D     68
     510      37                                                00010000D     69
     510            -409       1       1                               0D     70
     510      38                                                00010000D     71
     510            -409       1       1                               0D     72
     510      39                                                00010000D     73
     510            -409       1       1                               0D     74
     508      40                                                00010000D     75
     508                       1       1                               0D     76
     508      41                                                00010000D     77
     508                       1       1                               0D     78
     508      42                                                00010000D     79
     508                       1       1                               0D     80
     508      43                                                00010000D     81
     508                       1       1                               0D     82
     508      44                                                00010000D     83
     508                       1       1                               0D     84
     508      45                                                00010000D     85
     508                       3       1                               0D     86
     508      48                                                00010000D     87
     508                       1       1                               0D     88
     508      49                                                00010000D     89
     508                       3       1                               0D     90
     508      52                                                00010000D     91
     508                       1       1                               0D     92
     508      53                                                00010000D     93
     508                       3       1                               0D     94
     508      56                                                00010000D     95
     508                       1       1                               0D     96
     508      57                                                00010000D     97
     508                       1       1                               0D     98
     508      58                                                00010000D     99
     508                       1       1                               0D    100
     508      59                                                00010000D    101
     508                       2       1                               0D    102
     508      61                                                00010000D    103
     508                       1       1                               0D    104
     508      62                                                00010000D    105
     508                       1       1                               0D    106
     508      63                                                00010000D    107
     508                       2       1                               0D    108
     508      65                                                00010000D    109
     508                       1       1                               0D    110
     508      66                                                00010000D    111
     508                       1       1                               0D    112
     508      67                                                00010000D    113
     508                       1       1                               0D    114
     508      68                                                00010000D    115
     508                       1       1                               0D    116
     508      69                                                00010000D    117
     508                       2       1                               0D    118
     508      71                                                00010000D    119
     508                       1       1                               0D    120
     508      72                                                00010000D    121
     508                       1       1                               0D    122
     508      73                                                00010000D    123
     508                       1       1                               0D    124
     508      74                                                00010000D    125
     508                       1       1                               0D    126
     508      75                                                00010000D    127
     508                       1       1                               0D    128
     508      76                                                00010000D    129
     508                       1       1                               0D    130
     508      77                                                00010000D    131
     508                       1       1                               0D    132
     508      78                                                00010000D    133
     508                       1       1                               0D    134
     508      79                                                00010000D    135
     508                       2       1                               0D    136
     508      81                                                00010000D    137
     508                       2       1                               0D    138
     508      83                                                00010000D    139
     508                       1       1                               0D    140
     508      84                                                00010000D    141
     508                       3       1                               0D    142
     508      87                                                00010000D    143
     508                       1       1                               0D    144
     508      88                                                00010000D    145
     508                       1       1                               0D    146
     508      89                                                00010000D    147
     508                       1       1                               0D    148
     508      90                                                00010000D    149
     508                       1       1                               0D    150
     508      91                                                00010000D    151
     508                       1       1                               0D    152
     126      92                                                00010000D    153
     126       0               4       0                               0D    154
     126      96                                                00010000D    155
     126       0               2       0                               0D    156
     126      98                                                00010000D    157
     126       0               4       0                               0D    158
     126     102                                                00010000D    159
     126       0               2       0                               0D    160
     126     104                                                00010000D    161
     126       0               2       0                               0D    162
     126     106                                                00010000D    163
     126       0               3       0                               0D    164
     126     109                                                00010000D    165
     126       0               2       0                               0D    166
     126     111                                                00010000D    167
     126       0               2       0                               0D    168
     126     113                                                00010000D    169
     126       0               4       0                               0D    170
     126     117                                                00010000D    171
     126       0               2       0                               0D    172
     126     119                                                00010000D    173
     126       0               4       0                               0D    174
     126     123                                                00010000D    175
     126       0               2       0                               0D    176
     126     125                                                00010000D    177
     126       0               5       0                               0D    178
     126     130                                                00010000D    179
     126       0               2       0                               0D    180
     126     132                                                00010000D    181
     126       0               3       0                               0D    182
     126     135                                                00010000D    183
     126       0               2       0                               0D    184
     126     137                                                00010000D    185
     126       0               2       0                               0D    186
     126     139                                                00010000D    187
     126       0               3       0                               0D    188
     126     142                                                00010000D    189
     126       0               6       0                               0D    190
     126     148                                                00010000D    191
     126       0               4       0                               0D    192
     126     152                                                00010000D    193
     126       0               6       0                               0D    194
     126     158                                                00010000D    195
     126       0               2       0                               0D    196
     126     160                                                00010000D    197
     126       0               4       0                               0D    198
     126     164                                                00010000D    199
     126       0               2       0                               0D    200
     126     166                                                00010000D    201
     126       0               3       0                               0D    202
     126     169                                                00010000D    203
     126       0               2       0                               0D    204
     126     171                                                00010000D    205
     126       0               4       0                               0D    206
     126     175                                                00010000D    207
     126       0               2       0                               0D    208
     126     177                                                00010000D    209
     126       0               6       0                               0D    210
     126     183                                                00010000D    211
     126       0               3       0                               0D    212
     126     186                                                00010000D    213
     126       0               6       0                               0D    214
     126     192                                                00010000D    215
     126       0               2       0                               0D    216
     126     194                                                00010000D    217
     126       0               2       0                               0D    218
     126     196                                                00010000D    219
     126       0               2       0                               0D    220
     126     198                                                00010000D    221
     126       0               2       0                               0D    222
     126     200                                                00010000D    223
     126       0               2       0                               0D    224
     126     202                                                00010000D    225
     126       0               2       0                               0D    226
     126     204                                                00010000D    227
     126       0               3       0                               0D    228
     126     207                                                00010000D    229
     126       0               2       0                               0D    230
     126     209                                                00010000D    231
     126       0               3       0                               0D    232
     126     212                                                00010000D    233
     126       0               4       0                               0D    234
     126     216                                                00010000D    235
     126       0               3       0                               0D    236
     126     219                                                00010000D    237
     126       0               4       0                               0D    238
     126     223                                                00010000D    239
     126       0               3       0                               0D    240
     126     226                                                00010000D    241
     126       0               4       0                               0D    242
     126     230                                                00010000D    243
     126       0               2       0                               0D    244
     126     232                                                00010000D    245
     126       0               2       0                               0D    246
     126     234                                                00010000D    247
     126       0               5       0                               0D    248
     126     239                                                00010000D    249
     126       0               2       0                               0D    250
     126     241                                                00010000D    251
     126       0               2       0                               0D    252
     126     243                                                00010000D    253
     126       0               4       0                               0D    254
     126     247                                                00010000D    255
     126       0               2       0                               0D    256
     126     249                                                00010000D    257
     126       0               5       0                               0D    258
     126     254                                                00010000D    259
     126       0               2       0                               0D    260
     126     256                                                00010000D    261
     126       0               2       0                               0D    262
     126     258                                                00010000D    263
     126       0               5       0                               0D    264
     126     263                                                00010000D    265
     126       0               2       0                               0D    266
     126     265                                                00010000D    267
     126       0               2       0                               0D    268
     126     267                                                00010000D    269
     126       0               2       0                               0D    270
     126     269                                                00010000D    271
     126       0               2       0                               0D    272
     126     271                                                00010000D    273
     126       0               5       0                               0D    274
     126     276                                                00010000D    275
     126       0               6       0                               0D    276
     126     282                                                00010000D    277
     126       0               2       0                               0D    278
     126     284                                                00010000D    279
     126       0               2       0                               0D    280
     126     286                                                00010000D    281
     126       0               2       0                               0D    282
     126     288                                                00010000D    283
     126       0               2       0                               0D    284
     126     290                                                00010000D    285
     126       0               2       0                               0D    286
     126     292                                                00010000D    287
     126       0               3       0                               0D    288
     126     295                                                00010000D    289
     126       0               5       0                               0D    290
     126     300                                                00010000D    291
     126       0               2       0                               0D    292
     126     302                                                00010000D    293
     126       0               2       0                               0D    294
     126     304                                                00010000D    295
     126       0               2       0                               0D    296
     126     306                                                00010000D    297
     126       0               2       0                               0D    298
     126     308                                                00010000D    299
     126       0               4       0                               0D    300
     126     312                                                00010000D    301
     126       0               2       0                               0D    302
     126     314                                                00010000D    303
     126       0               3       0                               0D    304
     126     317                                                00010000D    305
     126       0               4       0                               0D    306
     126     321                                                00010000D    307
     126       0               2       0                               0D    308
     126     323                                                00010000D    309
     126       0               5       0                               0D    310
     126     328                                                00010000D    311
     126       0               3       0                               0D    312
     126     331                                                00010000D    313
     126       0               3       0                               0D    314
     126     334                                                00010000D    315
     126       0               3       0                               0D    316
     126     337                                                00010000D    317
     126       0               2       0                               0D    318
     126     339                                                00010000D    319
     126       0               4       0                               0D    320
     126     343                                                00010000D    321
     126       0               6       0                               0D    322
     126     349                                                00010000D    323
     126       0               7       0                               0D    324
     126     356                                                00010000D    325
     126       0               4       0                               0D    326
     126     360                                                00010000D    327
     126       0              11       0                               0D    328
     126     371                                                00010000D    329
     126       0               2       0                               0D    330
     126     373                                                00010000D    331
     126       0               2       0                               0D    332
     128     375                                                00010000D    333
     128       0    -409       6       0                               0D    334
     128     381                                                00010000D    335
     128       0    -409       4       0                               0D    336
     128     385                                                00010000D    337
     128       0    -409       6       0                               0D    338
     128     391                                                00010000D    339
     128       0    -409       7       0                               0D    340
     128     398                                                00010000D    341
     128       0    -409       6       0                               0D    342
     128     404                                                00010000D    343
     128       0    -409       5       0                               0D    344
     128     409                                                00010000D    345
     128       0    -409       5       0                               0D    346
     128     414                                                00010000D    347
     128       0    -409       5       0                               0D    348
     128     419                                                00010000D    349
     128       0    -409       6       0                               0D    350
     128     425                                                00010000D    351
     128       0    -409       3       0                               0D    352
     128     428                                                00010000D    353
     128       0    -409      35       0                               0D    354
     128     463                                                00010000D    355
     128       0    -409      35       0                               0D    356
     128     498                                                00010000D    357
     128       0    -409       7       0                               0D    358
     128     505                                                00010000D    359
     128       0    -409       7       0                               0D    360
     128     512                                                00010000D    361
     128       0    -409       6       0                               0D    362
     128     518                                                00010000D    363
     128       0    -409       6       0                               0D    364
     128     524                                                00010000D    365
     128       0    -409       7       0                               0D    366
     128     531                                                00010000D    367
     128       0    -409       4       0                               0D    368
     128     535                                                00010000D    369
     128       0    -409       4       0                               0D    370
     128     539                                                00010000D    371
     128       0    -409       3       0                               0D    372
     128     542                                                00010000D    373
     128       0    -409       6       0                               0D    374
     128     548                                                00010000D    375
     128       0    -409       3       0                               0D    376
     128     551                                                00010000D    377
     128       0    -409       7       0                               0D    378
     128     558                                                00010000D    379
     128       0    -409       7       0                               0D    380
     128     565                                                00010000D    381
     128       0    -409       5       0                               0D    382
     128     570                                                00010000D    383
     128       0    -409       8       0                               0D    384
     128     578                                                00010000D    385
     128       0    -409       6       0                               0D    386
     128     584                                                00010000D    387
     128       0    -409       8       0                               0D    388
     128     592                                                00010000D    389
     128       0    -409      18       0                               0D    390
     128     610                                                00010000D    391
     128       0    -409      18       0                               0D    392
     128     628                                                00010000D    393
     128       0    -409       4       0                               0D    394
     128     632                                                00010000D    395
     128       0    -409       4       0                               0D    396
     128     636                                                00010000D    397
     128       0    -409       4       0                               0D    398
     128     640                                                00010000D    399
     128       0    -409       6       0                               0D    400
     128     646                                                00010000D    401
     128       0    -409       3       0                               0D    402
     502     649                                                00010000D    403
     502                      15       1                               0D    404
     504     664                                                00010001D    405
     504                      26       1                               0D    406
     406     690                                                00000000D    407
     406                       1      15                               0D    408
     314     691                                                00000200D    409
     314                       1       0                               0D    410
186,3,1,0,0,1,407;                                                     1P      1
514,35,5,1,7,1,9,1,11,1,13,1,15,1,17,1,19,1,21,1,23,1,25,1,27,1,       3P      2
29,1,31,1,33,1,35,1,37,1,39,1,41,1,43,1,45,1,47,1,49,1,51,1,53,        3P      3
1,55,1,57,1,59,1,61,1,63,1,65,1,67,1,69,1,71,1,73,1;                   3P      4
510,333,1,1,75;                                                        5P      5
510,335,1,1,77;                                                        7P      6
510,337,1,1,79;                                                        9P      7
510,339,1,1,81;                                                       11P      8
510,341,1,1,83;                                                       13P      9
510,343,1,1,85;                                                       15P     10
510,345,1,1,87;                                                       17P     11
510,347,1,1,89;                                                       19P     12
510,349,1,1,91;                                                       21P     13
510,351,1,1,93;                                                       23P     14
510,353,1,1,95;                                                       25P     15
510,355,1,1,97;                                                       27P     16
510,357,1,1,99;                                                       29P     17
510,359,1,1,101;                                                      31P     18
510,361,1,1,103;                                                      33P     19
510,363,1,1,105;                                                      35P     20
510,365,1,1,107;                                                      37P     21
510,367,3,1,109,111,113;                                              39P     22
510,369,1,1,115;                                                      41P     23
510,371,1,1,117;                                                      43P     24
510,373,1,1,119;                                                      45P     25
510,375,1,1,121;                                                      47P     26
510,377,1,1,123;                                                      49P     27
510,379,1,1,125;                                                      51P     28
510,381,1,1,127;                                                      53P     29
510,383,1,1,129;                                                      55P     30
510,385,1,1,131;                                                      57P     31
510,387,1,1,133;                                                      59P     32
510,389,1,1,135;                                                      61P     33
510,391,1,1,137;                                                      63P     34
510,393,1,1,139;                                                      65P     35
510,395,2,1,141,143;                                                  67P     36
510,397,2,1,145,147;                                                  69P     37
510,399,1,1,149;                                                      71P     38
510,401,1,1,151;                                                      73P     39
508,4,0,405,1,1,0,0,405,2,1,0,0,405,3,1,0,0,405,4,1,0;                75P     40
508,4,0,405,2,0,0,0,405,5,1,0,0,405,6,0,0,0,405,7,0,0;                77P     41
508,4,0,405,8,1,0,0,405,9,1,0,0,405,10,1,0,0,405,11,1,0;              79P     42
508,4,0,405,12,1,0,0,405,13,1,0,0,405,14,1,0,0,405,15,1,0;            81P     43
508,4,0,405,16,1,0,0,405,15,0,0,0,405,17,1,0,0,405,11,0,0;            83P     44
508,10,0,405,8,0,0,0,405,18,1,0,0,405,3,0,0,0,405,7,1,0,0,405,        85P     45
19,0,0,0,405,20,0,0,0,405,21,0,0,0,405,22,1,0,0,405,23,0,0,0,         85P     46
405,24,0,0;                                                           85P     47
508,4,0,405,4,0,0,0,405,18,0,0,0,405,17,0,0,0,405,25,1,0;             87P     48
508,10,0,405,14,0,0,0,405,26,0,0,0,405,27,0,0,0,405,28,1,0,0,         89P     49
405,29,0,0,0,405,30,0,0,0,405,31,0,0,0,405,5,0,0,0,405,1,0,0,0,       89P     50
405,25,0,0;                                                           89P     51
508,4,0,405,27,1,0,0,405,32,1,0,0,405,23,1,0,0,405,33,1,0;            91P     52
508,11,0,405,32,0,0,0,405,26,1,0,0,405,13,0,0,0,405,34,1,0,0,         93P     53
405,35,0,0,0,405,36,0,0,0,405,37,1,0,0,405,38,1,0,0,405,39,1,0,       93P     54
0,405,9,0,0,0,405,24,1,0;                                             93P     55
508,3,0,405,40,0,0,0,405,41,0,0,0,405,42,0,0;                         95P     56
508,3,0,405,43,0,0,0,405,44,0,0,0,405,45,0,0;                         97P     57
508,4,0,405,44,1,0,0,405,46,1,0,0,405,41,1,0,0,405,47,1,0;            99P     58
508,5,0,405,48,1,0,0,405,49,1,0,0,405,36,1,0,0,405,45,1,0,0,405,     101P     59
50,1,0;                                                              101P     60
508,4,0,405,51,1,0,0,405,52,1,0,0,405,43,1,0,0,405,35,1,0;           103P     61
508,4,0,405,53,1,0,0,405,54,1,0,0,405,42,1,0,0,405,55,1,0;           105P     62
508,5,0,405,56,1,0,0,405,57,1,0,0,405,40,1,0,0,405,58,1,0,0,405,     107P     63
59,0,0;                                                              107P     64
508,4,0,405,50,0,0,0,405,47,0,0,0,405,57,0,0,0,405,60,1,0;           109P     65
508,2,0,405,61,1,0,0,405,62,1,0;                                     111P     66
508,4,0,405,63,0,0,0,405,64,0,0,0,405,65,0,0,0,405,66,0,0;           113P     67
508,4,0,405,48,0,0,0,405,60,0,0,0,405,56,0,0,0,405,67,1,0;           115P     68
508,5,0,405,58,0,0,0,405,54,0,0,0,405,68,0,0,0,405,69,0,0,0,405,     117P     69
70,0,0;                                                              117P     70
508,4,0,405,69,1,0,0,405,71,1,0,0,405,38,0,0,0,405,72,1,0;           119P     71
508,4,0,405,72,0,0,0,405,37,0,0,0,405,73,1,0,0,405,70,1,0;           121P     72
508,4,0,405,74,1,0,0,405,75,0,0,0,405,76,1,0,0,405,66,1,0;           123P     73
508,4,0,405,77,1,0,0,405,78,0,0,0,405,79,1,0,0,405,64,1,0;           125P     74
508,4,0,405,80,0,0,0,405,74,0,0,0,405,65,1,0,0,405,79,0,0;           127P     75
508,4,0,405,31,1,0,0,405,81,1,0,0,405,19,1,0,0,405,6,1,0;            129P     76
508,4,0,405,81,0,0,0,405,30,1,0,0,405,82,0,0,0,405,20,1,0;           131P     77
508,4,0,405,21,1,0,0,405,82,1,0,0,405,29,1,0,0,405,83,1,0;           133P     78
508,6,0,405,61,0,0,0,405,62,0,0,0,405,84,1,0,0,405,85,0,0,0,405,     135P     79
86,0,0,0,405,84,0,0;                                                 135P     80
508,5,0,405,85,1,0,0,405,87,1,0,0,405,88,0,0,0,405,87,0,0,0,405,     137P     81
86,1,0;                                                              137P     82
508,4,0,405,33,0,0,0,405,22,0,0,0,405,83,0,0,0,405,28,0,0;           139P     83
508,10,0,405,10,0,0,0,405,39,0,0,0,405,71,0,0,0,405,68,1,0,0,        141P     84
405,53,0,0,0,405,89,1,0,0,405,51,0,0,0,405,34,0,0,0,405,12,0,0,      141P     85
0,405,16,0,0;                                                        141P     86
508,4,0,405,90,1,0,0,405,75,1,0,0,405,80,1,0,0,405,78,1,0;           143P     87
508,4,0,405,67,0,0,0,405,59,1,0,0,405,73,0,0,0,405,49,0,0;           145P     88
508,1,0,405,88,1,0;                                                  147P     89
508,4,0,405,63,1,0,0,405,76,0,0,0,405,90,0,0,0,405,77,0,0;           149P     90
508,4,0,405,52,0,0,0,405,89,0,0,0,405,55,0,0,0,405,46,0,0;           151P     91
126,2,2,0,0,0,0,-0.785398163397455,-0.785398163397455,               153P     92
-0.785398163397455,0.785398163397451,0.785398163397451,              153P     93
0.785398163397451,1.,0.707106781186557,1.,26.2,3.,13.,26.7,3.,       153P     94
13.,26.7,2.5,13.,-0.785398163397455,0.785398163397451,0.,0.,0.;      153P     95
126,1,1,0,0,1,0,-3.8,-3.8,0.,0.,1.,1.,26.7,2.5,13.,26.7,2.5,51.,     155P     96
-3.8,0.,0.,0.,0.;                                                    155P     97
126,2,2,0,0,0,0,-0.785398163397451,-0.785398163397451,               157P     98
-0.785398163397451,0.785398163397446,0.785398163397446,              157P     99
0.785398163397446,1.,0.70710678118655,1.,26.7,2.5,51.,26.7,3.,       157P    100
51.,26.2,3.,51.,-0.785398163397451,0.785398163397446,0.,0.,0.;       157P    101
126,1,1,0,0,1,0,0.,0.,3.8,3.8,1.,1.,26.2,3.,51.,26.2,3.,13.,0.,      159P    102
3.8,0.,0.,0.;                                                        159P    103
126,1,1,0,0,1,0,0.05,0.05,0.25,0.25,1.,1.,26.7,2.5,13.,26.7,         161P    104
0.499999999999999,13.,0.05,0.25,0.,0.,0.;                            161P    105
126,1,1,0,0,1,0,-0.95,-0.95,2.85,2.85,1.,1.,26.7,                    163P    106
0.499999999999999,51.,26.7,0.499999999999999,13.,-0.95,2.85,0.,      163P    107
0.,0.;                                                               163P    108
126,1,1,0,0,1,0,0.05,0.05,0.25,0.25,1.,1.,26.7,2.5,51.,26.7,         165P    109
0.499999999999999,51.,0.05,0.25,0.,0.,0.;                            165P    110
126,1,1,0,0,1,0,1.245,1.245,1.645,1.645,1.,1.,22.,3.,51.,22.,7.,     167P    111
51.,1.245,1.645,0.,0.,0.;                                            167P    112
126,2,2,0,0,0,0,-0.78539816339744,-0.78539816339744,                 169P    113
-0.78539816339744,0.785398163397457,0.785398163397457,               169P    114
0.785398163397457,1.,0.707106781186554,1.,22.,7.,51.,21.5,7.,        169P    115
51.,21.5,7.,51.5,-0.78539816339744,0.785398163397457,0.,0.,0.;       169P    116
126,1,1,0,0,1,0,-1.645,-1.645,-1.195,-1.195,1.,1.,21.5,7.,51.5,      171P    117
21.5,2.5,51.5,-1.645,-1.195,0.,0.,0.;                                171P    118
126,2,2,0,0,0,0,1.5707963267949,1.5707963267949,1.5707963267949,     173P    119
3.14159265358979,3.14159265358979,3.14159265358979,1.,               173P    120
0.707106781186554,1.,21.5,2.5,51.5,21.5,3.,51.,22.,3.,51.,           173P    121
1.5707963267949,3.14159265358979,0.,0.,0.;                           173P    122
126,1,1,0,0,1,0,1.295,1.295,1.745,1.745,1.,1.,21.5,2.5,12.5,         175P    123
21.5,7.,12.5,1.295,1.745,0.,0.,0.;                                   175P    124
126,2,2,0,0,0,0,-0.785398163397448,-0.785398163397448,               177P    125
-0.785398163397448,0.785398163397448,0.785398163397448,              177P    126
0.785398163397448,1.,0.707106781186545,1.,21.5,7.00000000000002,     177P    127
12.5,21.5,7.00000000000002,13.,22.,7.00000000000002,13.,             177P    128
-0.785398163397448,0.785398163397448,0.,0.,0.;                       177P    129
126,1,1,0,0,1,0,-1.745,-1.745,-1.345,-1.345,1.,1.,22.,7.,13.,        179P    130
22.,3.,13.,-1.745,-1.345,0.,0.,0.;                                   179P    131
126,2,2,0,0,0,0,0.,0.,0.,1.5707963267949,1.5707963267949,            181P    132
1.5707963267949,1.,0.707106781186555,1.,22.,3.,13.,21.5,3.,13.,      181P    133
21.5,2.5,12.5,0.,1.5707963267949,0.,0.,0.;                           181P    134
126,1,1,0,0,1,0,-1.4,-1.4,2.5,2.5,1.,1.,21.5,2.5,51.5,21.5,2.5,      183P    135
12.5,-1.4,2.5,0.,0.,0.;                                              183P    136
126,1,1,0,0,1,0,-2.45,-2.45,1.35,1.35,1.,1.,22.,3.,13.,22.,3.,       185P    137
51.,-2.45,1.35,0.,0.,0.;                                             185P    138
126,1,1,0,0,1,0,0.0499999999999998,0.0499999999999998,               187P    139
0.470000000000001,0.470000000000001,1.,1.,22.,3.,51.,26.2,3.,        187P    140
51.,0.0499999999999998,0.470000000000001,0.,0.,0.;                   187P    141
126,2,2,0,0,0,0,-0.785398163397447,-0.785398163397447,               189P    142
-0.785398163397447,0.78539816339745,0.78539816339745,                189P    143
0.78539816339745,1.,0.707106781186551,1.,27.2,                       189P    144
-8.32667268468867D-16,51.,26.7,-8.32667268468867D-16,51.,26.7,       189P    145
0.499999999999999,51.,-0.785398163397447,0.78539816339745,0.,0.,     189P    146
0.;                                                                  189P    147
126,1,1,0,0,1,0,0.0499999999999998,0.0499999999999998,               191P    148
0.129999999999999,0.129999999999999,1.,1.,28.,                       191P    149
-5.55111512312578D-16,51.,27.2,-5.55111512312578D-16,51.,            191P    150
0.0499999999999998,0.129999999999999,0.,0.,0.;                       191P    151
126,2,2,0,0,0,0,-0.78539816339745,-0.78539816339745,                 193P    152
-0.78539816339745,0.785398163397447,0.785398163397447,               193P    153
0.785398163397447,1.,0.707106781186551,1.,28.5,                      193P    154
0.499999999999999,51.,28.5,-8.32667268468867D-16,51.,28.,            193P    155
-8.32667268468867D-16,51.,-0.78539816339745,0.785398163397447,       193P    156
0.,0.,0.;                                                            193P    157
126,1,1,0,0,1,0,-0.45,-0.45,0.15,0.15,1.,1.,28.5,                    195P    158
0.499999999999999,51.,28.5,6.5,51.,-0.45,0.15,0.,0.,0.;              195P    159
126,2,2,0,0,0,0,-0.785398163397446,-0.785398163397446,               197P    160
-0.785398163397446,0.785398163397451,0.785398163397451,              197P    161
0.785398163397451,1.,0.707106781186551,1.,28.,7.,51.,28.5,7.,        197P    162
51.,28.5,6.5,51.,-0.785398163397446,0.785398163397451,0.,0.,0.;      197P    163
126,1,1,0,0,1,0,0.0499999999999998,0.0499999999999998,0.65,0.65,     199P    164
1.,1.,22.,7.,51.,28.,7.,51.,0.0499999999999998,0.65,0.,0.,0.;        199P    165
126,1,1,0,0,1,0,0.0499999999999998,0.0499999999999998,               201P    166
0.470000000000002,0.470000000000002,1.,1.,22.,3.,13.,26.2,3.,        201P    167
13.,0.0499999999999998,0.470000000000002,0.,0.,0.;                   201P    168
126,1,1,0,0,1,0,0.0499999999999998,0.0499999999999998,0.65,0.65,     203P    169
1.,1.,28.,7.,13.,22.,7.,13.,0.0499999999999998,0.65,0.,0.,0.;        203P    170
126,2,2,0,0,0,0,-0.785398163397451,-0.785398163397451,               205P    171
-0.785398163397451,0.785398163397446,0.785398163397446,              205P    172
0.785398163397446,1.,0.707106781186551,1.,28.5,6.5,13.,28.5,7.,      205P    173
13.,28.,7.,13.,-0.785398163397451,0.785398163397446,0.,0.,0.;        205P    174
126,1,1,0,0,1,0,-0.35,-0.35,0.25,0.25,1.,1.,28.5,6.5,13.,28.5,       207P    175
0.499999999999999,13.,-0.35,0.25,0.,0.,0.;                           207P    176
126,2,2,0,0,0,0,-0.785398163397447,-0.785398163397447,               209P    177
-0.785398163397447,0.78539816339745,0.78539816339745,                209P    178
0.78539816339745,1.,0.707106781186551,1.,28.,                        209P    179
-8.32667268468867D-16,13.,28.5,-8.32667268468867D-16,13.,28.5,       209P    180
0.499999999999999,13.,-0.785398163397447,0.78539816339745,0.,0.,     209P    181
0.;                                                                  209P    182
126,1,1,0,0,1,0,0.570000000000002,0.570000000000002,0.65,0.65,       211P    183
1.,1.,27.2,-5.55111512312578D-16,13.,28.,-5.55111512312578D-16,      211P    184
13.,0.570000000000002,0.65,0.,0.,0.;                                 211P    185
126,2,2,0,0,0,0,-0.78539816339745,-0.78539816339745,                 213P    186
-0.78539816339745,0.785398163397447,0.785398163397447,               213P    187
0.785398163397447,1.,0.707106781186551,1.,26.7,                      213P    188
0.499999999999999,13.,26.7,-8.32667268468867D-16,13.,27.2,           213P    189
-8.32667268468867D-16,13.,-0.78539816339745,0.785398163397447,       213P    190
0.,0.,0.;                                                            213P    191
126,1,1,0,0,1,0,-1.875,-1.875,1.925,1.925,1.,1.,28.,7.,13.,28.,      215P    192
7.,51.,-1.875,1.925,0.,0.,0.;                                        215P    193
126,1,1,0,0,1,0,-1.925,-1.925,1.875,1.875,1.,1.,28.5,6.5,51.,        217P    194
28.5,6.5,13.,-1.925,1.875,0.,0.,0.;                                  217P    195
126,1,1,0,0,1,0,0.0499999999999996,0.0499999999999996,1.6,1.6,       219P    196
1.,1.,21.5,7.,12.5,21.5,7.,-3.,0.0499999999999996,1.6,0.,0.,0.;      219P    197
126,1,1,0,0,1,0,-0.5125,-0.5125,1.4375,1.4375,1.,1.,2.,7.,-3.,       221P    198
21.5,7.,-3.,-0.5125,1.4375,0.,0.,0.;                                 221P    199
126,1,1,0,0,1,0,-2.525,-2.525,3.075,3.075,1.,1.,2.,7.,53.,2.,7.,     223P    200
-3.,-2.525,3.075,0.,0.,0.;                                           223P    201
126,1,1,0,0,1,0,0.,0.,1.85,1.85,1.,1.,2.,7.,53.,20.5,7.,53.,0.,      225P    202
1.85,0.,0.,0.;                                                       225P    203
126,2,2,0,0,0,0,0.,0.,0.,1.5707963267949,1.5707963267949,            227P    204
1.5707963267949,1.,0.707106781186545,1.,20.5,7.,53.,21.5,7.,53.,     227P    205
21.5,7.,52.,0.,1.5707963267949,0.,0.,0.;                             227P    206
126,1,1,0,0,1,0,0.,0.,0.0500000000000007,0.0500000000000007,1.,      229P    207
1.,21.5,7.,52.,21.5,7.,51.5,0.,0.0500000000000007,0.,0.,0.;          229P    208
126,2,2,0,0,0,0,0.,0.,0.,1.5707963267949,1.5707963267949,            231P    209
1.5707963267949,1.,0.707106781186542,1.,0.,-50.8,-3.,0.,-52.8,       231P    210
-3.,2.,-52.8,-3.,0.,1.5707963267949,0.,0.,0.;                        231P    211
126,2,2,0,0,0,0,0.,0.,0.,1.5707963267949,1.5707963267949,            233P    212
1.5707963267949,1.,0.707106781186548,1.,2.,-50.8,-5.,                233P    213
-1.60410219698037D-15,-50.8,-5.,-1.66533453693773D-15,-50.8,-3.,     233P    214
0.,1.5707963267949,0.,0.,0.;                                         233P    215
126,2,2,0,0,0,0,0.,0.,0.,1.5707963267949,1.5707963267949,            235P    216
1.5707963267949,1.,0.707106781186542,1.,2.,-52.8,-3.,2.,-52.8,       235P    217
-5.,2.,-50.8,-5.,0.,1.5707963267949,0.,0.,0.;                        235P    218
126,2,2,0,0,0,0,1.54074395550979D-31,1.54074395550979D-31,           237P    219
1.54074395550979D-31,1.5707963267949,1.5707963267949,                237P    220
1.5707963267949,1.,0.707106781186547,1.,2.,5.,-5.,2.,7.,-5.,2.,      237P    221
7.,-3.,1.54074395550979D-31,1.5707963267949,0.,0.,0.;                237P    222
126,2,2,0,0,0,0,0.,0.,0.,1.5707963267949,1.5707963267949,            239P    223
1.5707963267949,1.,0.707106781186548,1.,0.,5.,-3.,0.,5.,-5.,2.,      239P    224
5.,-5.,0.,1.5707963267949,0.,0.,0.;                                  239P    225
126,2,2,0,0,0,0,0.,0.,0.,1.5707963267949,1.5707963267949,            241P    226
1.5707963267949,1.,0.707106781186547,1.,2.,7.,-3.,                   241P    227
6.12323399573676D-17,7.,-3.,0.,5.,-3.,0.,1.5707963267949,0.,0.,      241P    228
0.;                                                                  241P    229
126,1,1,0,0,1,0,-4.335,-4.335,1.245,1.245,1.,1.,2.,5.,-5.,2.,        243P    230
-50.8,-5.,-4.335,1.245,0.,0.,0.;                                     243P    231
126,1,1,0,0,1,0,-1.245,-1.245,4.335,4.335,1.,1.,0.,-50.8,-3.,0.,     245P    232
5.,-3.,-1.245,4.335,0.,0.,0.;                                        245P    233
126,2,2,0,0,0,0,5.49778714378214,5.49778714378214,                   247P    234
5.49778714378214,7.06858347057703,7.06858347057703,                  247P    235
7.06858347057703,1.,0.707106781186547,1.,-5.55111512312578D-16,      247P    236
5.,68.,-1.04083408558608D-15,7.,68.,2.,7.,68.,5.49778714378214,      247P    237
7.06858347057703,0.,0.,0.;                                           247P    238
126,1,1,0,0,1,0,0.,0.,1.5,1.5,1.,1.,2.,7.,68.,2.,7.,53.,0.,1.5,      249P    239
0.,0.,0.;                                                            249P    240
126,1,1,0,0,1,0,-3.075,-3.075,4.025,4.025,1.,1.,0.,5.,-3.,0.,5.,     251P    241
68.,-3.075,4.025,0.,0.,0.;                                           251P    242
126,2,2,0,0,0,0,-0.785398163397448,-0.785398163397448,               253P    243
-0.785398163397448,0.785398163397448,0.785398163397448,              253P    244
0.785398163397448,1.,0.707106781186548,1.,21.5,7.,-3.,21.5,7.,       253P    245
-5.,21.5,5.,-5.,-0.785398163397448,0.785398163397448,0.,0.,0.;       253P    246
126,1,1,0,0,1,0,-1.4375,-1.4375,0.5125,0.5125,1.,1.,21.5,5.,-5.,     255P    247
2.,5.,-5.,-1.4375,0.5125,0.,0.,0.;                                   255P    248
126,2,2,0,0,0,0,-0.785398163397446,-0.785398163397446,               257P    249
-0.785398163397446,0.785398163397451,0.785398163397451,              257P    250
0.785398163397451,1.,0.707106781186541,1.,21.5,-50.8,-5.,21.5,       257P    251
-52.8,-5.,21.5,-52.8,-3.,-0.785398163397446,0.785398163397451,       257P    252
0.,0.,0.;                                                            257P    253
126,1,1,0,0,1,0,-2.15,-2.15,-0.2,-0.2,1.,1.,21.5,-52.8,-3.,2.,       259P    254
-52.8,-3.,-2.15,-0.2,0.,0.,0.;                                       259P    255
126,1,1,0,0,1,0,0.2,0.2,2.15,2.15,1.,1.,2.,-50.8,-5.,21.5,-50.8,     261P    256
-5.,0.2,2.15,0.,0.,0.;                                               261P    257
126,2,2,0,0,0,0,-0.78539816339745,-0.78539816339745,                 263P    258
-0.78539816339745,0.785398163397447,0.785398163397447,               263P    259
0.785398163397447,1.,0.707106781186541,1.,2.,-52.8,68.,              263P    260
2.08166817117217D-16,-52.8,68.,0.,-50.8,68.,-0.78539816339745,       263P    261
0.785398163397447,0.,0.,0.;                                          263P    262
126,1,1,0,0,1,0,-2.95,-2.95,4.15,4.15,1.,1.,0.,-50.8,68.,0.,         265P    263
-50.8,-3.,-2.95,4.15,0.,0.,0.;                                       265P    264
126,1,1,0,0,1,0,-4.15,-4.15,1.45,1.45,1.,1.,2.,-52.8,-3.,2.,         267P    265
-52.8,53.,-4.15,1.45,0.,0.,0.;                                       267P    266
126,1,1,0,0,1,0,-1.5,-1.5,0.,0.,1.,1.,2.,-52.8,68.,2.,-52.8,53.,     269P    267
-1.5,0.,0.,0.,0.;                                                    269P    268
126,1,1,0,0,1,0,0.2,0.2,5.78,5.78,1.,1.,0.,-50.8,68.,0.,5.,68.,      271P    269
0.2,5.78,0.,0.,0.;                                                   271P    270
126,4,2,0,0,0,0,0.,0.,0.,1.5707963267949,1.5707963267949,            273P    271
3.14159265358979,3.14159265358979,3.14159265358979,1.,               273P    272
0.707106781186549,1.,0.707106781186549,1.,0.,-37.5,65.,0.,-42.,      273P    273
65.,0.,-42.,60.5,0.,-42.,56.,0.,-37.5,56.,0.,3.14159265358979,       273P    274
0.,0.,0.;                                                            273P    275
126,4,2,0,0,0,0,3.14159265358979,3.14159265358979,                   275P    276
3.14159265358979,4.71238898038469,4.71238898038469,                  275P    277
6.28318530717959,6.28318530717959,6.28318530717959,1.,               275P    278
0.707106781186546,1.,0.707106781186549,1.,0.,-37.5,56.,0.,-33.,      275P    279
56.,0.,-33.,60.5,0.,-33.,65.,0.,-37.5,65.,3.14159265358979,          275P    280
6.28318530717959,0.,0.,0.;                                           275P    281
126,1,1,0,0,1,0,0.,0.,4.8,4.8,1.,1.,0.,-47.8,0.,0.,-47.8,48.,0.,     277P    282
4.8,0.,0.,0.;                                                        277P    283
126,1,1,0,0,1,0,-3.585,-3.585,1.195,1.195,1.,1.,0.,0.,0.,0.,         279P    284
-47.8,0.,-3.585,1.195,0.,0.,0.;                                      279P    285
126,1,1,0,0,1,0,0.,0.,4.8,4.8,1.,1.,0.,0.,48.,0.,0.,0.,0.,4.8,       281P    286
0.,0.,0.;                                                            281P    287
126,1,1,0,0,1,0,-3.585,-3.585,1.195,1.195,1.,1.,0.,-47.8,48.,0.,     283P    288
0.,48.,-3.585,1.195,0.,0.,0.;                                        283P    289
126,1,1,0,0,1,0,-5.78,-5.78,0.2,0.2,1.,1.,2.,-52.8,68.,2.,7.,        285P    290
68.,-5.78,0.2,0.,0.,0.;                                              285P    291
126,1,1,0,0,1,0,0.0999999999999996,0.0999999999999996,5.6,5.6,       287P    292
1.,1.,21.5,-52.8,52.,21.5,-52.8,-3.,0.0999999999999996,5.6,0.,       287P    293
0.,0.;                                                               287P    294
126,2,2,0,0,0,0,-0.785398163397448,-0.785398163397448,               289P    295
-0.785398163397448,0.785398163397448,0.785398163397448,              289P    296
0.785398163397448,1.,0.707106781186545,1.,20.5,-52.8,53.,21.5,       289P    297
-52.8,53.,21.5,-52.8,52.,-0.785398163397448,0.785398163397448,       289P    298
0.,0.,0.;                                                            289P    299
126,1,1,0,0,1,0,0.2,0.2,2.05,2.05,1.,1.,2.,-52.8,53.,20.5,-52.8,     291P    300
53.,0.2,2.05,0.,0.,0.;                                               291P    301
126,1,1,0,0,1,0,-5.78,-5.78,0.2,0.2,1.,1.,21.5,-52.8,52.,21.5,       293P    302
7.,52.,-5.78,0.2,0.,0.,0.;                                           293P    303
126,1,1,0,0,1,0,-1.645,-1.645,4.335,4.335,1.,1.,20.5,7.,53.,         295P    304
20.5,-52.8,53.,-1.645,4.335,0.,0.,0.;                                295P    305
126,1,1,0,0,1,0,-1.645,-1.645,4.335,4.335,1.,1.,2.,7.,53.,2.,        297P    306
-52.8,53.,-1.645,4.335,0.,0.,0.;                                     297P    307
126,1,1,0,0,1,0,-0.537645329190164,-0.537645329190164,               299P    308
1.61293598757049,1.61293598757049,1.,1.,0.,1.11022302462516D-15,     299P    309
48.,21.5,1.11022302462516D-15,47.5,-0.537645329190164,               299P    310
1.61293598757049,0.,0.,0.;                                           299P    311
126,1,1,0,0,1,0,0.,0.,4.78,4.78,1.,1.,21.5,-47.8,47.5,21.5,0.,       301P    312
47.5,0.,4.78,0.,0.,0.;                                               301P    313
126,1,1,0,0,1,0,-1.55713712097346,-1.55713712097346,                 303P    314
0.593444195787197,0.593444195787197,1.,1.,21.5,-47.8,47.5,0.,        303P    315
-47.8,48.,-1.55713712097346,0.593444195787197,0.,0.,0.;              303P    316
126,1,1,0,0,1,0,-0.537645329190164,-0.537645329190164,               305P    317
1.61293598757049,1.61293598757049,1.,1.,0.,-47.8,                    305P    318
-1.73472347597681D-17,21.5,-47.8,0.5,-0.537645329190164,             305P    319
1.61293598757049,0.,0.,0.;                                           305P    320
126,1,1,0,0,1,0,0.,0.,4.78,4.78,1.,1.,21.5,0.,0.5,21.5,-47.8,        307P    321
0.5,0.,4.78,0.,0.,0.;                                                307P    322
126,1,1,0,0,1,0,-1.55713712097346,-1.55713712097346,                 309P    323
0.593444195787197,0.593444195787197,1.,1.,21.5,                      309P    324
-2.22044604925031D-15,0.500000000000004,1.11022302462516D-15,        309P    325
-2.22044604925031D-15,4.31946145518225D-15,-1.55713712097346,        309P    326
0.593444195787197,0.,0.,0.;                                          309P    327
126,1,1,0,0,1,0,0.0499999999999998,0.0499999999999998,4.75,4.75,     311P    328
1.,1.,21.5,0.,47.5,21.5,0.,0.499999999999998,0.0499999999999998,     311P    329
4.75,0.,0.,0.;                                                       311P    330
126,1,1,0,0,1,0,-2.85,-2.85,0.95,0.95,1.,1.,27.2,                    313P    331
-5.55111512312578D-16,13.,27.2,-5.55111512312578D-16,51.,-2.85,      313P    332
0.95,0.,0.,0.;                                                       313P    333
126,1,1,0,0,1,0,-1.9,-1.9,1.9,1.9,1.,1.,28.,                         315P    334
-5.55111512312578D-16,51.,28.,-5.55111512312578D-16,13.,-1.9,        315P    335
1.9,0.,0.,0.;                                                        315P    336
126,1,1,0,0,1,0,-1.9,-1.9,1.9,1.9,1.,1.,28.5,0.499999999999999,      317P    337
13.,28.5,0.499999999999999,51.,-1.9,1.9,0.,0.,0.;                    317P    338
126,1,1,0,0,1,0,-0.176776695296637,-0.176776695296637,               319P    339
0.176776695296637,0.176776695296637,1.,1.,-1.73472347597681D-15,     319P    340
-37.5,56.,1.,-37.5,57.,-0.176776695296637,0.176776695296637,0.,      319P    341
0.,0.;                                                               319P    342
126,4,2,0,0,0,0,0.,0.,0.,1.5707963267949,1.5707963267949,            321P    343
3.14159265358979,3.14159265358979,3.14159265358979,1.,               321P    344
0.707106781186552,1.,0.707106781186552,1.,0.999999999999996,         321P    345
-37.5,64.,0.999999999999996,-34.,64.,0.999999999999996,-34.,         321P    346
60.5,0.999999999999996,-34.,57.,0.999999999999996,-37.5,57.,0.,      321P    347
3.14159265358979,0.,0.,0.;                                           321P    348
126,4,2,0,0,0,0,3.14159265358979,3.14159265358979,                   323P    349
3.14159265358979,4.71238898038469,4.71238898038469,                  323P    350
6.28318530717959,6.28318530717959,6.28318530717959,1.,               323P    351
0.707106781186555,1.,0.707106781186547,1.,0.999999999999996,         323P    352
-37.5,57.,0.999999999999996,-41.,57.,0.999999999999996,-41.,         323P    353
60.5,0.999999999999996,-41.,64.,0.999999999999996,-37.5,64.,         323P    354
3.14159265358979,6.28318530717959,0.,0.,0.;                          323P    355
126,1,1,0,0,1,0,-27.5360067837182,-27.5360067837182,                 325P    356
-27.250292498004,-27.250292498004,1.,1.,0.999999999999996,-37.5,     325P    357
57.,1.99999999999999,-37.5,57.,-27.5360067837182,                    325P    358
-27.250292498004,0.,0.,0.;                                           325P    359
126,8,2,0,1,0,0,-3.14159265358979,-3.14159265358979,                 327P    360
-3.14159265358979,-1.5707963267949,-1.5707963267949,0.,0.,           327P    361
1.5707963267949,1.5707963267949,3.14159265358979,                    327P    362
3.14159265358979,3.14159265358979,1.,0.707106781186555,1.,           327P    363
0.707106781186555,1.,0.707106781186552,1.,0.707106781186552,1.,      327P    364
1.99999999999999,-37.5,57.,1.99999999999999,-41.,57.,                327P    365
1.99999999999999,-41.,60.5,1.99999999999999,-41.,64.,                327P    366
1.99999999999999,-37.5,64.,1.99999999999999,-34.,64.,                327P    367
1.99999999999999,-34.,60.5,1.99999999999999,-34.,57.,                327P    368
1.99999999999999,-37.5,57.,-3.14159265358979,3.14159265358979,       327P    369
0.,0.,0.;                                                            327P    370
126,1,1,0,0,1,0,0.2,0.2,5.78,5.78,1.,1.,21.5,-50.8,-5.,21.5,5.,      329P    371
-5.,0.2,5.78,0.,0.,0.;                                               329P    372
126,1,1,0,0,1,0,0.05,0.05,4.75,4.75,1.,1.,21.5,-47.8,0.5,21.5,       331P    373
-47.8,47.5,0.05,4.75,0.,0.,0.;                                       331P    374
128,1,2,1,2,0,0,0,0,0,-76.,-76.,0.,0.,-0.785398163397451,            333P    375
-0.785398163397451,-0.785398163397451,0.785398163397446,             333P    376
0.785398163397446,0.785398163397446,1.,1.,0.707106781186548,         333P    377
0.707106781186548,1.,1.,26.7,2.5,13.,26.7,2.5,51.,26.7,3.,13.,       333P    378
26.7,3.,51.,26.2,3.,13.,26.2,3.,51.,-76.,0.,-0.785398163397451,      333P    379
0.785398163397446;                                                   333P    380
128,1,1,1,1,0,0,1,0,0,-0.001,-0.001,3.801,3.801,0.049,0.049,         335P    381
0.251,0.251,1.,1.,1.,1.,26.7,2.51,51.01,26.7,2.51,12.99,26.7,        335P    382
0.489999999999999,51.01,26.7,0.489999999999999,12.99,-0.001,         335P    383
3.801,0.049,0.251;                                                   335P    384
128,1,2,1,2,0,0,0,0,0,23.9,23.9,32.9,32.9,-0.78539816339744,         337P    385
-0.78539816339744,-0.78539816339744,0.785398163397457,               337P    386
0.785398163397457,0.785398163397457,1.,1.,0.707106781186548,         337P    387
0.707106781186548,1.,1.,22.,2.5,51.,22.,7.,51.,21.5,2.5,51.,         337P    388
21.5,7.,51.,21.5,2.5,51.5,21.5,7.,51.5,23.9,32.9,                    337P    389
-0.78539816339744,0.785398163397457;                                 337P    390
128,1,2,1,2,0,0,0,0,0,-34.9,-34.9,-25.9,-25.9,                       339P    391
-0.785398163397433,-0.785398163397433,-0.785398163397433,            339P    392
0.785398163397436,0.785398163397436,0.785398163397436,1.,1.,         339P    393
0.707106781186557,0.707106781186557,1.,1.,22.,7.00000000000002,      339P    394
13.,22.,2.5,13.,21.5,7.00000000000002,13.,21.5,2.5,13.,21.5,         339P    395
7.00000000000002,12.5,21.5,2.5,12.5,-34.9,-25.9,                     339P    396
-0.785398163397433,0.785398163397436;                                339P    397
128,1,2,1,2,0,0,0,0,0,-50.,-50.,28.,28.,-0.785398163397446,          341P    398
-0.785398163397446,-0.785398163397446,0.785398163397451,             341P    399
0.785398163397451,0.785398163397451,1.,1.,0.707106781186548,         341P    400
0.707106781186548,1.,1.,22.,3.,12.5,22.,3.,51.5,21.5,3.,12.5,        341P    401
21.5,3.,51.5,21.5,2.5,12.5,21.5,2.5,51.5,-50.,28.,                   341P    402
-0.785398163397446,0.785398163397451;                                341P    403
128,1,1,1,1,0,0,1,0,0,-0.201,-0.201,0.501,0.501,                     343P    404
0.0489999999999998,0.0489999999999998,0.701,0.701,1.,1.,1.,1.,       343P    405
21.99,7.01,51.,21.99,-0.0100000000000011,51.,28.51,7.01,51.,         343P    406
28.51,-0.0100000000000011,51.,-0.201,0.501,0.0489999999999998,       343P    407
0.701;                                                               343P    408
128,1,1,1,1,0,0,1,0,0,-0.001,-0.001,3.801,3.801,                     345P    409
0.0489999999999998,0.0489999999999998,0.471000000000002,             345P    410
0.471000000000002,1.,1.,1.,1.,21.99,3.,51.01,21.99,3.,12.99,         345P    411
26.21,3.,51.01,26.21,3.,12.99,-0.001,3.801,0.0489999999999998,       345P    412
0.471000000000002;                                                   345P    413
128,1,1,1,1,0,0,1,0,0,-0.301,-0.301,0.401,0.401,                     347P    414
0.0489999999999998,0.0489999999999998,0.701000000000002,             347P    415
0.701000000000002,1.,1.,1.,1.,21.99,-0.0100000000000011,13.,         347P    416
21.99,7.01,13.,28.51,-0.0100000000000011,13.,28.51,7.01,13.,         347P    417
-0.301,0.401,0.0489999999999998,0.701000000000002;                   347P    418
128,1,2,1,2,0,0,0,0,0,-38.5,-38.5,37.5,37.5,-0.785398163397446,      349P    419
-0.785398163397446,-0.785398163397446,0.785398163397451,             349P    420
0.785398163397451,0.785398163397451,1.,1.,0.707106781186548,         349P    421
0.707106781186548,1.,1.,28.,7.,13.,28.,7.,51.,28.5,7.,13.,28.5,      349P    422
7.,51.,28.5,6.5,13.,28.5,6.5,51.,-38.5,37.5,-0.785398163397446,      349P    423
0.785398163397451;                                                   349P    424
128,1,1,1,1,0,0,1,0,0,-3.451,-3.451,2.151,2.151,-1.226,-1.226,       351P    425
1.376,1.376,1.,1.,1.,1.,1.99,7.,-3.01,1.99,7.,53.01,28.01,7.,        351P    426
-3.01,28.01,7.,53.01,-3.451,2.151,-1.226,1.376;                      351P    427
128,4,4,2,2,0,0,0,0,0,-0.640720553055397,-0.640720553055397,         353P    428
-0.640720553055397,0.157298032534556,0.157298032534556,              353P    429
0.955316618124509,0.955316618124509,0.955316618124509,               353P    430
-0.886077123792614,-0.886077123792614,-0.886077123792614,            353P    431
-1.11022302462516D-16,-1.11022302462516D-16,0.886077123792613,       353P    432
0.886077123792613,0.886077123792613,1.,0.921446341486305,1.,         353P    433
0.921446341486288,1.,0.903453245064092,0.832483687368237,            353P    434
0.903453245064092,0.832483687368222,0.903453245064092,1.,            353P    435
0.921446341486305,1.,0.921446341486288,1.,0.903453245064092,         353P    436
0.832483687368237,0.903453245064092,0.832483687368222,               353P    437
0.903453245064092,1.,0.921446341486305,1.,0.921446341486288,1.,      353P    438
1.61257411327721,-52.5549703546891,-2.12251482265544,                353P    439
0.785294961656182,-52.4088667544647,-2.19556662276766,               353P    440
0.32470280361328,-51.7770892707542,-2.51145536462288,                353P    441
-0.135889354429617,-51.1453117870438,-2.8273441064781,               353P    442
0.0482864116477101,-50.4092939017204,-3.19535304913978,              353P    443
1.61257411327721,-52.8,-2.6125741132772,0.785294961656182,-52.8,     353P    444
-2.97783311383831,0.324702803613281,-52.1962534409537,               353P    445
-3.34978370502186,-0.135889354429617,-51.5925068819074,              353P    446
-3.72173429620541,0.0482864116477107,-50.7495236713751,              353P    447
-3.87581258844911,2.,-52.8,-3.,1.40373092390894,-52.8,               353P    448
-3.59626907609106,0.987459549295711,-52.1962534409537,               353P    449
-4.01254045070429,0.571188174682487,-51.5925068819074,               353P    450
-4.42881182531751,0.586236911599302,-50.7495236713751,               353P    451
-4.4137630884007,2.38742588672279,-52.8,-3.38742588672279,           353P    452
2.02216688616169,-52.8,-4.21470503834382,1.65021629497814,           353P    453
-52.1962534409537,-4.67529719638672,1.27826570379459,                353P    454
-51.5925068819074,-5.13588935442962,1.12418741155089,                353P    455
-50.7495236713751,-4.95171358835229,2.87748517734456,                353P    456
-52.5549703546891,-3.38742588672279,2.80443337723234,                353P    457
-52.4088667544647,-4.21470503834382,2.48854463537712,                353P    458
-51.7770892707542,-4.67529719638672,2.17265589352189,                353P    459
-51.1453117870438,-5.13588935442962,1.80464695086022,                353P    460
-50.4092939017204,-4.95171358835229,-0.640720553055397,              353P    461
0.955316618124509,-0.886077123792614,0.886077123792613;              353P    462
128,4,4,2,2,0,0,0,0,0,-0.95531661812451,-0.95531661812451,           355P    463
-0.95531661812451,-0.157298032534544,-0.157298032534544,             355P    464
0.640720553055422,0.640720553055422,0.640720553055422,               355P    465
-0.886077123792614,-0.886077123792614,-0.886077123792614,            355P    466
-2.22044604925031D-16,-2.22044604925031D-16,0.886077123792613,       355P    467
0.886077123792613,0.886077123792613,1.,0.921446341486267,1.,         355P    468
0.921446341486272,1.,0.903453245064092,0.832483687368203,            355P    469
0.903453245064092,0.832483687368208,0.903453245064092,1.,            355P    470
0.921446341486267,1.,0.921446341486272,1.,0.903453245064092,         355P    471
0.832483687368203,0.903453245064092,0.832483687368208,               355P    472
0.903453245064092,1.,0.921446341486267,1.,0.921446341486272,1.,      355P    473
0.0482864116477242,4.6092939017204,-3.1953530491398,                 355P    474
-0.135889354429629,5.34531178704376,-2.82734410647812,               355P    475
0.324702803613268,5.97708927075422,-2.51145536462289,                355P    476
0.785294961656164,6.60886675446467,-2.19556662276766,                355P    477
1.61257411327721,6.75497035468912,-2.12251482265544,                 355P    478
0.0482864116477245,4.94952367137506,-3.87581258844911,               355P    479
-0.135889354429629,5.79250688190741,-3.72173429620542,               355P    480
0.324702803613268,6.39625344095371,-3.34978370502187,                355P    481
0.785294961656165,7.,-2.97783311383832,1.61257411327721,7.,          355P    482
-2.6125741132772,0.586236911599305,4.94952367137506,                 355P    483
-4.4137630884007,0.571188174682475,5.79250688190741,                 355P    484
-4.42881182531753,0.9874595492957,6.39625344095371,                  355P    485
-4.0125404507043,1.40373092390892,7.,-3.59626907609108,2.,7.,        355P    486
-3.,1.12418741155089,4.94952367137506,-4.95171358835227,             355P    487
1.27826570379458,5.79250688190741,-5.13588935442963,                 355P    488
1.65021629497813,6.39625344095371,-4.67529719638673,                 355P    489
2.02216688616168,7.,-4.21470503834383,2.38742588672279,7.,           355P    490
-3.38742588672279,1.8046469508602,4.6092939017204,                   355P    491
-4.95171358835227,2.17265589352188,5.34531178704376,                 355P    492
-5.13588935442963,2.48854463537711,5.97708927075422,                 355P    493
-4.67529719638673,2.80443337723234,6.60886675446467,                 355P    494
-4.21470503834383,2.87748517734456,6.75497035468912,                 355P    495
-3.38742588672279,-0.95531661812451,0.640720553055422,               355P    496
-0.886077123792614,0.886077123792613;                                355P    497
128,1,2,1,2,0,0,0,0,0,-6.225,-6.225,21.675,21.675,                   357P    498
-0.785398163397448,-0.785398163397448,-0.785398163397448,            357P    499
0.785398163397449,0.785398163397449,0.785398163397449,1.,1.,         357P    500
0.707106781186547,0.707106781186547,1.,1.,2.,5.,-5.,2.,-50.8,        357P    501
-5.,8.32667268468867D-16,5.,-5.,8.32667268468867D-16,-50.8,-5.,      357P    502
1.38777878078145D-16,5.,-3.,1.38777878078145D-16,-50.8,-3.,          357P    503
-6.225,21.675,-0.785398163397448,0.785398163397449;                  357P    504
128,1,2,1,2,0,0,0,0,0,-15.375,-15.375,20.125,20.125,                 359P    505
-0.785398163397449,-0.785398163397449,-0.785398163397449,            359P    506
0.785398163397449,0.785398163397449,0.785398163397449,1.,1.,         359P    507
0.707106781186547,0.707106781186547,1.,1.,2.,7.,68.,2.,7.,-3.,       359P    508
-8.32667268468867D-16,7.,68.,-8.32667268468867D-16,7.,-3.,0.,5.,     359P    509
68.,0.,5.,-3.,-15.375,20.125,-0.785398163397449,                     359P    510
0.785398163397449;                                                   359P    511
128,1,2,1,2,0,0,0,0,0,-7.1875,-7.1875,2.5625,2.5625,                 361P    512
-0.785398163397448,-0.785398163397448,-0.785398163397448,            361P    513
0.785398163397448,0.785398163397448,0.785398163397448,1.,1.,         361P    514
0.707106781186548,0.707106781186548,1.,1.,2.,7.,-3.,21.5,7.,-3.,     361P    515
2.,7.,-5.,21.5,7.,-5.,2.,5.,-5.,21.5,5.,-5.,-7.1875,2.5625,          361P    516
-0.785398163397448,0.785398163397448;                                361P    517
128,1,2,1,2,0,0,0,0,0,1.,1.,10.75,10.75,-0.785398163397451,          363P    518
-0.785398163397451,-0.785398163397451,0.785398163397446,             363P    519
0.785398163397446,0.785398163397446,1.,1.,0.707106781186548,         363P    520
0.707106781186548,1.,1.,21.5,-52.8,-3.,2.,-52.8,-3.,21.5,-52.8,      363P    521
-5.,2.,-52.8,-5.,21.5,-50.8,-5.,2.,-50.8,-5.,1.,10.75,               363P    522
-0.785398163397451,0.785398163397446;                                363P    523
128,1,2,1,2,0,0,0,0,0,-20.75,-20.75,14.75,14.75,                     365P    524
-0.785398163397447,-0.785398163397447,-0.785398163397447,            365P    525
0.78539816339745,0.78539816339745,0.78539816339745,1.,1.,            365P    526
0.707106781186548,0.707106781186548,1.,1.,2.77555756156289D-16,      365P    527
-50.8,68.,2.77555756156289D-16,-50.8,-3.,-3.33066907387547D-15,      365P    528
-52.8,68.,-3.33066907387547D-15,-52.8,-3.,2.,-52.8,68.,2.,-52.8,     365P    529
-3.,-20.75,14.75,-0.785398163397447,0.78539816339745;                365P    530
128,1,1,1,1,0,0,1,0,0,-4.401,-4.401,2.701,2.701,-2.691,-2.691,       367P    531
2.891,2.891,1.,1.,1.,1.,0.,-50.81,-3.01,0.,-50.81,68.01,0.,          367P    532
5.00999999999999,-3.00999999999999,0.,5.01,68.01,-4.401,2.701,       367P    533
-2.691,2.891;                                                        367P    534
128,1,1,1,1,0,0,1,0,0,-0.201,-0.201,5.781,5.781,                     369P    535
-0.0010000000000001,-0.0010000000000001,0.201,0.201,1.,1.,1.,1.,     369P    536
-0.010000000000001,7.01,68.,-0.010000000000001,-52.81,68.,2.01,      369P    537
7.01,68.,2.01,-52.81,68.,-0.201,5.781,-0.0010000000000001,0.201;     369P    538
128,1,1,1,1,0,0,1,0,0,-0.001,-0.001,5.601,5.601,0.199,0.199,         371P    539
2.151,2.151,1.,1.,1.,1.,1.99,-52.8,53.01,1.99,-52.8,-3.01,21.51,     371P    540
-52.8,53.01,21.51,-52.8,-3.01,-0.001,5.601,0.199,2.151;              371P    541
128,1,2,1,2,0,0,0,0,0,-16.45,-16.45,43.35,43.35,                     373P    542
-0.785398163397448,-0.785398163397448,-0.785398163397448,            373P    543
0.785398163397448,0.785398163397448,0.785398163397448,1.,1.,         373P    544
0.707106781186548,0.707106781186548,1.,1.,21.5,-52.8,52.,21.5,       373P    545
7.,52.,21.5,-52.8,53.,21.5,7.,53.,20.5,-52.8,53.,20.5,7.,53.,        373P    546
-16.45,43.35,-0.785398163397448,0.785398163397448;                   373P    547
128,1,1,1,1,0,0,1,0,0,-0.201,-0.201,5.781,5.781,0.199,0.199,         375P    548
2.051,2.051,1.,1.,1.,1.,1.99,7.01,53.,1.99,-52.81,53.,20.51,         375P    549
7.01,53.,20.51,-52.81,53.,-0.201,5.781,0.199,2.051;                  375P    550
128,1,1,1,1,0,0,1,0,0,-1.07629065838033,-1.07629065838033,           377P    551
1.07629065838033,1.07629065838033,-3.586,-3.586,1.196,1.196,1.,      377P    552
1.,1.,1.,21.509997296932,-47.81,47.4997675047225,                    377P    553
-0.00999729693196949,-47.81,48.0002324952775,21.509997296932,        377P    554
0.0100000000000011,47.4997675047225,-0.00999729693197171,            377P    555
0.0100000000000033,48.0002324952775,-1.07629065838033,               377P    556
1.07629065838033,-3.586,1.196;                                       377P    557
128,1,1,1,1,0,0,1,0,0,-1.07629065838033,-1.07629065838033,           379P    558
1.07629065838033,1.07629065838033,-1.196,-1.196,3.586,3.586,1.,      379P    559
1.,1.,1.,-0.00999729693196727,-47.81,-0.000232495277487643,          379P    560
21.509997296932,-47.81,0.500232495277488,-0.00999729693196727,       379P    561
0.0099999999999989,-0.000232495277487643,21.509997296932,            379P    562
0.00999999999999446,0.500232495277488,-1.07629065838033,             379P    563
1.07629065838033,-1.196,3.586;                                       379P    564
128,1,1,1,1,0,0,1,0,0,-0.001,-0.001,4.801,4.801,                     381P    565
-0.00100000000000022,-0.00100000000000022,2.151,2.151,1.,1.,1.,      381P    566
1.,-0.0100000000000022,0.,48.01,-0.0100000000000022,0.,              381P    567
-0.0100000000000033,21.51,0.,48.01,21.51,0.,-0.0100000000000033,     381P    568
-0.001,4.801,-0.00100000000000022,2.151;                             381P    569
128,1,2,1,2,0,0,0,0,0,-19.,-19.,57.,57.,-0.785398163397456,          383P    570
-0.785398163397456,-0.785398163397456,0.785398163397458,             383P    571
0.785398163397458,0.785398163397458,1.,1.,0.707106781186541,         383P    572
0.707106781186541,1.,1.,27.2,-5.89805981832114D-16,13.,27.2,         383P    573
-5.89805981832114D-16,51.,26.7,-5.96744875736022D-15,13.,26.7,       383P    574
-5.96744875736022D-15,51.,26.7,0.500000000000003,13.,26.7,           383P    575
0.500000000000003,51.,-19.,57.,-0.785398163397456,                   383P    576
0.785398163397458;                                                   383P    577
128,1,1,1,1,0,0,1,0,0,-1.901,-1.901,1.901,1.901,                     385P    578
-0.0410000000000009,-0.0410000000000009,0.0409999999999987,          385P    579
0.0409999999999987,1.,1.,1.,1.,27.19,-5.55111512312578D-16,          385P    580
51.01,27.19,-5.55111512312578D-16,12.99,28.01,                       385P    581
-5.55111512312578D-16,51.01,28.01,-5.55111512312578D-16,12.99,       385P    582
-1.901,1.901,-0.0410000000000009,0.0409999999999987;                 385P    583
128,1,2,1,2,0,0,0,0,0,-38.,-38.,38.,38.,-0.785398163397447,          387P    584
-0.785398163397447,-0.785398163397447,0.78539816339745,              387P    585
0.78539816339745,0.78539816339745,1.,1.,0.707106781186548,           387P    586
0.707106781186548,1.,1.,28.,-6.59194920871187D-16,51.,28.,           387P    587
-6.59194920871187D-16,13.,28.5,-1.52655665885959D-15,51.,28.5,       387P    588
-1.52655665885959D-15,13.,28.5,0.499999999999999,51.,28.5,           387P    589
0.499999999999999,13.,-38.,38.,-0.785398163397447,                   387P    590
0.78539816339745;                                                    387P    591
128,1,8,1,2,0,1,0,0,1,-0.176776695296637,-0.176776695296637,         389P    592
0.176776695296637,0.176776695296637,-3.14159265358979,               389P    593
-3.14159265358979,-3.14159265358979,-1.5707963267949,                389P    594
-1.5707963267949,0.,0.,1.5707963267949,1.5707963267949,              389P    595
3.14159265358979,3.14159265358979,3.14159265358979,1.,1.,            389P    596
0.707106781186548,0.707106781186548,1.,1.,0.707106781186548,         389P    597
0.707106781186548,1.,1.,0.707106781186548,0.707106781186548,1.,      389P    598
1.,0.707106781186548,0.707106781186548,1.,1.,1.,-37.5,57.,           389P    599
-1.73472347597681D-15,-37.5,56.,1.,-41.,57.,                         389P    600
-1.73472347597681D-15,-42.,56.,1.,-41.,60.5,                         389P    601
-1.73472347597681D-15,-42.,60.5,1.,-41.,64.,                         389P    602
-1.73472347597681D-15,-42.,65.,1.,-37.5,64.,                         389P    603
-1.73472347597681D-15,-37.5,65.,1.,-34.,64.,                         389P    604
-1.73472347597681D-15,-33.,65.,1.,-34.,60.5,                         389P    605
-1.73472347597681D-15,-33.,60.5,1.,-34.,57.,                         389P    606
-1.73472347597681D-15,-33.,56.,1.,-37.5,57.,                         389P    607
-1.73472347597681D-15,-37.5,56.,-0.176776695296637,                  389P    608
0.176776695296637,-3.14159265358979,3.14159265358979;                389P    609
128,1,8,1,2,0,1,0,0,1,-27.5360067837182,-27.5360067837182,           391P    610
-27.250292498004,-27.250292498004,-3.14159265358979,                 391P    611
-3.14159265358979,-3.14159265358979,-1.5707963267949,                391P    612
-1.5707963267949,0.,0.,1.5707963267949,1.5707963267949,              391P    613
3.14159265358979,3.14159265358979,3.14159265358979,1.,1.,            391P    614
0.707106781186548,0.707106781186548,1.,1.,0.707106781186548,         391P    615
0.707106781186548,1.,1.,0.707106781186548,0.707106781186548,1.,      391P    616
1.,0.707106781186548,0.707106781186548,1.,1.,1.99999999999999,       391P    617
-37.5,57.,0.999999999999996,-37.5,57.,1.99999999999999,-41.,57.,     391P    618
0.999999999999996,-41.,57.,1.99999999999999,-41.,60.5,               391P    619
0.999999999999996,-41.,60.5,1.99999999999999,-41.,64.,               391P    620
0.999999999999996,-41.,64.,1.99999999999999,-37.5,64.,               391P    621
0.999999999999996,-37.5,64.,1.99999999999999,-34.,64.,               391P    622
0.999999999999996,-34.,64.,1.99999999999999,-34.,60.5,               391P    623
0.999999999999996,-34.,60.5,1.99999999999999,-34.,57.,               391P    624
0.999999999999996,-34.,57.,1.99999999999999,-37.5,57.,               391P    625
0.999999999999996,-37.5,57.,-27.5360067837182,-27.250292498004,      391P    626
-3.14159265358979,3.14159265358979;                                  391P    627
128,1,1,1,1,0,0,1,0,0,-1.901,-1.901,1.901,1.901,-0.351,-0.351,       393P    628
0.251,0.251,1.,1.,1.,1.,28.5,0.489999999999999,51.01,28.5,           393P    629
0.489999999999999,12.99,28.5,6.51,51.01,28.5,6.51,12.99,-1.901,      393P    630
1.901,-0.351,0.251;                                                  393P    631
128,1,1,1,1,0,0,1,0,0,-2.801,-2.801,2.901,2.901,-2.891,-2.891,       395P    632
3.091,3.091,1.,1.,1.,1.,21.5,-52.81,52.01,21.5,-52.81,-5.01,         395P    633
21.5,7.01,52.01,21.5,7.01,-5.00999999999999,-2.801,2.901,-2.891,     395P    634
3.091;                                                               395P    635
128,1,1,1,1,0,0,1,0,0,-0.751,-0.751,0.751,0.751,-2.891,-2.891,       397P    636
3.091,3.091,1.,1.,1.,1.,2.,-52.81,68.01,2.,-52.81,52.99,2.,          397P    637
7.01000000000001,68.01,2.,7.01000000000001,52.99,-0.751,0.751,       397P    638
-2.891,3.091;                                                        397P    639
128,1,1,1,1,0,0,1,0,0,-0.00100000000000001,-0.00100000000000001,     399P    640
4.801,4.801,-0.00100000000000022,-0.00100000000000022,2.151,         399P    641
2.151,1.,1.,1.,1.,-0.0100000000000022,-47.8,-0.0100000000000001,     399P    642
-0.0100000000000022,-47.8,48.01,21.51,-47.8,-0.0100000000000001,     399P    643
21.51,-47.8,48.01,-0.00100000000000001,4.801,                        399P    644
-0.00100000000000022,2.151;                                          399P    645
128,1,1,1,1,0,0,1,0,0,0.199,0.199,5.781,5.781,0.199,0.199,2.151,     401P    646
2.151,1.,1.,1.,1.,1.99,-50.81,-5.,1.99,5.01,-5.,21.51,-50.81,        401P    647
-5.,21.51,5.01,-5.,0.199,5.781,0.199,2.151;                          401P    648
502,57,26.2,3.,13.,26.7,2.5,13.,26.7,2.5,51.,26.2,3.,51.,26.7,       403P    649
0.499999999999999,13.,26.7,0.499999999999999,51.,22.,3.,51.,22.,     403P    650
7.,51.,21.5,7.,51.5,21.5,2.5,51.5,21.5,2.5,12.5,21.5,7.,12.5,        403P    651
22.,7.,13.,22.,3.,13.,27.2,-5.55111512312578D-16,51.,28.,            403P    652
-5.55111512312578D-16,51.,28.5,0.499999999999999,51.,28.5,6.5,       403P    653
51.,28.,7.,51.,28.,7.,13.,28.5,6.5,13.,28.5,0.499999999999999,       403P    654
13.,28.,-5.55111512312578D-16,13.,27.2,-5.55111512312578D-16,        403P    655
13.,21.5,7.,-3.,2.,7.,-3.,2.,7.,53.,20.5,7.,53.,21.5,7.,52.,0.,      403P    656
-50.8,-3.,2.,-52.8,-3.,2.,-50.8,-5.,2.,5.,-5.,0.,5.,-3.,0.,5.,       403P    657
68.,2.,7.,68.,21.5,5.,-5.,21.5,-50.8,-5.,21.5,-52.8,-3.,2.,          403P    658
-52.8,68.,0.,-50.8,68.,2.,-52.8,53.,0.,-37.5,65.,                    403P    659
-1.73472347597681D-15,-37.5,56.,0.,-47.8,0.,0.,-47.8,48.,0.,0.,      403P    660
0.,0.,0.,48.,21.5,-52.8,52.,20.5,-52.8,53.,21.5,0.,47.5,21.5,        403P    661
-47.8,47.5,21.5,-47.8,0.5,21.5,0.,0.5,1.,-37.5,57.,1.,-37.5,64.,     403P    662
1.99999999999999,-37.5,57.;                                          403P    663
504,90,153,403,1,403,2,155,403,2,403,3,157,403,3,403,4,159,403,      405P    664
4,403,1,161,403,2,403,5,163,403,6,403,5,165,403,3,403,6,167,403,     405P    665
7,403,8,169,403,8,403,9,171,403,9,403,10,173,403,10,403,7,175,       405P    666
403,11,403,12,177,403,12,403,13,179,403,13,403,14,181,403,14,        405P    667
403,11,183,403,10,403,11,185,403,14,403,7,187,403,7,403,4,189,       405P    668
403,15,403,6,191,403,16,403,15,193,403,17,403,16,195,403,17,403,     405P    669
18,197,403,19,403,18,199,403,8,403,19,201,403,14,403,1,203,403,      405P    670
20,403,13,205,403,21,403,20,207,403,21,403,22,209,403,23,403,22,     405P    671
211,403,24,403,23,213,403,5,403,24,215,403,20,403,19,217,403,18,     405P    672
403,21,219,403,12,403,25,221,403,26,403,25,223,403,27,403,26,        405P    673
225,403,27,403,28,227,403,28,403,29,229,403,29,403,9,231,403,30,     405P    674
403,31,233,403,32,403,30,235,403,31,403,32,237,403,33,403,26,        405P    675
239,403,34,403,33,241,403,26,403,34,243,403,33,403,32,245,403,       405P    676
30,403,34,247,403,35,403,36,249,403,36,403,27,251,403,34,403,35,     405P    677
253,403,25,403,37,255,403,37,403,33,257,403,38,403,39,259,403,       405P    678
39,403,31,261,403,32,403,38,263,403,40,403,41,265,403,41,403,30,     405P    679
267,403,31,403,42,269,403,40,403,42,271,403,41,403,35,273,403,       405P    680
43,403,44,275,403,44,403,43,277,403,45,403,46,279,403,47,403,45,     405P    681
281,403,48,403,47,283,403,46,403,48,285,403,40,403,36,287,403,       405P    682
49,403,39,289,403,50,403,49,291,403,42,403,50,293,403,49,403,29,     405P    683
295,403,28,403,50,297,403,27,403,42,299,403,48,403,51,301,403,       405P    684
52,403,51,303,403,52,403,46,305,403,45,403,53,307,403,54,403,53,     405P    685
309,403,54,403,47,311,403,51,403,54,313,403,24,403,15,315,403,       405P    686
16,403,23,317,403,22,403,17,319,403,44,403,55,321,403,56,403,55,     405P    687
323,403,55,403,56,325,403,55,403,57,327,403,57,403,57,329,403,       405P    688
38,403,37,331,403,53,403,52;                                         405P    689
406,1,8HSólido1;                                                    407P    690
314,74.9019607843137,74.9019607843137,74.9019607843137,;             409P    691
S      1G      3D    410P    691                                        T      1
